<?xml version="1.0" standalone="no"?><!DOCTYPE svg PUBLIC "-//W3C//DTD SVG 1.1//EN" "http://www.w3.org/Graphics/SVG/1.1/DTD/svg11.dtd"><svg t="1617352122235" class="icon" viewBox="0 0 1024 1024" version="1.1" xmlns="http://www.w3.org/2000/svg" p-id="8033" xmlns:xlink="http://www.w3.org/1999/xlink" width="700" height="700"><defs><style type="text/css"></style></defs><path d="M497.048 354.214h1.32l1.321-4.143 5.285-11.05 1.32-1.382 1.318-2.763 5.285-5.525 2.641-1.382 1.321-1.381 5.282-2.764 1.323-1.383 6.604-1.382 5.281-1.383 6.603-1.382 14.53-1.381h99.051l6.602 1.381 5.283 1.382 3.962 1.383 5.285 2.764 1.321 1.382 2.642 1.383 3.963 4.142h2.641v2.763l1.318 1.383 1.322 1.382 1.32 2.764 1.322 1.383 3.963 8.287 1.32 1.384 1.321 2.763 1.32 6.907 1.322 5.524 1.32 4.144 1.321 8.288 1.321 11.051 1.321 2.762 3.962 1.383h27.736l18.488-1.383 26.414-1.38 22.45-1.382 29.054-1.473 0.002 315.037H371.577V387.37h121.504v-9.67l3.963-23.482zM298.946 66.898l-7.924 1.382-13.208 2.764-5.283 1.381-6.603 1.381-2.64 1.382-5.282 1.382-2.645 1.382-2.639 2.763-2.642 1.383-5.284 5.524-1.319 2.764-1.32 2.763-1.321 1.382-1.321 2.763-1.319 1.383-1.321 4.141-1.322 5.526-1.319 8.29-1.321 6.906-1.321 12.431v37.297l60.753 1.382 6.602 1.382 2.641 1.382 1.32 1.38 5.282 2.764 1.322 1.382 1.319 1.382 2.642 1.383 1.32 1.382 1.321 2.763 2.643 2.764 1.32 2.761 1.32 1.382 2.641 5.527 1.321 1.381 1.32 2.764 1.32 5.524 1.322 6.907v23.483l-1.322 6.908-2.64 8.287-1.321 2.764-1.321 1.383-2.64 5.526-1.32 1.382v2.762h-2.642l-5.284 5.526v2.764h-2.641l-10.566 5.524-3.963 1.383-6.604 1.382-59.431 1.381-1.321 143.659v33.153l1.321 1.38 51.507 1.382 3.961 1.382 10.567 5.527 1.321 1.382 2.641 1.382 5.281 5.527 1.32 2.763 2.642 2.765 1.319 2.763 1.322 2.763 1.319 4.142 2.642 5.527 1.32 5.524 1.321 6.906v8.29l-1.321 8.288-1.32 4.144-1.321 4.142-1.321 2.763-1.319 4.142-1.322 2.764-6.603 6.907-1.321 2.761-1.32 1.382-2.641 1.383-3.961 4.145-5.285 2.761-10.567 2.763-50.187 1.38v154.71l1.321 1.385 56.79 1.379 5.284 1.38 3.962 1.384 1.321 1.379 2.641 1.385 3.962 1.379 1.32 1.386 9.246 9.668 1.321 2.764 1.32 1.379 1.321 2.763 1.322 1.38 1.321 4.141 1.32 4.147 2.64 8.285v17.959l-1.32 5.527-1.32 4.142-1.32 5.527-1.321 2.764-1.322 2.763-1.321 1.38-1.32 1.385-1.321 1.379-2.64 5.521-1.322 1.385-2.64 1.38-1.321 1.384-1.32 1.379-1.32 1.385-5.283 2.758-11.888 4.147-52.826 1.38-1.32 1.383v42.819l1.32 17.96 1.321 8.286 1.321 5.527 1.319 6.906 1.322 5.528 1.321 2.764 1.319 1.379 2.642 5.526 1.32 1.385 1.319 2.758 1.321 1.385 1.322 1.379 1.319 1.384 2.642 2.758 2.641 1.385 1.319 1.379 2.645 1.385 3.961 1.38 2.64 1.385 10.567 2.758 13.207 2.763 9.246 1.385h556.01l6.604-1.385 3.962-1.379 2.639-1.384 2.643-1.38 3.96-1.379 2.642-1.385 3.963-1.38 1.32-1.385 2.642-1.379 1.321-1.385 1.32-1.379 2.642-1.38 1.32-1.384 2.642-1.379 2.639-2.764 1.322-1.38 1.32-1.385 6.605-6.905 1.321-2.763 1.32-2.764 1.322-1.379 1.32-1.385 1.321-1.38 1.321-2.763 1.32-1.38 1.321-4.147 1.321-4.142 2.641-5.526 1.322-4.142 1.32-4.146 1.318-5.523V140.144l-1.318-5.527-1.32-5.525-1.322-2.763-1.32-2.764-1.321-4.145-1.321-2.761-1.321-4.145-1.32-2.763-3.962-4.146-1.322-2.764-1.32-1.38-1.321-2.763-11.887-12.433-2.642-1.382-2.641-2.763h-2.641v-2.761l-2.639-1.381-3.963-1.382-7.926-4.143-3.962-1.381-5.282-2.764-6.603-1.382-13.206-1.382H330.64l-31.696 1.382z m382.998 493.134l-1.32 9.668-1.322 2.764-1.32 4.144-1.321 2.761-1.32 2.764-1.322 1.382-1.32 2.764-1.322 4.142-2.641 2.764-1.321 2.764-2.641 2.764-1.32 2.764-1.322 1.379-6.602 6.904-2.642 1.385-1.32 1.379-1.322 1.385-2.641 1.38-1.321 1.384-1.321 1.379-2.642 1.385-3.962 1.379-2.641 1.38-1.321 1.385-7.922 2.764-2.642 1.38-3.962 1.384h-35.657l-11.888-4.147-1.321-1.379-2.641-1.385-3.962-1.38-5.284-2.764-1.318-1.379-2.641-1.384-1.322-1.38-1.323-1.385-1.321-1.379-2.639-1.385-1.32-1.38-2.642-1.379-1.321-2.765-1.321-2.76-2.641-1.383-2.641-2.764-1.321-2.764-1.319-2.764-1.321-1.382-3.963-8.288-1.32-1.382-1.321-2.764-1.322-5.524-1.32-4.142-1.323-5.527-1.319-5.525v-23.482l1.319-6.907 1.323-4.144 1.32-4.144 1.322-6.907 2.641-5.524 2.642-2.764 3.961-8.288 3.963-4.145 1.321-2.763 1.32-1.384 5.285-5.525 2.639-1.381 2.641-2.764 2.645-1.382 1.321-1.383L559.12 473l2.642-2.764 5.284-2.763 5.283-1.38 2.642-1.383 7.922-2.763 5.283-1.383 9.246-1.382h9.244l9.248 1.382 3.96 1.383 5.283 1.382 2.642 1.382 7.922 2.763 7.927 4.144 1.318 1.382 1.321 1.382 5.285 2.764h2.641v2.764l5.281 5.525 2.642 1.381 1.322 2.765 1.32 1.381 1.321 2.764 1.32 1.382h2.642v2.762l1.32 2.764 1.322 4.144 1.32 1.382 1.322 2.763 3.962 8.287 1.322 4.146 1.32 9.668 1.321 9.668v9.669l-1.319 9.672zM573.648 426.043l-11.887 4.143-7.924 4.144-3.964 1.383-7.925 4.143v2.764h-2.641l-2.641 1.382-1.321 1.383-2.64 1.382-3.963 4.145-2.641 1.38-1.322 1.382-1.32 1.383-1.323 1.382-7.925 8.29-1.32 2.763-2.642 2.763-1.321 2.763-1.321 1.382-1.318 1.383-1.32 1.382-1.322 4.143-1.32 2.763-1.32 1.382-2.643 5.525-2.64 5.527-1.321 5.524-1.321 2.764-1.321 4.142-1.321 5.526-1.319 5.524-1.321 8.287v31.772l1.321 6.907 1.319 6.907 2.642 8.288 1.321 2.764 1.321 6.907 1.32 1.382 3.963 8.29 1.32 1.379 1.32 2.764 1.322 4.141 1.32 2.764 2.639 1.385 1.321 2.764 1.321 1.379 1.321 1.385 1.32 2.758 1.321 1.385 1.321 1.379 1.321 1.385 9.246 9.669 2.641 1.379 1.321 1.385 2.641 2.758 5.282 2.764 2.641 2.763 2.642 1.385 5.282 2.757 3.964 1.385 2.642 1.379 2.638 1.384 2.642 1.38 11.887 4.141 13.208 1.385h30.374l13.209-1.385 5.281-1.379 2.641-1.38 3.962-1.384 7.926-4.141 5.284-1.385 1.321-1.379 5.281-2.763 1.322-1.38 1.32-1.384 7.926-4.141 1.32-2.764 2.642-1.379 1.321-1.385 1.32-1.38 2.642-1.384 1.321-2.758 1.321-1.384 1.321-1.38 1.32-1.385 1.318-1.379 2.642-1.385 1.322-4.142 1.32-1.379 1.321-2.764 2.641-1.385 2.641-5.521 1.322-1.383 1.32-4.142 3.964-8.29 1.32-1.382 1.322-2.761 1.32-4.145 1.322-6.908 1.318-4.142 1.32-6.907 1.323-6.907v-33.151l-1.323-6.908-1.32-5.524-1.318-5.526-1.322-6.907-1.32-4.144-1.322-2.762-1.32-1.382-3.964-8.289-1.32-4.143-1.322-1.381-1.32-2.764-3.963-4.145-1.321-2.763-1.32-1.382-1.322-2.761-1.32-1.383-11.888-12.435-2.641-1.38-1.322-1.382-1.32-2.764-7.926-4.145-2.642-2.764-7.924-4.143-3.963-1.383-7.926-4.144-3.962-1.382-2.641-1.382-5.281-1.381-13.209-1.383h-29.056l-14.526 1.381zM130.602 187.074l-3.963 1.383-1.321 1.38-2.639 1.383-3.962 1.382-2.642 1.381-1.319 2.763-7.926 8.289-1.319 4.142-2.641 5.526-1.321 4.144-1.321 6.907v9.669l1.321 6.906 1.321 5.527 1.32 2.763 1.321 1.381 1.319 5.524 3.963 4.145 2.642 1.382 1.321 1.382 1.319 2.763 1.321 1.382 2.641 1.38 1.321 1.382 7.924 2.764 5.281 1.382h122.825l11.888-4.145 2.641-1.382 1.321-1.38 5.282-5.525 2.64-1.382 1.321-2.764 1.32-1.382 1.32-4.142 1.321-1.382 1.321-2.764 1.319-4.144 1.322-4.144v-17.956l-1.322-6.907-1.319-4.145-1.321-1.382-1.321-2.762-1.32-4.145-2.641-1.38-1.32-2.764-2.641-2.764h-2.641v-2.763l-7.924-4.144-1.32-1.38-3.962-1.383-5.284-1.382H134.563z m-1.291 556.672l-2.64 1.385-7.923 2.764-2.642 2.764-2.642 1.379-1.321 1.386-1.32 1.379-1.321 1.385-1.319 1.379-1.32 2.764-1.321 1.379-1.321 2.763-1.32 2.764-1.321 1.379-2.64 8.289v19.34l1.32 5.526 1.32 4.142 1.321 1.379 1.32 2.765 1.321 1.385 1.321 2.763 1.32 1.38 1.319 1.385 2.641 2.758 1.321 1.385 2.642 2.758 1.321 1.385 2.64 1.38 5.283 1.384 1.32 1.38 6.603 1.385h117.542l5.282-1.385 2.641-1.38 5.283-1.384 2.642-1.38v-2.764h2.641l6.601-6.907 1.321-2.763 1.32-1.379 1.321-2.765 1.32-1.385 1.32-2.763 1.32-2.758 1.32-5.526v-17.96l-1.32-5.526-1.32-4.143-1.32-1.379-1.32-2.764-1.321-2.763-1.32-1.379-1.321-2.764-1.321-1.379-1.32-1.385-1.319-1.379-1.321-1.386-2.641-1.379-1.32-1.384-1.321-1.381-7.925-2.763-2.64-1.385-7.924-1.379H137.234z m-2.424-266.594l-2.642 1.382-3.964 1.383-2.641 1.381v2.763h-2.639l-3.963 1.382-2.64 2.764-1.321 2.762-1.32 1.383v2.764h-2.642l-1.318 2.762-1.321 1.382-1.32 4.145-1.321 6.906v22.103l1.321 6.907 2.641 5.524 5.281 5.524 1.321 2.764 1.321 1.382 2.64 1.383 1.32 1.381 2.641 1.383 2.641 2.762 2.64 1.382 3.964 1.383h128.107l3.962-1.383 1.32-1.382 5.283-2.762 1.319-1.383 1.321-1.381 2.641-1.383 5.283-5.527 6.604-13.811 1.32-6.909v-13.811l-1.32-6.908-1.32-2.762-1.321-4.144-2.641-5.525-10.567-11.051-7.923-4.142-1.321-1.383-5.282-1.382-9.246-1.381H136.129zM110.79 308.83h68.677v127.453H110.79V308.83z m0 288.384h68.677v116.65H110.79v-116.65z m695.298-208.465h27.736v312.18H374.223v-312.18h120.184l1.322-11.051 1.319-13.813v-9.669l-3.963 23.482v9.67H371.581v314.945h463.562l-0.002-315.037z" p-id="8034" fill="#bfbfbf"></path></svg>