<?xml version="1.0" standalone="no"?><!DOCTYPE svg PUBLIC "-//W3C//DTD SVG 1.1//EN" "http://www.w3.org/Graphics/SVG/1.1/DTD/svg11.dtd"><svg t="1590562628808" class="icon" viewBox="0 0 1024 1024" version="1.1" xmlns="http://www.w3.org/2000/svg" p-id="11586" width="300" height="300" xmlns:xlink="http://www.w3.org/1999/xlink"><defs><style type="text/css"></style></defs><path d="M98.032 512.04a413.968 413.968 0 1 0 827.936 0 413.968 413.968 0 1 0-827.936 0z" fill="#F0C48A" p-id="11587"></path><path d="M808.177 428.046v-4.6c0-147.788-122.39-268.18-270.179-261.78-137.79 6-247.581 119.391-247.581 258.58v591.955h258.78V900.409h123.19c74.995 0 135.59-60.795 135.59-135.59v-83.793h58.596c23.398 0 39.397-23.998 29.997-45.596l-88.593-206.984c0.2-0.2 0.2-0.2 0.2-0.4z" fill="#D3E6F8" p-id="11588"></path><path d="M808.177 764.82v-83.794h58.596c23.398 0 39.397-23.998 29.997-45.596l-88.593-206.984v-8c0-121.19-83.393-222.982-195.985-251.18 77.794 45.996 147.789 152.988 147.789 252.18l44.397 104.592 45.396 100.593c4.6 10.399-2.8 21.998-14.199 21.998H780.18c-8.599 0-15.598 7-15.598 15.599v97.792c0 58.596-47.397 105.992-105.992 105.992h-137.19c-8.6 0-15.599 7-15.599 15.599v128.79h43.597V900.609h123.19c74.995-0.2 135.59-60.995 135.59-135.79z" fill="#A4CFF2" p-id="11589"></path><path d="M549.397 1024h-258.78c-6.4 0-11.8-5.2-11.8-11.8V420.247c0-70.194 26.799-136.79 75.395-187.385 48.396-50.396 113.591-79.994 183.386-82.994 73.794-3.2 143.989 23.398 197.585 74.794 53.796 51.596 84.793 123.99 84.793 198.585v2.4L907.77 630.63c6 13.8 4.4 29.398-3.8 41.997s-22.198 19.998-37.197 19.998h-46.797v71.995c0 81.194-66.195 147.389-147.388 147.389H561.196V1012.2c0 6.6-5.4 11.799-11.799 11.799z m-247.18-23.398h235.381V900.409c0-6.399 5.2-11.799 11.8-11.799h123.19c68.394 0 123.99-55.595 123.99-123.99v-83.794c0-6.4 5.2-11.799 11.8-11.799h58.595c7.2 0 13.599-3.4 17.598-9.399 4-6 4.6-13.199 1.8-19.798l-88.593-206.985c-0.6-1.6-1-3.2-1-4.8v-4.599c0-68.195-28.198-134.39-77.594-181.786-49.196-46.796-113.191-71.194-180.586-68.195-63.795 2.8-123.19 29.598-167.387 75.795-44.397 46.196-68.795 106.991-68.795 171.186v580.156z m516.76-576.956z" fill="#4C4372" p-id="11590"></path><path d="M456.604 177.865c0-95.793-80.994-172.587-178.186-165.787-82.394 6-148.589 72.994-153.788 155.388-3.2 53.596 18.798 101.992 55.396 134.59 16.598 14.798 26.397 35.797 26.397 57.995v85.993c0 46.397 37.598 83.994 83.994 83.994s83.994-37.597 83.994-83.994v-85.993c0-21.798 9.199-42.997 25.598-57.396 34.797-30.397 56.595-74.994 56.595-124.79z" fill="#E8677D" p-id="11591"></path><path d="M278.418 12.278c-82.394 5.8-148.589 72.794-153.788 155.188-3.2 53.596 18.798 101.992 55.396 134.59 16.598 14.798 26.397 35.797 26.397 57.995v85.993c0 21.999 8.4 41.797 22.199 56.796 35.597-9.8 61.795-42.197 61.795-80.994v-85.993c0-21.798 9.2-42.997 25.598-57.396 34.597-30.397 56.396-74.994 56.396-124.79 0-60.195-31.998-112.791-79.794-141.99-4.6 0.2-9.4 0.2-14.199 0.6z" fill="#FD919E" p-id="11592"></path><path d="M206.423 360.051v85.993c0 46.397 37.598 83.994 83.994 83.994s83.994-37.597 83.994-83.994v-85.993H206.423z" fill="#FFFFFF" p-id="11593"></path><path d="M290.617 362.25v165.188h20.798c36.398-9.2 63.396-42.197 63.396-81.394v-83.793h-84.194z" fill="#D3E6F8" p-id="11594"></path><path d="M290.617 541.837c-52.796 0-95.793-42.997-95.793-95.793v-85.993c0-18.599-8.199-36.597-22.398-49.196-40.997-36.597-62.795-88.993-59.395-144.19C118.43 78.274 189.225 6.679 277.618 0.48c49.996-3.6 97.593 13.199 134.19 47.196 35.997 33.597 56.595 80.994 56.595 130.19 0 50.996-21.998 99.792-60.395 133.59-13.799 11.999-21.598 29.797-21.598 48.596v85.993c0 52.796-42.997 95.793-95.793 95.793z m0-518.36c-3.8 0-7.6 0.2-11.4 0.4-76.793 5.4-138.188 67.395-142.788 144.189-3 47.796 15.799 93.393 51.596 125.19 19.198 17.199 30.198 41.397 30.198 66.795v85.993c0 39.997 32.397 72.395 72.394 72.395s72.394-32.398 72.394-72.395v-85.993c0-25.598 10.8-49.596 29.598-66.195 33.398-29.398 52.396-71.594 52.396-115.991 0-42.797-17.998-83.794-49.196-112.991-28.998-26.798-65.995-41.397-105.192-41.397z" fill="#4C4372" p-id="11595"></path><path d="M374.61 371.85H206.424c-6.399 0-11.799-5.2-11.799-11.799s5.2-11.8 11.8-11.8H374.61c6.4 0 11.799 5.2 11.799 11.8s-5.4 11.8-11.8 11.8z m-19.398 79.994h-135.39c-6.4 0-11.799-5.2-11.799-11.8s5.2-11.798 11.8-11.798h135.389c6.4 0 11.8 5.2 11.8 11.799s-5.4 11.799-11.8 11.799z" fill="#4C4372" p-id="11596"></path><path d="M290.617 371.85c-6.4 0-11.8-5.2-11.8-11.799V172.265c0-6.399 5.2-11.799 11.8-11.799 6.4 0 11.8 5.2 11.8 11.8V360.05c-0.2 6.6-5.4 11.8-11.8 11.8zM723.984 437.845H640.19c-6.4 0-11.799-5.2-11.799-11.799s5.2-11.8 11.8-11.8h83.793c6.4 0 11.799 5.2 11.799 11.8s-5.4 11.799-11.8 11.799z" fill="#4C4372" p-id="11597"></path></svg>