<?xml version="1.0" standalone="no"?><!DOCTYPE svg PUBLIC "-//W3C//DTD SVG 1.1//EN" "http://www.w3.org/Graphics/SVG/1.1/DTD/svg11.dtd"><svg t="1620896209311" class="icon" viewBox="0 0 1024 1024" version="1.1" xmlns="http://www.w3.org/2000/svg" p-id="92784" xmlns:xlink="http://www.w3.org/1999/xlink" width="500" height="500"><defs><style type="text/css"></style></defs><path d="M625.493333 132.522667v66.986666h309.930667v43.264H625.493333v69.717334h309.930667v43.264H625.493333v68.352h309.930667v43.264H625.493333v68.352h309.930667v43.264H625.493333v68.352h309.930667v43.264H625.493333v68.352h309.930667V802.133333H625.493333v89.344H1024V132.522667H625.493333z" fill="#637A5C" p-id="92785"></path><path d="M234.325333 346.282667a13.653333 13.653333 0 0 0-13.312 13.568 13.397333 13.397333 0 0 0 13.738667 13.141333A13.141333 13.141333 0 0 0 247.466667 359.509333a13.397333 13.397333 0 0 0-13.568-13.226666z" fill="#97C03D" p-id="92786"></path><path d="M0 108.8v806.4L577.024 1024V0z m144.128 460.8a26.794667 26.794667 0 0 1-49.664 12.970667 30.378667 30.378667 0 0 1-4.096-13.994667V453.461333a26.965333 26.965333 0 0 1 53.930667 0v57.514667c-0.085333 19.797333 0.085333 39.338667-0.170667 58.88z m270.762667 50.346667c0 21.077333-11.349333 32.256-32.682667 32.256H366.933333v65.792a26.368 26.368 0 0 1-25.6 25.173333 25.6 25.6 0 0 1-28.074666-23.125333c-0.853333-22.272 0-44.544 0-67.328H264.533333V718.336a26.282667 26.282667 0 0 1-22.954666 24.746667 26.965333 26.965333 0 0 1-29.44-18.346667 29.44 29.44 0 0 1-1.365334-8.533333v-55.552c0-2.56 0.426667-5.12 0.768-8.533334h-18.944A28.330667 28.330667 0 0 1 162.133333 622.336V427.178667h252.757334zM162.133333 408.661333c2.304-43.434667 27.136-70.4 64.085334-89.6l-11.093334-17.066666-7.936-11.861334c-1.877333-2.816-4.864-5.973333-0.682666-8.533333s6.314667 1.194667 8.533333 4.096l14.08 20.906667c5.802667 8.533333 5.802667 8.533333 15.701333 5.717333a152.832 152.832 0 0 1 93.866667 2.048l3.669333 1.109333 19.285334-28.672 2.304-3.413333c1.792-2.56 4.096-3.925333 6.997333-1.792s2.133333 4.352 0.512 6.826667l-16.64 24.832-3.84 5.888c36.693333 19.029333 61.781333 45.994667 64.085333 89.6z m324.266667 158.634667a27.050667 27.050667 0 1 1-53.930667 0V453.717333a26.965333 26.965333 0 0 1 53.930667-5.632 39.082667 39.082667 0 0 1 0.597333 8.533334v54.954666c0 18.261333-0.085333 37.034667-0.170666 55.637334z" fill="#97C03D" p-id="92787"></path><path d="M342.784 346.282667a13.397333 13.397333 0 0 0-13.482667 13.312 13.141333 13.141333 0 0 0 13.312 13.397333 13.312 13.312 0 0 0 13.653334-13.141333 13.653333 13.653333 0 0 0-13.482667-13.568z" fill="#97C03D" p-id="92788"></path></svg>