<?xml version="1.0" standalone="no"?><!DOCTYPE svg PUBLIC "-//W3C//DTD SVG 1.1//EN" "http://www.w3.org/Graphics/SVG/1.1/DTD/svg11.dtd"><svg t="1611823669184" class="icon" viewBox="0 0 1024 1024" version="1.1" xmlns="http://www.w3.org/2000/svg" p-id="1993" xmlns:xlink="http://www.w3.org/1999/xlink" width="700" height="700"><defs><style type="text/css"></style></defs><path d="M511.209 233.734a249.367 249.367 0 0 1 249.023 249.152c0 75.284-29.89 142.47-69.556 199.278 59.693-31.44 134.934-97.292 135.02-199.278a314.401 314.401 0 0 0-314.401-314.401h-0.948a314.401 314.401 0 0 0-314.4 314.4c0 101.987 75.283 167.968 134.976 199.28-39.666-56.808-69.47-123.995-69.556-199.28a249.367 249.367 0 0 1 249.066-249.151zM510.304 0A483.058 483.058 0 0 0 70.918 683.585c55.99 122.358 161.637 196.781 291.187 230.547l-8.614-18.175C254.433 847.462 174.584 752.452 130.44 655.59a417.378 417.378 0 1 1 797.114-172.792c-0.301 171.844-104.054 340.243-252.296 412.038l-7.537 19.769c189.244-58.1 325.211-220.383 325.254-431.807A482.843 482.843 0 0 0 510.304 0m139.887 629.62c13.868 170.595-80.28 380.34-80.28 380.34a148.845 148.845 0 0 1-59.348 11.499 153.626 153.626 0 0 1-59.866-11.5s-94.19-209.744-80.366-380.339c0 0 22.18-71.752 141.05-71.752s138.81 71.752 138.81 71.752m-33.636-213.49A106.293 106.293 0 1 1 510.26 309.835a106.293 106.293 0 0 1 106.294 106.293" p-id="1994"></path></svg>