<?xml version="1.0" standalone="no"?><!DOCTYPE svg PUBLIC "-//W3C//DTD SVG 1.1//EN" "http://www.w3.org/Graphics/SVG/1.1/DTD/svg11.dtd"><svg t="1614910168157" class="icon" viewBox="0 0 1024 1024" version="1.1" xmlns="http://www.w3.org/2000/svg" p-id="2864" xmlns:xlink="http://www.w3.org/1999/xlink" width="700" height="700"><defs><style type="text/css"></style></defs><path d="M341.333333 0v192h42.666667V42.666667h597.333333v341.333333h-136.832L704 524.501333V384h-106.666667v42.666667h64v200.832L862.165333 426.666667H1024V0z" fill="#bfbfbf" p-id="2865"></path><path d="M602.026667 823.872L448 768.704v-73.514667c47.68-40.64 78.869333-106.517333 78.890667-180.970666 0-123.2-85.141333-223.424-189.76-223.424-104.64 0-189.76 100.245333-189.76 223.424 0 78.762667 34.88 147.989333 87.296 187.797333v66.688L80.64 823.893333C32.405333 841.152 0 887.466667 0 939.157333V1024h682.666667v-84.842667c0-51.712-32.426667-98.026667-80.64-115.285333zM337.130667 333.482667c70.677333 0 129.856 61.632 143.893333 143.466666-45.013333 7.637333-72.384-7.530667-99.605333-55.146666l-19.392-33.898667-18.048 34.624c-14.613333 28.010667-66.048 53.525333-107.925334 53.525333a115.2 115.2 0 0 1-41.152-6.997333c16.384-77.845333 73.834667-135.573333 142.229334-135.573333z m-147.072 180.757333c0-0.704 0.085333-1.386667 0.085333-2.090667a161.002667 161.002667 0 0 0 45.909333 6.570667c45.44 0 95.104-20.757333 125.248-49.834667 27.072 35.776 58.901333 52.778667 98.965334 52.778667a166.4 166.4 0 0 0 23.744-2.005333c-2.368 97.173333-67.242667 175.381333-146.88 175.381333-81.088 0-147.072-81.109333-147.072-180.8zM640 981.333333H42.666667v-42.176c0-33.728 21.034667-63.914667 52.352-75.114666L277.333333 798.741333v-72.597333a163.157333 163.157333 0 0 0 59.797334 11.541333A163.733333 163.733333 0 0 0 405.333333 722.517333v76.224l182.314667 65.322667c31.317333 11.2 52.352 41.365333 52.352 75.093333V981.333333zM768 213.333333h42.666667v42.666667h-42.666667zM661.333333 213.333333h42.666667v42.666667h-42.666667zM554.666667 213.333333h42.666666v42.666667h-42.666666z" fill="#bfbfbf" p-id="2866"></path></svg>