<?xml version="1.0" standalone="no"?><!DOCTYPE svg PUBLIC "-//W3C//DTD SVG 1.1//EN" "http://www.w3.org/Graphics/SVG/1.1/DTD/svg11.dtd"><svg t="1559786410914" class="icon" style="" viewBox="0 0 1342 1024" version="1.1" xmlns="http://www.w3.org/2000/svg" p-id="3247" xmlns:xlink="http://www.w3.org/1999/xlink" width="393.1640625" height="300"><defs><style type="text/css"></style></defs><path d="M204.771806 374.443278h938.1011v-80.875935h-938.1011v80.875935z m0 234.521918h331.569348v-80.8709h-331.569348v80.8709z m0 137.484558h331.569348v-80.8709h-331.569348v80.8709z m0 0" p-id="3248" fill="#cdcdcd"></path><path d="M1312.702133 145.568627C1312.702133 64.697727 1248.006084 0 1167.135183 0H172.418746C91.549524 0 26.851797 64.697727 26.851797 145.568627v732.864424c0 80.8709 64.697727 145.566949 145.566949 145.566949h994.716437c80.8709 0 145.566949-64.696049 145.56695-145.566949v-56.605267h-80.870901v56.605267c0 32.351381-24.262277 64.697727-64.697727 64.697727H172.418746c-32.344668 0-64.696049-24.260599-64.696048-64.697727V145.568627c0-32.346346 24.262277-64.697727 64.696048-64.697727h994.716437c32.351381 0 64.697727 24.262277 64.697727 64.697727v339.500699h80.870901V145.568627z m0 0" p-id="3249" fill="#cdcdcd"></path><path d="M811.303558 608.965196h501.401931v80.874257H811.303558z" p-id="3250" fill="#cdcdcd"></path><path d="M964.959611 528.094296l-56.613658-56.606945-177.913296 177.91833L908.345953 827.318977l56.613658-56.605267-121.304672-121.306351 121.304672-121.313063z m0 0" p-id="3251" fill="#cdcdcd"></path></svg>