<?xml version="1.0" standalone="no"?><!DOCTYPE svg PUBLIC "-//W3C//DTD SVG 1.1//EN" "http://www.w3.org/Graphics/SVG/1.1/DTD/svg11.dtd"><svg t="1598517568282" class="icon" viewBox="0 0 1024 1024" version="1.1" xmlns="http://www.w3.org/2000/svg" p-id="2142" xmlns:xlink="http://www.w3.org/1999/xlink" width="200" height="200"><defs><style type="text/css"></style></defs><path d="M704.721322 209.163502m0-3.952447l0-25.295662q0-3.952447 3.952447-3.952447l195.567083 0q3.952447 0 3.952447 3.952447l0 25.295662q0 3.952447-3.952447 3.952447l-195.567083 0q-3.952447 0-3.952447-3.952447Z" p-id="2143" fill="#cdcdcd"></path><path d="M737.76378 209.163502m-3.952448 0l-25.295661 0q-3.952447 0-3.952447-3.952447l0-110.826618q0-3.952447 3.952447-3.952447l25.295661 0q3.952447 0 3.952448 3.952447l0 110.826618q0 3.952447-3.952448 3.952447Z" p-id="2144" fill="#cdcdcd"></path><path d="M915.088064 191.7282m-2.794802 2.794802l-17.886734 17.886734q-2.794802 2.794802-5.589604 0l-187.922497-187.922497q-2.794802-2.794802 0-5.589605l17.886734-17.886734q2.794802-2.794802 5.589604 0l187.922497 187.922498q2.794802 2.794802 0 5.589604Z" p-id="2145" fill="#cdcdcd"></path><path d="M432.476764 1006.767331m-16.600278 0a16.600278 16.600278 0 1 0 33.200556 0 16.600278 16.600278 0 1 0-33.200556 0Z" p-id="2146" fill="#cdcdcd"></path><path d="M365.285163 990.325151H177.306778a33.674849 33.674849 0 0 1-33.516752-33.67485v-885.348155a33.516752 33.516752 0 0 1 33.516752-32.88436h545.753898V5.21723H177.306778A66.717307 66.717307 0 0 0 110.58947 71.934538v885.348155a66.717307 66.717307 0 0 0 66.717308 66.717307h187.978385a15.809788 15.809788 0 1 0 0-33.042458zM908.193299 275.406515a15.809788 15.809788 0 0 0-33.042458 0v681.243786a33.674849 33.674849 0 0 1-33.516751 33.67485h-343.07241a15.809788 15.809788 0 0 0 0 33.042457h342.914312a66.717307 66.717307 0 0 0 66.717307-66.717307V275.406515z" p-id="2147" fill="#cdcdcd"></path><path d="M743.771499 347.815347H544.093871a15.809788 15.809788 0 1 1 0-31.619577h199.677628a15.809788 15.809788 0 1 1 0 31.619577zM337.776131 347.815347h-63.239154a15.809788 15.809788 0 1 1 0-31.619577h63.239154a15.809788 15.809788 0 1 1 0 31.619577zM743.771499 529.94411h-73.673614a15.809788 15.809788 0 0 1 0-31.619577h73.673614a15.809788 15.809788 0 1 1 0 31.619577zM490.024394 529.94411H275.011271a15.809788 15.809788 0 1 1 0-31.619577H490.024394a15.809788 15.809788 0 0 1 0 31.619577z" p-id="2148" fill="#cdcdcd"></path><path d="M404.967732 399.513355A67.823993 67.823993 0 1 1 472.633627 332.005558a67.98209 67.98209 0 0 1-67.665895 67.507797z m0-104.344604A36.678709 36.678709 0 1 0 441.488343 332.005558a36.678709 36.678709 0 0 0-36.520611-36.836807zM743.771499 712.547167H544.093871a15.809788 15.809788 0 1 1 0-31.619577h199.677628a15.809788 15.809788 0 0 1 0 31.619577zM337.776131 712.547167h-63.239154a15.809788 15.809788 0 1 1 0-31.619577h63.239154a15.809788 15.809788 0 0 1 0 31.619577z" p-id="2149" fill="#cdcdcd"></path><path d="M404.967732 764.719469a67.823993 67.823993 0 1 1 67.665895-67.823993 67.98209 67.98209 0 0 1-67.665895 67.823993z m0-104.344604a36.520611 36.520611 0 1 0 36.520611 36.520611 36.520611 36.520611 0 0 0-36.520611-36.520611zM613.65694 582.116412a67.823993 67.823993 0 1 1 67.665895-67.823993 67.98209 67.98209 0 0 1-67.665895 67.823993z m0-104.344604a36.678709 36.678709 0 1 0 36.520611 36.520611 36.678709 36.678709 0 0 0-36.520611-36.520611z" p-id="2150" fill="#cdcdcd"></path></svg>