<?xml version="1.0" standalone="no"?><!DOCTYPE svg PUBLIC "-//W3C//DTD SVG 1.1//EN" "http://www.w3.org/Graphics/SVG/1.1/DTD/svg11.dtd"><svg t="1588764443862" class="icon" viewBox="0 0 1024 1024" version="1.1" xmlns="http://www.w3.org/2000/svg" p-id="4639" width="500" height="500" xmlns:xlink="http://www.w3.org/1999/xlink"><defs><style type="text/css"></style></defs><path d="M655.36 491.874987l81.92-81.83808c20.48 6.826667 40.96 13.653333 61.44 13.653333 109.226667 0 191.146667-88.664747 191.146667-190.941867 0-27.27936-6.826667-54.55872-20.48-81.824426l-81.92 81.824426c-13.653333 13.63968-27.306667 20.452693-47.786667 20.452694-34.133333 0-61.44-27.27936-61.44-61.371734 0-20.452693 6.826667-34.092373 20.48-47.732053l81.92-81.824427c-27.306667-13.653333-54.613333-20.466347-81.92-20.466346-109.226667 0-191.146667 88.651093-191.146667 190.941866 0 20.452693 6.826667 40.905387 13.653334 61.371734l-95.573334 88.651093c-13.653333 0-20.48-6.826667-34.133333-6.826667-27.306667 0-47.786667 6.826667-68.266667 20.452694L211.626667 178.189653l27.306666-27.265706c6.826667-6.826667 6.826667-6.826667 6.826667-13.653334 0-6.813013-6.826667-13.626027-13.653333-20.452693l-122.88-75.011413h-13.653334c-6.826667 0-13.653333 0-13.653333 6.826666l-40.96 40.91904c-6.826667 0-6.826667 6.813013-6.826667 13.626027v13.653333l75.093334 129.55648c6.826667 6.826667 13.653333 13.63968 20.48 13.63968s13.653333 0 13.653333-6.826666l27.306667-40.91904L382.293333 437.316267c-13.653333 20.452693-20.48 40.91904-20.48 68.1984v27.265706L61.44 812.373333c-20.48 20.466347-27.306667 47.745707-27.306667 75.011414 0 61.371733 47.786667 109.103787 109.226667 109.103786 27.306667 0 61.44-6.826667 81.92-27.265706L491.52 682.8032 771.413333 962.382507c20.48 20.466347 54.613333 34.092373 88.746667 34.092373 68.266667 0 129.706667-54.545067 129.706667-129.55648 0-34.092373-13.653333-68.184747-34.133334-88.651093l-300.373333-286.39232zM129.706667 185.002667L88.746667 110.004907l13.653333-20.452694 75.093333 47.732054L129.706667 185.002667z m648.533333-95.464107L757.76 110.004907c-47.786667 47.732053-40.96 115.9168 6.826667 163.648853 47.786667 47.745707 116.053333 54.55872 163.84 6.826667l27.306666-27.27936C935.253333 328.226133 880.64 375.944533 812.373333 375.944533c-20.48 0-34.133333 0-54.613333-6.826666-6.826667 0-6.826667-6.813013-13.653333-6.813014-27.306667-13.63968-47.786667-34.092373-61.44-61.371733 0-6.826667-6.826667-6.826667-6.826667-13.63968-6.826667-13.63968-6.826667-34.092373-6.826667-54.545067-13.653333-81.824427 47.786667-143.19616 109.226667-143.19616z m-136.533333 245.486933c13.653333 20.452693 27.306667 34.092373 47.786666 47.732054l-68.266666 74.99776-40.96-40.905387-13.653334-13.653333 75.093334-68.184747zM184.32 928.290133c-13.653333 13.63968-27.306667 20.452693-47.786667 20.452694-34.133333 0-54.613333-20.452693-54.613333-54.545067 0-20.466347 6.826667-34.092373 20.48-47.732053l286.72-265.95328 13.653333 13.653333 47.786667 47.7184L184.32 928.290133z m669.013333 13.63968c-20.48 0-40.96-6.826667-54.613333-20.452693L525.653333 648.710827l-27.306666-27.27936-54.613334-54.545067c-6.826667-6.826667-13.653333-13.653333-13.653333-20.466347V505.501013a87.6544 87.6544 0 0 1 68.266667-68.184746h20.48c6.826667 0 13.653333 6.826667 20.48 6.826666s6.826667 6.813013 13.653333 13.626027l54.613333 54.55872 27.306667 27.27936 273.066667 272.75264c13.653333 13.653333 20.48 34.106027 20.48 54.55872 0 40.91904-34.133333 75.011413-75.093334 75.011413z m13.653334-88.651093L655.36 641.88416c-6.826667-6.826667-6.826667-6.826667-13.653333-6.826667-13.653333 0-20.48 13.653333-20.48 27.293014 0 6.826667 0 13.63968 6.826666 13.63968L839.68 887.371093c6.826667 6.826667 6.826667 6.826667 13.653333 6.826667 13.653333 0 20.48-13.653333 20.48-27.27936 0-6.826667 0-13.63968-6.826666-13.63968z m-730.453334 13.63968c-13.653333 0-27.306667 13.63968-27.306666 27.27936s13.653333 27.27936 27.306666 27.27936 27.306667-13.653333 27.306667-27.27936c0-20.466347-13.653333-27.27936-27.306667-27.27936z" p-id="4640" fill="#515151"></path></svg>