<?xml version="1.0" standalone="no"?><!DOCTYPE svg PUBLIC "-//W3C//DTD SVG 1.1//EN" "http://www.w3.org/Graphics/SVG/1.1/DTD/svg11.dtd"><svg t="1612507238628" class="icon" viewBox="0 0 1024 1024" version="1.1" xmlns="http://www.w3.org/2000/svg" p-id="1565" xmlns:xlink="http://www.w3.org/1999/xlink" width="700" height="700"><defs><style type="text/css"></style></defs><path d="M188.8 241.6h427.2v48H188.8zM188.8 422.4h233.6v48H188.8zM188.8 601.6h152v48h-152zM694.4 507.2h-48l1.6 195.2 107.2 97.6 32-35.2-92.8-81.6z" p-id="1566" fill="#8a8a8a"></path><path d="M748.8 393.6V64H64v790.4l384-1.6c56 68.8 137.6 107.2 224 107.2 160 0 289.6-129.6 289.6-289.6-1.6-128-88-241.6-212.8-276.8zM112 806.4V112h587.2v272c-9.6-1.6-19.2-1.6-28.8-1.6-160 0-289.6 129.6-289.6 289.6 0 14.4 1.6 30.4 4.8 51.2 1.6 4.8 1.6 9.6 3.2 14.4 3.2 12.8 6.4 24 11.2 36.8 3.2 9.6 8 19.2 14.4 32H112zM670.4 912c-75.2 0-145.6-35.2-192-96-6.4-9.6-12.8-19.2-19.2-30.4l-3.2-6.4c-4.8-8-8-16-11.2-24-1.6-6.4-4.8-12.8-6.4-22.4-1.6-4.8-3.2-11.2-3.2-16-3.2-16-4.8-30.4-4.8-43.2C430.4 540.8 539.2 432 672 432c16 0 32 1.6 48 4.8 112 22.4 192 121.6 192 235.2 0 131.2-108.8 240-241.6 240z" p-id="1567" fill="#8a8a8a"></path></svg>