<?xml version="1.0" standalone="no"?><!DOCTYPE svg PUBLIC "-//W3C//DTD SVG 1.1//EN" "http://www.w3.org/Graphics/SVG/1.1/DTD/svg11.dtd"><svg t="1612508663235" class="icon" viewBox="0 0 1024 1024" version="1.1" xmlns="http://www.w3.org/2000/svg" p-id="5244" xmlns:xlink="http://www.w3.org/1999/xlink" width="700" height="700"><defs><style type="text/css"></style></defs><path d="M1001.08928 740.032l-33.536 10.304c0.96 7.296 2.176 14.336 2.176 21.76 0 7.36-1.216 14.4-2.368 21.568l33.728 10.56a30.08 30.08 0 0 1 20.288 38.272 32.128 32.128 0 0 1-39.872 19.648l-34.176-10.624c-7.104 12.8-15.744 24.64-26.176 35.2l20.8 27.392c5.12 6.464 7.168 14.72 5.76 22.848a29.696 29.696 0 0 1-12.672 19.584 32.512 32.512 0 0 1-44.352-6.784l-20.8-27.52a169.6 169.6 0 0 1-42.944 13.888v33.6c0 16.704-14.08 30.4-31.616 30.4a31.168 31.168 0 0 1-31.872-30.4v-33.6a167.424 167.424 0 0 1-42.816-13.888l-20.928 27.52a32.448 32.448 0 0 1-44.16 6.784 29.632 29.632 0 0 1-7.04-42.432l20.864-27.776a166.528 166.528 0 0 1-27.008-34.624l-33.28 10.432a31.872 31.872 0 0 1-39.936-19.584 29.824 29.824 0 0 1 20.224-38.208l33.408-10.432c-0.768-7.296-1.984-14.272-1.984-21.76 0-7.424 1.152-14.528 2.304-21.696l-33.792-10.304a30.272 30.272 0 0 1-20.224-38.4 32.128 32.128 0 0 1 39.936-19.648l33.92 10.688c7.36-12.608 15.872-24.768 26.368-35.264l-20.8-27.52a29.44 29.44 0 0 1 6.976-42.432 32.64 32.64 0 0 1 44.288 6.784l20.864 27.52c13.632-6.4 28.16-11.136 43.008-13.888v-33.536c0-16.704 14.08-30.4 31.616-30.4s31.808 13.568 31.808 30.4V608c15.04 2.688 29.312 7.808 42.816 14.016l20.928-27.584a32.448 32.448 0 0 1 44.16-6.784 29.568 29.568 0 0 1 7.168 42.432l-20.992 27.776c10.432 10.432 19.84 21.888 27.008 34.688l33.344-10.368a32 32 0 0 1 39.872 19.648 30.08 30.08 0 0 1-20.288 38.272zM795.26528 665.6c-61.248 0-110.976 47.744-110.976 106.432 0 58.88 49.728 106.432 110.976 106.432 61.312 0 111.04-47.616 111.04-106.432 0-58.688-49.728-106.432-111.04-106.432z m6.72-612.48h-76.352c0-22.08-20.992-38.208-42.816-38.208H39.36128a39.68 39.68 0 0 0-39.296 40v794.816s41.792 120.064 110.592 120.064h561.92a227.264 227.264 0 0 1-106.88-97.28H117.50528s-40.576-13.76-40.576-41.28l469.888-0.256 1.664 3.392a227.456 227.456 0 0 1-12.672-73.6 227.84 227.84 0 0 1 66.816-161.28 228.16 228.16 0 0 1 123.456-63.36l-3.2 0.32 2.176-424.256h38.144l0.576 420.608c27.008 0 52.608 4.8 76.544 13.376V97.472s-6.272-44.288-38.336-44.288zM149.63328 509.888H72.32128V432.64h77.312v77.312z m0-144.192H72.32128V288.384h77.312v77.312z m0-137.088H72.32128V151.232h77.312v77.376z m501.376 281.28H205.88928V432.64h445.12v77.312z m0-144.192H205.88928V288.384h445.12v77.312z m0-137.088H205.88928V151.232h445.12v77.376z" p-id="5245" fill="#bfbfbf"></path></svg>