<?xml version="1.0" standalone="no"?><!DOCTYPE svg PUBLIC "-//W3C//DTD SVG 1.1//EN" "http://www.w3.org/Graphics/SVG/1.1/DTD/svg11.dtd"><svg t="1624349892506" class="icon" viewBox="0 0 1024 1024" version="1.1" xmlns="http://www.w3.org/2000/svg" p-id="4524" xmlns:xlink="http://www.w3.org/1999/xlink" width="1000" height="1000"><defs><style type="text/css"></style></defs><path d="M999 75.3H25c-13.3 0-24-10.7-24-24s10.7-24 24-24h974c13.3 0 24 10.7 24 24s-10.7 24-24 24zM940 915.8H86c-13.3 0-24-10.7-24-24s10.7-24 24-24h854c13.3 0 24 10.7 24 24s-10.7 24-24 24z" fill="#707070" p-id="4525"></path><path d="M892.5 355.2h-758c-39.7 0-72-32.3-72-72v-184c0-39.7 32.3-72 72-72h758c39.7 0 72 32.3 72 72v184c0 39.8-32.3 72-72 72z m-758-280c-13.2 0-24 10.8-24 24v184c0 13.2 10.8 24 24 24h758c13.2 0 24-10.8 24-24v-184c0-13.2-10.8-24-24-24h-758z" fill="#707070" p-id="4526"></path><path d="M893 355.8H135c-39.7 0-72-32.3-72-72v-184c0-39.7 32.3-72 72-72h758c39.7 0 72 32.3 72 72v184c0 39.7-32.3 72-72 72z m-758-280c-13.2 0-24 10.8-24 24v184c0 13.2 10.8 24 24 24h758c13.2 0 24-10.8 24-24v-184c0-13.2-10.8-24-24-24H135z" fill="#707070" p-id="4527"></path><path d="M892.5 635.2h-758c-39.7 0-72-32.3-72-72v-184c0-39.7 32.3-72 72-72h758c39.7 0 72 32.3 72 72v184c0 39.8-32.3 72-72 72z m-758-280c-13.2 0-24 10.8-24 24v184c0 13.2 10.8 24 24 24h758c13.2 0 24-10.8 24-24v-184c0-13.2-10.8-24-24-24h-758z" fill="#707070" p-id="4528"></path><path d="M892.5 915.2h-758c-39.7 0-72-32.3-72-72v-184c0-39.7 32.3-72 72-72h758c39.7 0 72 32.3 72 72v184c0 39.8-32.3 72-72 72z m-758-280c-13.2 0-24 10.8-24 24v184c0 13.2 10.8 24 24 24h758c13.2 0 24-10.8 24-24v-184c0-13.2-10.8-24-24-24h-758z" fill="#707070" p-id="4529"></path><path d="M239 996.8c-13.3 0-24-10.7-24-24v-81c0-13.3 10.7-24 24-24s24 10.7 24 24v81c0 13.2-10.7 24-24 24zM788 996.8c-13.3 0-24-10.7-24-24v-81c0-13.3 10.7-24 24-24s24 10.7 24 24v81c0 13.2-10.7 24-24 24z" fill="#707070" p-id="4530"></path><path d="M513.5 191.2m-50 0a50 50 0 1 0 100 0 50 50 0 1 0-100 0Z" fill="#707070" p-id="4531"></path><path d="M513.5 471.2m-50 0a50 50 0 1 0 100 0 50 50 0 1 0-100 0Z" fill="#707070" p-id="4532"></path><path d="M513.5 751.2m-50 0a50 50 0 1 0 100 0 50 50 0 1 0-100 0Z" fill="#707070" p-id="4533"></path><path d="M940 915.8c-13.3 0-24-10.7-24-24v-833c0-13.3 10.7-24 24-24s24 10.7 24 24v833c0 13.2-10.7 24-24 24zM86 915.8c-13.3 0-24-10.7-24-24v-833c0-13.3 10.7-24 24-24s24 10.7 24 24v833c0 13.2-10.7 24-24 24z" fill="#707070" p-id="4534"></path></svg>