<?xml version="1.0" standalone="no"?><!DOCTYPE svg PUBLIC "-//W3C//DTD SVG 1.1//EN" "http://www.w3.org/Graphics/SVG/1.1/DTD/svg11.dtd"><svg t="1636006783488" class="icon" viewBox="0 0 1024 1024" version="1.1" xmlns="http://www.w3.org/2000/svg" p-id="13531" xmlns:xlink="http://www.w3.org/1999/xlink" width="1000" height="1000"><defs><style type="text/css"></style></defs><path d="M209.372 955.718h565.224v60.324H209.372z" fill="#F58E6F" p-id="13532"></path><path d="M476.352 719.172c-31.598 0-63.376-4.574-94.518-13.808-84.746-25.126-154.632-81.752-196.786-159.444-42.156-77.69-51.534-167.148-26.408-251.894 25.128-84.744 81.754-154.632 159.444-196.788 77.688-42.158 167.144-51.532 251.89-26.406 84.746 25.128 154.632 81.752 196.786 159.444 42.156 77.69 51.534 167.148 26.408 251.894-25.128 84.744-81.754 154.632-159.444 196.788-49.138 26.664-102.984 40.214-157.372 40.214z m-0.872-646.22c-51.774 0-103.02 12.896-149.802 38.28-73.954 40.128-127.854 106.654-151.772 187.322-23.918 80.67-14.992 165.822 25.136 239.776s106.652 127.856 187.318 151.774c80.666 23.918 165.816 14.99 239.776-25.136 73.954-40.128 127.854-106.654 151.772-187.322 23.918-80.668 14.992-165.822-25.136-239.776-40.128-73.954-106.652-127.854-187.318-151.774-29.642-8.788-59.902-13.144-89.974-13.144z" fill="#4A555F" p-id="13533"></path><path d="M476.19 684.586c-108.968 0-208.91-59.436-260.828-155.116-77.95-143.664-24.492-323.962 119.17-401.916 43.338-23.516 92.122-35.946 141.084-35.946 108.968 0 208.914 59.438 260.83 155.118 77.95 143.664 24.492 323.962-119.172 401.914-43.336 23.516-92.122 35.946-141.084 35.946z" fill="#71CCE0" p-id="13534"></path><path d="M856.04 614.63c-125.13 209.96-396.732 278.754-606.692 153.624l30.834-51.738c181.378 108.098 416.044 48.73 524.166-132.692 108.096-181.378 48.68-416.07-132.698-524.168L702.46 7.962c209.958 125.13 278.682 396.756 153.58 606.668z" fill="#FFD452" p-id="13535"></path><path d="M774.596 1024H209.372a7.96 7.96 0 0 1-7.96-7.96v-60.322a7.96 7.96 0 0 1 7.96-7.96h565.224a7.96 7.96 0 0 1 7.96 7.96v60.322a7.96 7.96 0 0 1-7.96 7.96z m-557.264-15.92h549.304v-44.404H217.332v44.404zM475.096 838.784c-80.176 0-159.154-21.576-229.822-63.692a7.96 7.96 0 0 1-2.762-10.912l30.834-51.738a7.958 7.958 0 0 1 10.914-2.764c85.902 51.196 186.582 65.88 283.526 41.344 96.94-24.534 178.524-85.362 229.726-171.274 105.682-177.326 47.394-407.572-129.934-513.254a7.96 7.96 0 0 1-2.762-10.912l30.808-51.694a7.958 7.958 0 0 1 10.914-2.764c213.37 127.164 283.504 404.21 156.342 617.582l-6.838-4.074 6.838 4.074c-61.608 103.374-159.776 176.574-276.418 206.112-36.902 9.344-74.266 13.966-111.366 13.966z m-214.798-73.354c98.186 56.174 212.304 71.796 322.254 43.954 112.52-28.496 207.218-99.108 266.65-198.828 121.306-203.544 56.486-467.16-144.016-591.62l-22.662 38.026c179.558 111.954 237.48 348.348 128.662 530.934-53.378 89.566-138.434 152.98-239.498 178.558-98.486 24.924-200.684 11.018-288.702-39.096l-22.688 38.072z" fill="#4A555F" p-id="13536"></path><path d="M331.234 678.426c-9.678 0-18.382-2.226-25.96-6.73-28.38-16.864-36.244-62.852-22.148-129.492 13.512-63.874 45.468-140.298 89.978-215.198 44.51-74.898 96.362-139.5 146.006-181.9 51.796-44.234 95.948-59.31 124.322-42.448 56.776 33.74 26.984 185.146-67.826 344.69-44.512 74.9-96.364 139.5-146.01 181.9-37.956 32.42-71.814 49.178-98.362 49.178zM617.222 111.794c-22.26 0-52.988 15.706-87.772 45.416-48.352 41.3-99.018 104.488-142.66 177.928-43.644 73.44-74.926 148.148-88.088 210.36-12.39 58.584-7.032 99.594 14.704 112.51 21.732 12.916 60.318-1.974 105.854-40.868 48.354-41.298 99.018-104.488 142.662-177.928 96.274-162.006 115.668-297.742 73.382-322.87-5.132-3.048-11.204-4.548-18.082-4.548z" fill="#4A555F" p-id="13537"></path><path d="M194.18 229.91l8.134-13.686 555.078 329.87-8.134 13.686zM765.058 326.386c-43.572 0-133.218-7.226-219.73-58.638-117.852-70.036-163.47-182.606-165.354-187.364l14.798-5.866c0.446 1.116 45.67 112.38 158.688 179.544 113.108 67.214 235.612 55.526 236.83 55.4l1.642 15.834c-1.386 0.144-11.124 1.09-26.874 1.09zM556.958 701.88c-0.446-1.116-45.67-112.38-158.69-179.544-113.098-67.214-235.608-55.526-236.83-55.4l-1.642-15.834c5.21-0.544 128.818-12.448 246.602 57.548 117.854 70.036 163.474 182.606 165.356 187.364l-14.796 5.866zM242.518 764.19l61.012-103.18 13.7 8.1-61.01 103.182zM634.012 106.252L695.624 3.84l13.64 8.204-61.612 102.416zM610.866 963.656H373.132a7.96 7.96 0 0 1-7.96-7.96V892.08a7.96 7.96 0 0 1 7.96-7.96h17.194c28.704 0 52.058-23.354 52.058-52.058v-2.092a7.962 7.962 0 0 1 8.426-7.946c26.97 1.582 54.492 0.55 81.794-3.076a7.96 7.96 0 0 1 9.01 7.89v5.224c0 28.704 23.33 52.058 52.006 52.058h17.246a7.96 7.96 0 0 1 7.96 7.96v63.614a7.96 7.96 0 0 1-7.96 7.962z m-229.774-15.92h221.814V900.04h-9.286c-36.194 0-65.868-28.474-67.822-64.218a446.648 446.648 0 0 1-67.78 2.496c-3.168 34.56-32.318 61.72-67.692 61.72h-9.234v47.698z" fill="#4A555F" p-id="13538"></path><path d="M399.668 929.162v-11.05c34.834-3.754 63.544-28.264 73.476-60.876l2.414 0.006c11.564 0 23.234-0.444 34.908-1.326 9.548 33.284 38.566 58.41 73.868 62.2v11.044h-184.666z" fill="#F58E6F" p-id="13539"></path><path d="M97.712 1008.08h111.66V1024h-111.66zM774.596 1008.08h111.662V1024h-111.662z" fill="#4A555F" p-id="13540"></path></svg>