<?xml version="1.0" standalone="no"?><!DOCTYPE svg PUBLIC "-//W3C//DTD SVG 1.1//EN" "http://www.w3.org/Graphics/SVG/1.1/DTD/svg11.dtd"><svg t="1563790584139" class="icon" viewBox="0 0 1024 1024" version="1.1" xmlns="http://www.w3.org/2000/svg" p-id="3120" xmlns:xlink="http://www.w3.org/1999/xlink" width="400" height="400"><defs><style type="text/css"></style></defs><path d="M524.346441 531.755911L435.657573 469.999624 268.274193 696.851427h510.426591L611.694701 470.842521l-87.34826 60.91339z m238.307181-194.781562H285.300721l238.700533 166.155159 238.652368-166.155159z m-503.410474 10.283349v323.014362L416.712449 456.858451 259.243148 347.257698zM788.711195 671.628724V347.281781L630.591659 457.653183 788.711195 671.628724zM512 25.872938c-271.188209 0-491.015867 219.85174-491.015867 491.00784 0 271.188209 219.827658 491.064033 491.015867 491.064032s491.015867-219.875823 491.015867-491.064032c0-271.156099-219.81963-491.007839-491.015867-491.00784z m323.359548 706.765507c0 6.54249-5.081468 11.840702-11.342991 11.840702h-600.062716c-6.269552 0-11.342992-5.290185-11.342991-11.840702V301.187331c0-6.526435 5.07344-11.81662 11.342991-11.816619h600.062716c6.261524 0 11.342992 5.290185 11.342991 11.816619v431.451114z" fill="#868587" p-id="3121"></path></svg>