<?xml version="1.0" standalone="no"?><!DOCTYPE svg PUBLIC "-//W3C//DTD SVG 1.1//EN" "http://www.w3.org/Graphics/SVG/1.1/DTD/svg11.dtd"><svg t="1597888319882" class="icon" viewBox="0 0 1039 1024" version="1.1" xmlns="http://www.w3.org/2000/svg" p-id="2441" xmlns:xlink="http://www.w3.org/1999/xlink" width="507.32421875" height="500"><defs><style type="text/css"></style></defs><path d="M178.458647 168.854993H849.551711c17.703391 0 32.742039-12.321138 32.319901-27.386169-0.395754-14.510976-14.299907-26.093373-31.449242-26.093373H179.408457c-17.703391 0-32.742039 12.321138-32.319901 27.386169 0.395754 14.510976 14.299907 26.119757 31.449242 26.119757z m105.059467-115.454601h461.000515c17.650624 0 32.662888-12.268371 32.319901-27.227868C776.495543 11.714315 762.485856 0 745.389287 0H284.388772c-17.650624 0-32.662888 12.268371-32.319901 27.227868 0.342987 14.510976 14.24714 26.251675 31.449243 26.251674z m650.883232 183.234051H105.006725A105.006699 105.006699 0 0 0 0.000026 341.720293v577.273008a105.006699 105.006699 0 0 0 105.006699 105.006699h829.341853a105.006699 105.006699 0 0 0 105.006699-105.006699V341.667526a105.006699 105.006699 0 0 0-104.953931-104.953932z m56.540039 663.151603a74.322581 74.322581 0 0 1-74.111512 74.111511H122.525431a74.190663 74.190663 0 0 1-73.87406-73.874059V368.20942a74.190663 74.190663 0 0 1 73.87406-73.87406h794.330825a74.322581 74.322581 0 0 1 74.111512 74.111512z m-14.510976 7.097186" p-id="2442" fill="#cdcdcd"></path><path d="M709.507601 382.377409H336.628286c-17.492322 0-32.425435 11.213027-33.111409 25.671236-0.712357 15.196949 14.062455 27.808307 32.24075 27.808306h373.749974c17.756158 0 32.267134-12.030918 32.267134-26.752963s-14.405442-26.726579-32.267134-26.726579z m-161.731423 88.279501l-0.685973-0.817891a32.108832 32.108832 0 0 0-24.035453-9.392559 31.660311 31.660311 0 0 0-23.903535 9.287024l-103.133464 124.583325a32.478203 32.478203 0 0 0 46.435123 45.406163l47.965372-69.652684v294.836648a32.847573 32.847573 0 0 0 31.000721 33.111409 32.346285 32.346285 0 0 0 33.55993-32.24075v-296.287746 1.424714l47.965371 68.201587 0.685974 0.817891a32.1616 32.1616 0 0 0 22.874575 9.524477 31.660311 31.660311 0 0 0 22.874575-9.524477 32.53097 32.53097 0 0 0 0.474904-45.511697z m0 0" p-id="2443" fill="#cdcdcd"></path></svg>