<?xml version="1.0" standalone="no"?><!DOCTYPE svg PUBLIC "-//W3C//DTD SVG 1.1//EN" "http://www.w3.org/Graphics/SVG/1.1/DTD/svg11.dtd"><svg t="1620894981924" class="icon" viewBox="0 0 1024 1024" version="1.1" xmlns="http://www.w3.org/2000/svg" p-id="65803" xmlns:xlink="http://www.w3.org/1999/xlink" width="500" height="500"><defs><style type="text/css"></style></defs><path d="M586.3424 903.0656h399.872a38.2464 38.2464 0 0 0 33.1264-33.28 22.1696 22.1696 0 0 0 0-3.84V157.1328a37.9392 37.9392 0 0 0-33.8944-37.376h-399.104v783.36z" fill="#3BD19F" p-id="65804"></path><path d="M773.632 226.048h163.072a5.12 5.12 0 0 1 5.12 5.12v66.6624a5.12 5.12 0 0 1-5.12 5.12H773.632a5.12 5.12 0 0 1-5.12-5.12V231.2192a5.12 5.12 0 0 1 5.12-5.12z m0 123.1872h163.072a5.12 5.12 0 0 1 5.12 5.12v66.6624a5.12 5.12 0 0 1-5.12 5.12H773.632a5.12 5.12 0 0 1-5.12-5.12V354.4064a5.12 5.12 0 0 1 5.12-5.12z m0 123.4432h163.072a5.12 5.12 0 0 1 5.12 5.12v66.6624a5.12 5.12 0 0 1-5.12 5.12H773.632a5.12 5.12 0 0 1-5.12-5.12V477.8496a5.12 5.12 0 0 1 5.12-5.12z m0 123.5456h163.072a5.12 5.12 0 0 1 5.12 5.12v66.6624a5.12 5.12 0 0 1-5.12 5.12H773.632a5.12 5.12 0 0 1-5.12-5.12v-66.6112a5.12 5.12 0 0 1 5.12-5.12z m0 123.392h163.072a5.12 5.12 0 0 1 5.12 5.1712v66.6624a5.12 5.12 0 0 1-5.12 5.12H773.632a5.12 5.12 0 0 1-5.12-5.12v-66.6624a5.12 5.12 0 0 1 5.12-5.12z m-215.552-493.568h163.072a5.12 5.12 0 0 1 5.12 5.12v66.6624a5.12 5.12 0 0 1-5.12 5.12H558.08a5.12 5.12 0 0 1-5.12-5.12V231.2192a5.2736 5.2736 0 0 1 5.12-5.12z m0 123.1872h163.072a5.12 5.12 0 0 1 5.12 5.12v66.6624a5.12 5.12 0 0 1-5.12 5.12H558.08a5.12 5.12 0 0 1-5.12-5.12V354.4064a5.2736 5.2736 0 0 1 5.12-5.12z m0 123.4432h163.072a5.12 5.12 0 0 1 5.12 5.12v66.6624a5.12 5.12 0 0 1-5.12 5.12H558.08a5.12 5.12 0 0 1-5.12-5.12V477.8496a5.2736 5.2736 0 0 1 5.12-5.12z m0 123.5456h163.072a5.12 5.12 0 0 1 5.12 5.12v66.6624a5.12 5.12 0 0 1-5.12 5.12H558.08a5.12 5.12 0 0 1-5.12-5.12v-66.6112a5.2736 5.2736 0 0 1 5.12-5.12z m0 123.392h163.072a5.12 5.12 0 0 1 5.12 5.1712v66.6624a5.12 5.12 0 0 1-5.12 5.12H558.08a5.12 5.12 0 0 1-5.12-5.12v-66.6624a5.2736 5.2736 0 0 1 5.12-5.12z" fill="#FFFFFF" p-id="65805"></path><path d="M558.592 0.3584a35.1232 35.1232 0 0 0-6.912 0 32.6144 32.6144 0 0 0-9.4208 0L386.9184 29.184 30.3616 95.0784a35.2768 35.2768 0 0 0-10.7008 3.8912 35.7376 35.7376 0 0 0-18.8416 23.552 37.7344 37.7344 0 0 0-0.256 9.472v753.9712a38.0928 38.0928 0 0 0 6.912 22.272l3.328 3.8912a13.824 13.824 0 0 0 1.792 1.792 23.3984 23.3984 0 0 0 5.9392 4.608l4.5568 2.5088c2.56 1.2288 5.3248 2.048 8.192 2.5088l275.0976 53.248 235.52 46.592h8.448a37.9904 37.9904 0 0 0 36.1472-34.2528 22.1696 22.1696 0 0 0 0-3.8912V37.5296a38.0928 38.0928 0 0 0-27.8528-37.1712zM413.184 709.12l-78.3872-4.5568c-6.4 0-7.68-4.352-9.216-8.704-16.0256-41.472-31.5904-83.3024-47.4112-124.7744 0-2.8672-2.5088-5.632-4.3008-10.24l-25.4464 60.6208-28.7744 68.9152a9.1136 9.1136 0 0 1-10.4448 6.656 1185.4848 1185.4848 0 0 0-60.3648-3.328c-8.3968 0-9.216-2.048-5.5296-9.472 27.2384-54.0672 53.9648-108.544 81.2544-162.4064a22.1696 22.1696 0 0 0 0-22.528C199.0656 445.4912 175.104 394.2912 149.6576 340.48c-5.12-10.2912-2.048-12.032 22.9376-13.4144l40.2432-2.816c9.4208 0 11.264 0 13.312 6.9632 15.0016 39.9872 30.3104 80.2304 45.568 120.1152 0 2.5088 2.2528 5.12 3.5328 8.704 17.2544-40.0384 37.12-86.8864 52.9408-126.1056 7.168-17.7152 9.216-18.432 25.4464-18.7392 16.2304-0.3072 37.9392 0 50.8928-2.048 2.56 0 5.12 0 6.6048 1.8432 1.4848 1.792 0 4.352 0 6.656-28.3136 57.856-56.2688 116.3264-85.0944 174.1312a24.1152 24.1152 0 0 0 0 23.552 19894.8864 19894.8864 0 0 1 89.856 185.2416 2.7136 2.7136 0 0 1-0.768 3.8912c-0.512 0.6656-1.28 0.8192-1.9456 0.6656z" fill="#3BD19F" p-id="65806"></path></svg>