<?xml version="1.0" standalone="no"?><!DOCTYPE svg PUBLIC "-//W3C//DTD SVG 1.1//EN" "http://www.w3.org/Graphics/SVG/1.1/DTD/svg11.dtd"><svg t="1620896225114" class="icon" viewBox="0 0 1024 1024" version="1.1" xmlns="http://www.w3.org/2000/svg" p-id="95354" xmlns:xlink="http://www.w3.org/1999/xlink" width="500" height="500"><defs><style type="text/css"></style></defs><path d="M537.453714 14.628571h65.828572v104.301715c123.977143 0.731429 248.027429-1.243429 371.931428 0.585143a40.228571 40.228571 0 0 1 44.909715 44.909714c1.901714 216.649143-0.512 433.444571 1.097142 650.24-1.097143 23.478857 2.267429 49.444571-11.117714 70.217143-16.969143 12.288-38.985143 10.605714-58.806857 11.556571-116.004571-0.585143-232.009143-0.365714-348.086857-0.365714v116.004571h-72.118857c-176.786286-32.182857-353.865143-61.732571-530.797715-92.818285V107.593143C179.273143 76.653714 358.253714 45.056 537.453714 14.628571z" fill="#477DA7" p-id="95355"></path><path d="M54.052571 558.08V416.256h97.28v23.990857H80.457143v31.451429h65.974857v23.844571H80.457143v38.546286h73.289143v23.917714H54.125714z m108.909715 0l44.836571-74.020571-40.594286-67.803429h30.939429l26.331429 45.568 25.819428-45.568h30.72l-40.886857 68.827429 44.909714 72.923428h-32.036571l-29.037714-49.005714-29.257143 49.005714h-31.744z m135.606857 0V416.256h97.28v23.990857h-70.802286v31.451429h65.828572v23.844571h-65.828572v38.546286h73.362286v23.917714H298.569143z m502.491428 96.548571a17.993143 17.993143 0 1 0 35.986286 0 17.993143 17.993143 0 0 0-35.986286 0z m-115.565714-164.644571a38.034286 38.034286 0 1 0 76.068572 0 38.034286 38.034286 0 0 0-76.068572 0z" fill="#FFFFFF" p-id="95356"></path><path d="M599.405714 153.746286v310.857143h13.019429c2.925714-12.434286 7.899429-24.210286 14.774857-35.035429l-20.333714-20.48a12.653714 12.653714 0 0 1 0-17.846857l17.92-17.993143a12.653714 12.653714 0 0 1 17.92 0l20.260571 20.260571c10.825143-6.875429 22.674286-11.922286 35.108572-14.848V350.354286a12.726857 12.726857 0 0 1 12.8-12.653715h25.380571c7.021714 0 12.653714 5.705143 12.653714 12.653715v28.379428c12.434286 2.925714 24.356571 7.899429 35.108572 14.848l20.333714-20.260571a12.653714 12.653714 0 0 1 17.92 0l17.92 17.92a12.653714 12.653714 0 0 1 0 17.92l-20.333714 20.406857c6.802286 10.752 11.776 22.601143 14.701714 35.035429h28.525714c7.094857 0 12.726857 5.632 12.726857 12.653714v25.380571a12.653714 12.653714 0 0 1-12.653714 12.726857h-28.525714a114.102857 114.102857 0 0 1-14.774857 35.035429l20.333714 20.333714a12.653714 12.653714 0 0 1 0 17.92l-9.142857 9.142857v4.169143a53.394286 53.394286 0 0 1 16.603428 7.021715l9.581715-9.581715a5.997714 5.997714 0 0 1 8.484571 0l8.484572 8.484572a5.997714 5.997714 0 0 1 0 8.484571l-9.654858 9.581714a54.125714 54.125714 0 0 1 7.021715 16.603429h13.458285c3.364571 0 5.997714 2.706286 5.997715 5.997714v11.995429a5.997714 5.997714 0 0 1-5.997715 5.997714h-13.458285a53.906286 53.906286 0 0 1-6.948572 16.603429l9.581715 9.581714a5.997714 5.997714 0 0 1 0 8.484571l-8.484572 8.484572a5.997714 5.997714 0 0 1-8.484571 0l-9.508572-9.508572a53.174857 53.174857 0 0 1-16.676571 6.948572v13.385143a5.997714 5.997714 0 0 1-5.997714 5.997714h-11.995429a5.997714 5.997714 0 0 1-5.997714-5.997714V707.291429a53.174857 53.174857 0 0 1-16.603429-7.021715l-9.581714 9.508572a5.997714 5.997714 0 0 1-8.484572 0l-8.484571-8.484572a5.997714 5.997714 0 0 1 0-8.484571l9.654857-9.581714a54.125714 54.125714 0 0 1-7.021714-16.603429h-13.531429a5.997714 5.997714 0 0 1-5.924571-5.997714v-11.995429c0-3.291429 2.633143-5.997714 5.997714-5.997714h13.458286a53.906286 53.906286 0 0 1 6.948571-16.530286l-9.581714-9.654857a5.997714 5.997714 0 0 1 0-8.484571l8.484571-8.484572a5.997714 5.997714 0 0 1 8.484572 0l9.508571 9.581714a53.248 53.248 0 0 1 11.117715-5.193142l-17.554286-17.408a112.64 112.64 0 0 1-35.108572 14.848v28.306285a12.726857 12.726857 0 0 1-12.653714 12.726857H710.948571a12.726857 12.726857 0 0 1-12.726857-12.653714V601.234286a112.566857 112.566857 0 0 1-35.108571-14.848l-20.260572 20.260571a12.653714 12.653714 0 0 1-17.993142 0l-17.92-17.993143a12.653714 12.653714 0 0 1 0-17.92l20.333714-20.333714a114.468571 114.468571 0 0 1-14.701714-35.035429h-13.165715v345.965715h382.829715V153.673143H599.405714z" fill="#FFFFFF" p-id="95357"></path><path d="M723.529143 578.779429a88.868571 88.868571 0 1 0 0-177.664 88.868571 88.868571 0 0 0 0 177.737142z m0-152.283429a63.488 63.488 0 1 1 0 126.902857 63.488 63.488 0 0 1 0-126.902857z m53.540571 228.132571a41.984 41.984 0 1 0 83.968-0.073142 41.984 41.984 0 0 0-83.968 0z m71.972572 0a29.988571 29.988571 0 1 1-59.977143 0 29.988571 29.988571 0 0 1 59.977143 0z" fill="#FFFFFF" p-id="95358"></path></svg>