<?xml version="1.0" standalone="no"?><!DOCTYPE svg PUBLIC "-//W3C//DTD SVG 1.1//EN" "http://www.w3.org/Graphics/SVG/1.1/DTD/svg11.dtd"><svg t="1636529761562" class="icon" viewBox="0 0 1024 1024" version="1.1" xmlns="http://www.w3.org/2000/svg" p-id="24260" xmlns:xlink="http://www.w3.org/1999/xlink" width="1000" height="1000"><defs><style type="text/css"></style></defs><path d="M21.333333 21.333333h981.333334v682.666667H21.333333z" fill="#DEE3F3" p-id="24261"></path><path d="M1002.666667 704v85.333333H21.333333v-85.333333h981.333334zM725.333333 917.333333l21.333334 85.333334H277.333333l21.333334-85.333334h426.666666z" fill="#7989AF" p-id="24262"></path><path d="M640 789.333333l42.666667 128H341.333333l42.666667-128h256z" fill="#415372" p-id="24263"></path><path d="M1002.666667 704V21.333333H21.333333v682.666667h21.333334V42.666667h938.666666v661.333333h21.333334z" fill="#ADB5D5" p-id="24264"></path><path d="M21.333333 746.666667h981.333334v42.666666H21.333333z" fill="#65769C" p-id="24265"></path><path d="M654.229333 832L640 789.333333H384l-42.666667 128h89.6l10.197334-51.029333A42.666667 42.666667 0 0 1 482.986667 832z" fill="#2B3E5B" p-id="24266"></path><path d="M725.333333 917.333333H298.666667l-10.666667 42.666667h448l-10.666667-42.666667z" fill="#96A1C3" p-id="24267"></path><path d="M538.837333 757.333333a10.666667 10.666667 0 0 0 10.666667 10.666667h320a10.666667 10.666667 0 1 0 0-21.333333h-320a10.666667 10.666667 0 0 0-10.666667 10.666666zM901.504 757.333333a10.666667 10.666667 0 0 0 10.666667 10.666667h21.333333a10.666667 10.666667 0 1 0 0-21.333333h-21.333333a10.666667 10.666667 0 0 0-10.666667 10.666666z" fill="#586889" p-id="24268"></path><path d="M611.729932 883.148089a24.490667 17.6 44.98 1 0 24.881469-24.898845 24.490667 17.6 44.98 1 0-24.881469 24.898845Z" fill="#F6FAFD" p-id="24269"></path><path d="M569.857426 866.264256a12.245333 8.810667 44.98 1 0 12.455814-12.464512 12.245333 8.810667 44.98 1 0-12.455814 12.464512Z" fill="#F6FAFD" p-id="24270"></path><path d="M832 213.333333h85.333333v85.333334h-85.333333zM106.666667 469.333333h85.333333v85.333334H106.666667z" fill="#567BFF" p-id="24271"></path><path d="M981.333333 660.928V42.666667H150.058667C164.821333 381.184 529.066667 652.608 981.333333 660.928zM832 213.333333h85.333333v85.333334h-85.333333z" fill="#F7F9FF" p-id="24272"></path><path d="M896 810.666667H21.333333a21.333333 21.333333 0 0 1-21.333333-21.333334V21.333333a21.333333 21.333333 0 0 1 21.333333-21.333333h981.333334a21.333333 21.333333 0 0 1 21.333333 21.333333v85.333334h-42.666667V42.666667H42.666667v725.333333h853.333333z" p-id="24273"></path><path d="M1002.666667 810.666667h-64v-42.666667h42.666666V234.666667h42.666667v554.666666a21.333333 21.333333 0 0 1-21.333333 21.333334zM981.333333 149.333333h42.666667v42.666667h-42.666667zM662.421333 924.074667L624.618667 810.666667H399.381333l-37.802666 113.408-40.533334-13.482667 42.666667-128A21.333333 21.333333 0 0 1 384 768h256a21.333333 21.333333 0 0 1 20.245333 14.592l42.666667 128z" p-id="24274"></path><path d="M746.666667 1024H277.333333a21.333333 21.333333 0 0 1-20.693333-26.517333l21.333333-85.333334A21.333333 21.333333 0 0 1 298.666667 896h106.666666v42.666667h-90.005333l-10.666667 42.666666h414.677334l-10.666667-42.666666H448v-42.666667h277.333333a21.333333 21.333333 0 0 1 20.693334 16.149333l21.333333 85.333334A21.333333 21.333333 0 0 1 746.666667 1024zM213.333333 682.666667h789.333334v42.666666H213.333333zM128 682.666667h42.666667v42.666666H128zM21.333333 682.666667h64v42.666666H21.333333zM405.333333 128h213.333334v42.666667H405.333333z" p-id="24275"></path><path d="M640 618.666667h-42.666667v-167.850667a21.333333 21.333333 0 0 0-10.346666-18.282667l-171.904-103.146666A64.277333 64.277333 0 0 1 384 274.517333V106.666667h42.666667v167.850666a21.333333 21.333333 0 0 0 10.346666 18.282667l171.904 103.146667A64.277333 64.277333 0 0 1 640 450.816z" p-id="24276"></path><path d="M426.666667 618.666667h-42.666667v-167.850667a64.277333 64.277333 0 0 1 31.082667-54.869333l171.882666-103.146667a21.333333 21.333333 0 0 0 10.368-18.282667V106.666667h42.666667v167.850666a64.277333 64.277333 0 0 1-31.082667 54.869334l-171.882666 103.146666a21.333333 21.333333 0 0 0-10.368 18.282667z" p-id="24277"></path><path d="M405.333333 192h213.333334v42.666667H405.333333zM405.333333 256h213.333334v42.666667H405.333333zM405.333333 426.666667h213.333334v42.666666H405.333333zM405.333333 490.666667h213.333334v42.666666H405.333333zM405.333333 554.666667h213.333334v42.666666H405.333333zM85.333333 106.666667h85.333334v42.666666H85.333333zM85.333333 192h256v42.666667H85.333333zM85.333333 256h256v42.666667H85.333333zM682.666667 490.666667h256v42.666666H682.666667zM682.666667 554.666667h256v42.666666H682.666667zM789.333333 405.333333h85.333334v42.666667h-85.333334zM896 106.666667h42.666667v42.666666h-42.666667z" p-id="24278"></path><path d="M789.333333 277.333333h-85.333333a21.333333 21.333333 0 0 1-12.8-4.266666l-85.333333-64 25.6-34.133334 79.637333 59.733334H789.333333zM395.797333 573.866667L314.965333 533.333333H234.666667v-42.666666h85.333333a21.333333 21.333333 0 0 1 9.536 2.24l85.333333 42.666666zM917.333333 320h-85.333333a21.333333 21.333333 0 0 1-21.333333-21.333333v-85.333334a21.333333 21.333333 0 0 1 21.333333-21.333333h85.333333a21.333333 21.333333 0 0 1 21.333334 21.333333v85.333334a21.333333 21.333333 0 0 1-21.333334 21.333333z m-64-42.666667h42.666667v-42.666666h-42.666667zM192 576H106.666667a21.333333 21.333333 0 0 1-21.333334-21.333333v-85.333334a21.333333 21.333333 0 0 1 21.333334-21.333333h85.333333a21.333333 21.333333 0 0 1 21.333333 21.333333v85.333334a21.333333 21.333333 0 0 1-21.333333 21.333333z m-64-42.666667h42.666667v-42.666666H128zM85.333333 362.666667h85.333334v42.666666H85.333333zM192 362.666667h42.666667v42.666666H192zM896 405.333333h42.666667v42.666667h-42.666667z" p-id="24279"></path></svg>