<?xml version="1.0" standalone="no"?><!DOCTYPE svg PUBLIC "-//W3C//DTD SVG 1.1//EN" "http://www.w3.org/Graphics/SVG/1.1/DTD/svg11.dtd"><svg t="1614910604528" class="icon" viewBox="0 0 1024 1024" version="1.1" xmlns="http://www.w3.org/2000/svg" p-id="2487" xmlns:xlink="http://www.w3.org/1999/xlink" width="700" height="700"><defs><style type="text/css"></style></defs><path d="M901.730736 155.798648a31.847825 31.847825 0 0 0 0-44.990855l-95.274752-95.433543a31.707356 31.707356 0 0 0-44.909423 0L658.210099 118.869503a126.487412 126.487412 0 0 0-110.92994 111.12334l-144.418608 144.624223-9.303539-9.31779a31.784716 31.784716 0 1 0-44.909424 44.990855l9.303539 9.319825-72.82004 72.944223a31.847825 31.847825 0 0 0 0 44.980676l95.274752 95.433543a31.711427 31.711427 0 0 0 44.909423 0l72.840398-72.940151 9.303539 9.317789a31.784716 31.784716 0 0 0 44.909423-44.990855l-9.303539-9.321861 144.398251-144.626258a125.524485 125.524485 0 0 0 63.15006-25.907404c0.346083 0.407157 0.447873 0.93239 0.814314 1.321225a238.473924 238.473924 0 0 1 64.330815 162.380342c0 79.029185-39.840318 152.49864-106.553002 198.415777a125.915356 125.915356 0 0 0-84.016859-32.527777H212.312048a31.811181 31.811181 0 0 0 0 63.622361h303.49487a126.015109 126.015109 0 0 0-17.650258 63.622362v31.811181H148.795547a31.75825 31.75825 0 0 0-31.758251 31.813217v127.23658a31.75825 31.75825 0 0 0 31.758251 31.811181h698.722226a31.770465 31.770465 0 0 0 31.758251-31.811181v-127.23658a31.772501 31.772501 0 0 0-31.758251-31.813217h-95.274751v-31.803038a125.978465 125.978465 0 0 0-7.674911-41.967713c84.342584-57.753193 134.707913-150.839475 134.707913-251.16501A301.839777 301.839777 0 0 0 797.946402 302.517694a30.842147 30.842147 0 0 0-9.079603-6.536907 126.271618 126.271618 0 0 0 9.527475-36.690958z m-85.971213 740.979022v63.622362H180.553797v-63.622362h635.205726zM561.673161 833.153272v-31.811181a63.516501 63.516501 0 1 1 127.033002 0v31.811181h-127.033002zM784.001272 82.856461l50.365328 50.448795-50.121033 50.20043c-1.282545-2.312652-2.870457-4.409511-4.27515-6.632589-1.14004-1.769097-2.198648-3.556517-3.420119-5.26454a127.706847 127.706847 0 0 0-30.801431-30.862505c-1.71006-1.197042-3.481193-2.267865-5.252326-3.399762-2.219006-1.42505-4.315865-3.014998-6.616302-4.287364zM402.861551 565.492294l-50.365328-50.450831 50.365328-50.448795 50.385686 50.448795zM498.15666 470.062823l-50.365328-50.450831 113.637535-113.822791c1.262187 2.312652 2.870457 4.409511 4.275149 6.632588 1.119682 1.769097 2.198648 3.556517 3.399761 5.264541a128.146577 128.146577 0 0 0 30.82179 30.862505c1.71006 1.197042 3.481193 2.269901 5.252326 3.401797 2.219006 1.414871 4.315865 3.014998 6.616302 4.287364z m174.670378-161.789964a63.622362 63.622362 0 1 1 63.536859-63.622362 63.652899 63.652899 0 0 1-63.536859 63.61829z" p-id="2488" fill="#8a8a8a"></path></svg>