<?xml version="1.0" standalone="no"?><!DOCTYPE svg PUBLIC "-//W3C//DTD SVG 1.1//EN" "http://www.w3.org/Graphics/SVG/1.1/DTD/svg11.dtd"><svg t="1585551343610" class="icon" viewBox="0 0 1024 1024" version="1.1" xmlns="http://www.w3.org/2000/svg" p-id="30890" width="300" height="300" xmlns:xlink="http://www.w3.org/1999/xlink"><defs><style type="text/css"></style></defs><path d="M510.72 512m-449.28 0a449.28 449.28 0 1 0 898.56 0 449.28 449.28 0 1 0-898.56 0Z" fill="#23CD77" p-id="30891"></path><path d="M599.07456 438.8992l-99.45856 89.06752c-2.96832 1.48224-7.42272 1.48224-8.90624-1.4848l-47.50336-56.4096c-4.45312-5.9392-11.87584-5.9392-17.81248-2.96832-5.9392 2.96832-7.424 10.38976-2.9696 14.84288l59.3792 69.76896c4.45184 4.45312 13.35936 5.9392 19.296 2.9696l114.30272-100.94208c5.9392-4.45312 5.9392-10.39104 1.48224-14.84416-4.44928-2.9696-13.3568-4.45568-17.80992 0z m-35.62752-89.06752h-84.61312c-22.26688 0-41.56544-17.81376-41.56544-38.59584 0-20.78208 17.81376-38.59584 41.56544-38.59584h84.61312c22.26688 0 41.56672 17.81376 41.56672 38.59584 0 20.78208-17.81248 38.59584-41.56672 38.59584z m-83.12832-54.9248c-10.39232 0-17.81248 7.42272-17.81248 16.32896 0 8.90624 8.90624 16.33024 17.81248 16.33024h84.6144c10.39104 0 17.81504-7.424 17.81504-16.33024 0-8.90624-8.9088-16.32896-17.81504-16.32896h-84.6144z" fill="#FFFFFF" p-id="30892"></path><path d="M713.58848 739.648H326.30912c-17.5936 0-31.90784-14.65856-31.90784-32.6784V327.8208c0-18.02112 14.31424-32.67968 31.90784-32.67968h51.48544c7.27296 0 13.16992 5.89568 13.16992 13.16992s-5.89568 13.16992-13.16992 13.16992h-51.48544c-3.07072 0-5.56928 2.84544-5.56928 6.34112v379.1488c0 3.49696 2.49856 6.33984 5.56928 6.33984h387.28064c3.072 0 5.57056-2.84288 5.57056-6.33984v-379.1488c0-3.49568-2.49728-6.34112-5.57056-6.34112h-51.92064c-7.27168 0-13.16864-5.89568-13.16864-13.16992s5.89696-13.16992 13.16864-13.16992h51.92064c17.5936 0 31.90912 14.65984 31.90912 32.67968v379.1488c-0.00128 18.01856-14.31552 32.6784-31.9104 32.6784z" fill="#FFFFFF" p-id="30893"></path></svg>