<?xml version="1.0" standalone="no"?><!DOCTYPE svg PUBLIC "-//W3C//DTD SVG 1.1//EN" "http://www.w3.org/Graphics/SVG/1.1/DTD/svg11.dtd"><svg t="1620873618367" class="icon" viewBox="0 0 1092 1024" version="1.1" xmlns="http://www.w3.org/2000/svg" p-id="29367" xmlns:xlink="http://www.w3.org/1999/xlink" width="533.203125" height="500"><defs><style type="text/css"></style></defs><path d="M1063.480915 1024H28.978945a28.978945 28.978945 0 0 1-28.978945-28.978945V431.171927a57.795608 57.795608 0 0 1 88.66398-48.870093L538.115825 666.167987a23.391804 23.391804 0 0 0 25.0494-0.104324l440.236541-283.019968a57.795608 57.795608 0 0 1 89.046502 48.615078v563.35069a28.978945 28.978945 0 0 1-28.967353 28.990537z m-1005.511433-57.95789h976.532488V432.018112l-440.016301 282.834503a81.558343 81.558343 0 0 1-87.34254 0.347747L57.95789 431.461716z m976.903418-534.313788z" fill="" p-id="29368"></path><path d="M956.989088 469.806656a28.978945 28.978945 0 0 1-28.978945-28.978945V81.709033A23.774326 23.774326 0 0 0 904.258999 57.95789H188.20086a23.774326 23.774326 0 0 0-23.751143 23.751143V440.827711a28.978945 28.978945 0 0 1-57.95789 0V81.709033A81.801766 81.801766 0 0 1 188.20086 0H904.258999a81.801766 81.801766 0 0 1 81.709034 81.709033V440.827711a28.978945 28.978945 0 0 1-28.978945 28.978945z" fill="" p-id="29369"></path><path d="M740.7482 238.438759H351.711659a28.978945 28.978945 0 1 1 0-57.95789h389.036541a28.978945 28.978945 0 0 1 0 57.95789zM671.581254 402.714603H420.878605a28.978945 28.978945 0 0 1 0-57.95789h250.702649a28.978945 28.978945 0 0 1 0 57.95789z" fill="" p-id="29370"></path></svg>