<?xml version="1.0" standalone="no"?><!DOCTYPE svg PUBLIC "-//W3C//DTD SVG 1.1//EN" "http://www.w3.org/Graphics/SVG/1.1/DTD/svg11.dtd"><svg t="1620888532655" class="icon" viewBox="0 0 1024 1024" version="1.1" xmlns="http://www.w3.org/2000/svg" p-id="48546" xmlns:xlink="http://www.w3.org/1999/xlink" width="500" height="500"><defs><style type="text/css"></style></defs><path d="M102.6048 631.27552c12.3904-19.05152 28.67712-43.22304 46.61248-67.584 70.52288-95.81056 98.06336-102.66624 99.2-102.91712 7.2704-1.21856 14.29504-1.8432 20.79744-1.8432 26.07104 0 57.66144 8.53504 94.26432 71.85408 31.72864 54.89664 81.63328 123.74016 105.6256 156.83072 5.59104 7.71584 11.37664 15.6928 12.65152 17.6384a36.46464 36.46464 0 0 1-3.39456-6.92736c9.0624 24.33536 51.95776 50.0736 83.45088 50.0736 37.26848 0 72.0384-28.38016 123.17696-80.7424 19.18976-19.64544 60.54912-32.33792 105.36448-32.33792 26.38336 0 50.96448 4.49024 65.75104 12.01152 36.76672 18.69824 61.1584 41.1136 75.90912 70.41536l0.01536-0.00512 7.6288-60.288c-17.99168-19.0464-39.8848-34.19136-64.63488-46.77632-53.16096-27.02848-169.53344-23.168-219.8272 28.3136-50.2784 51.48672-74.70592 68.21888-93.38368 68.21888-18.67264 0-43.10016-19.30752-44.53376-23.168-1.43872-3.86048-76.14976-101.6832-117.8112-173.76256-41.67168-72.07936-89.07776-101.68832-158.04416-90.10176-57.22624 9.61024-155.99104 160.12288-187.9552 211.09248h49.13664z" p-id="48547"></path><path d="M936.76032 319.78496h-75.52v51.48672h60.07296v553.47712H102.68672V371.26656h60.06784V319.78496H87.23968A36.03456 36.03456 0 0 0 51.2 355.82464v584.36608a36.03456 36.03456 0 0 0 36.03968 36.03968h849.52064a36.03456 36.03456 0 0 0 36.03968-36.03968V355.82464a36.03456 36.03456 0 0 0-36.03968-36.03968z" p-id="48548"></path><path d="M214.24128 449.18272V99.25632h595.51744v506.1632c10.3936-0.0768 24.05888 3.2256 39.48032 15.55968a275.27168 275.27168 0 0 0 12.0064 9.10336V83.80928a36.03456 36.03456 0 0 0-36.03968-36.03968H198.79424a36.03456 36.03456 0 0 0-36.03968 36.03968v408.33024c13.24032-13.2608 32.44032-30.91968 51.48672-42.9568z" p-id="48549"></path><path d="M662.17472 246.85056c-54.97344 0-99.54304 44.56448-99.54304 99.53792s44.5696 99.53792 99.54304 99.53792c54.96832 0 99.5328-44.56448 99.5328-99.53792s-44.56448-99.53792-99.5328-99.53792z m0 157.89056c-32.1792 0-58.35264-26.17856-58.35264-58.35264 0-32.1792 26.17344-58.35264 58.35264-58.35264 32.17408 0 58.34752 26.17344 58.34752 58.35264 0.00512 32.17408-26.17344 58.35264-58.34752 58.35264z" p-id="48550"></path></svg>