<?xml version="1.0" standalone="no"?><!DOCTYPE svg PUBLIC "-//W3C//DTD SVG 1.1//EN" "http://www.w3.org/Graphics/SVG/1.1/DTD/svg11.dtd"><svg t="1620873586779" class="icon" viewBox="0 0 1024 1024" version="1.1" xmlns="http://www.w3.org/2000/svg" p-id="28533" xmlns:xlink="http://www.w3.org/1999/xlink" width="500" height="500"><defs><style type="text/css"></style></defs><path d="M930.133333 337.066667h-55.523555L567.523556 51.2C563.2 25.656889 541.923556 0 512 0c-29.866667 0-51.2 21.390222-55.523556 51.256889L149.390222 337.066667H93.866667c-51.2 0-93.866667 42.609778-93.866667 93.866666v494.933334C0 981.333333 42.666667 1024 93.866667 1024h836.266666c51.2 0 93.866667-42.666667 93.866667-93.866667V430.933333c0-51.143111-42.666667-93.866667-93.866667-93.866666zM473.6 93.866667c8.533333 8.533333 21.390222 17.123556 38.4 17.123555 12.743111 0 29.866667-4.209778 38.4-17.066666l260.209778 243.256888H213.390222L473.6 93.866667z m507.790222 832.113777c0 29.866667-21.390222 51.256889-51.256889 51.256889H93.866667c-29.866667 4.266667-51.2-21.390222-51.2-51.2V430.876444c0-29.866667 21.333333-51.256889 51.2-51.256888h836.266666c29.866667 0 51.2 21.390222 51.2 51.2v495.104z m-123.790222-413.923555h-699.733333c-12.743111 0-21.390222 8.533333-21.390223 21.390222 0 12.743111 8.533333 21.390222 21.390223 21.390222H861.866667c12.743111 0 21.390222-8.533333 21.390222-21.390222S870.4 512 857.656889 512z m0 145.066667h-699.733333c-12.743111 0-21.390222 8.476444-21.390223 21.333333 0 12.743111 8.533333 21.390222 21.390223 21.390222H861.866667c12.743111 0 21.390222-8.533333 21.390222-21.390222 0-12.743111-12.856889-21.390222-25.6-21.390222z m-298.723556 140.856888H157.866667c-12.743111 0-21.390222 8.533333-21.390223 21.390223s8.533333 21.333333 21.390223 21.333333h401.123555c12.743111 0 21.390222-8.476444 21.390222-21.333333 0-12.913778-8.647111-21.390222-21.504-21.390223z" p-id="28534"></path></svg>