<?xml version="1.0" standalone="no"?><!DOCTYPE svg PUBLIC "-//W3C//DTD SVG 1.1//EN" "http://www.w3.org/Graphics/SVG/1.1/DTD/svg11.dtd"><svg t="1621068464038" class="icon" viewBox="0 0 1024 1024" version="1.1" xmlns="http://www.w3.org/2000/svg" p-id="98646" xmlns:xlink="http://www.w3.org/1999/xlink" width="500" height="500"><defs><style type="text/css"></style></defs><path d="M988.689655 894.528736h-94.160919v94.160919c0 15.693487-15.693487 31.386973-31.386974 31.386973s-31.386973-15.693487-31.386973-31.386973v-94.160919h-94.160919c-15.693487 0-31.386973-15.693487-31.386973-31.386974s15.693487-31.386973 31.386973-31.386973h94.160919v-94.160919c0-15.693487 15.693487-31.386973 31.386973-31.386973s31.386973 15.693487 31.386974 31.386973v94.160919h94.160919c15.693487 0 31.386973 15.693487 31.386973 31.386973 0 19.616858-15.693487 31.386973-31.386973 31.386974z m-309.94636-227.555556l86.314176 39.233717-15.693486 62.773946-94.16092-47.08046c-19.616858-7.846743-35.310345-27.463602-35.310345-51.003831s7.846743-43.157088 23.54023-58.850575c66.697318-54.927203 94.16092-172.628352 94.16092-231.478927v-160.858238c0-66.697318-113.777778-160.858238-223.632184-160.858237-105.931034 0-223.632184 94.16092-223.632184 160.858237v160.858238c0 62.773946 31.386973 180.475096 98.084291 231.478927 15.693487 15.693487 27.463602 35.310345 23.54023 58.850575-3.923372 23.54023-15.693487 39.233716-35.310345 51.003831l-278.559387 133.394636c-7.846743 3.923372-27.463602 11.770115-27.463601 35.310345v66.697318h702.283525v62.773946h-702.283525c-35.310345 0-62.773946-27.463602-62.773947-62.773946v-94.16092c0-35.310345 62.773946-62.773946 62.773947-62.773946l278.559387-133.394636c-90.237548-70.62069-121.624521-211.862069-121.624521-282.482759v-160.858237c0-105.931034 145.164751-223.632184 286.40613-223.632184s286.40613 117.701149 286.40613 223.632184v160.858237c-3.923372 78.467433-35.310345 215.785441-121.624521 282.482759z" fill="#595959" p-id="98647"></path><path d="M549.272031 663.049808c3.923372-3.923372 3.923372-11.770115 0-15.693486 0-3.923372-3.923372-11.770115-7.846744-15.693487 0 0 0-3.923372-3.923371-3.923371-3.923372-7.846743-15.693487-11.770115-23.54023-11.770115h-19.616858c-7.846743 0-19.616858 7.846743-23.54023 15.693486-3.923372 3.923372-3.923372 7.846743-7.846744 15.693487v15.693486c3.923372 11.770115 7.846743 23.54023 11.770115 31.386974 0 3.923372 3.923372 7.846743 3.923372 11.770115 3.923372 7.846743 3.923372 19.616858 3.923372 27.463601 0 3.923372 0 11.770115-3.923372 15.693487-3.923372 15.693487-3.923372 27.463602-7.846743 43.157088-3.923372 15.693487-3.923372 31.386973-7.846744 43.157088 0 11.770115-3.923372 23.54023-3.923371 31.386973 0 3.923372 0 7.846743 3.923371 15.693487s7.846743 11.770115 11.770115 19.616858c3.923372 7.846743 7.846743 11.770115 11.770115 15.693487 3.923372 3.923372 7.846743 7.846743 11.770115 7.846743 3.923372 0 7.846743-3.923372 11.770115-7.846743 3.923372-3.923372 7.846743-7.846743 11.770115-15.693487 3.923372-3.923372 7.846743-11.770115 11.770115-19.616858 3.923372-7.846743 3.923372-11.770115 3.923372-15.693487 0-3.923372 0-15.693487-3.923372-27.463601-3.923372-11.770115-3.923372-27.463602-7.846743-43.157089s-3.923372-31.386973-7.846744-47.080459c0-3.923372-3.923372-11.770115-3.923371-15.693487-3.923372-11.770115 0-23.54023 3.923371-31.386973 0-3.923372 3.923372-3.923372 3.923372-7.846743 19.616858-7.846743 23.54023-19.616858 27.463602-31.386974z" fill="#595959" p-id="98648"></path></svg>