<?xml version="1.0" standalone="no"?><!DOCTYPE svg PUBLIC "-//W3C//DTD SVG 1.1//EN" "http://www.w3.org/Graphics/SVG/1.1/DTD/svg11.dtd"><svg t="1620873968855" class="icon" viewBox="0 0 1024 1024" version="1.1" xmlns="http://www.w3.org/2000/svg" p-id="33662" xmlns:xlink="http://www.w3.org/1999/xlink" width="500" height="500"><defs><style type="text/css"></style></defs><path d="M574.432 1022.592h-126.24a97.184 97.184 0 0 1-96.768-97.328v-31.056a409.68 409.68 0 0 1-88.064-52.176l-54.496 31.712c-44.928 26.064-106.608 9.136-132.304-35.648L13.408 727.776a97.68 97.68 0 0 1 35.28-132.672l53.952-31.344a383.088 383.088 0 0 1-3.664-52.08c0-16.64 1.2-33.808 3.712-51.952l-53.904-31.344A97.856 97.856 0 0 1 13.44 295.632l63.072-110.16c25.808-44.928 87.712-61.616 132.384-35.648l54.464 31.712a411.472 411.472 0 0 1 88.048-52.224V98.368A97.152 97.152 0 0 1 448.176 1.072H574.4a97.152 97.152 0 0 1 96.736 97.296v31.04a413.984 413.984 0 0 1 88.048 52.224L813.76 149.92c44.704-25.952 106.688-9.2 132.304 35.648l63.152 110.192a97.92 97.92 0 0 1-35.312 132.72L920 459.824c2.352 18.176 3.712 35.36 3.712 51.952 0 16.752-1.232 33.92-3.712 52.032l53.904 31.344a97.824 97.824 0 0 1 35.312 132.688l-63.152 110.24c-25.664 44.848-87.536 61.648-132.304 35.728l-54.496-31.792a404.32 404.32 0 0 1-88.08 52.224v31.056a97.28 97.28 0 0 1-96.752 97.296zM270.32 760.048l18.176 15.632c33.488 28.848 69.76 50.352 107.92 64l22.288 7.968v77.648c0 16.496 13.248 29.968 29.488 29.968h126.24a29.6 29.6 0 0 0 29.36-29.968v-77.648l22.368-7.968c38.192-13.648 74.432-35.088 107.952-63.92l18.144-15.712 95.392 55.504a29.776 29.776 0 0 0 39.984-10.96l63.152-110.24a30.24 30.24 0 0 0-10.816-41.072l-94.304-54.88 4.304-23.296a351.04 351.04 0 0 0 6.288-63.36 353.792 353.792 0 0 0-6.288-63.36l-4.224-23.232 94.272-54.88a30.384 30.384 0 0 0 10.816-41.152l-63.104-110.16a29.696 29.696 0 0 0-39.952-10.88l-95.424 55.472-18.176-15.6c-33.52-28.848-69.84-50.352-107.92-63.968l-22.368-7.968V98.368a29.712 29.712 0 0 0-29.36-29.968h-126.24a29.728 29.728 0 0 0-29.472 29.968v77.648l-22.336 8.016c-38.16 13.68-74.448 35.152-107.952 63.968l-18.176 15.6-95.344-55.472a29.76 29.76 0 0 0-40.016 10.928l-63.072 110.128a30.208 30.208 0 0 0 10.816 41.152l94.352 54.88-4.352 23.344a340.848 340.848 0 0 0-6.352 63.216c0 19.744 2.096 40.432 6.352 63.28l4.384 23.376-94.448 54.96a30.144 30.144 0 0 0-10.768 40.992l63.104 110.24a29.808 29.808 0 0 0 40.096 10.96l95.216-55.536z m0 0" p-id="33663"></path><path d="M511.328 672.816c-88.864-0.112-160.896-72.128-160.992-160.992 0.16-88.832 72.16-160.8 160.992-160.928 88.848 0.08 160.832 72.08 160.928 160.928-0.032 88.864-72.048 160.896-160.928 160.992z m0-254.592a93.744 93.744 0 0 0-93.632 93.584 93.648 93.648 0 0 0 187.264 0.08 93.664 93.664 0 0 0-93.632-93.664z m0 0" p-id="33664"></path></svg>