<?xml version="1.0" standalone="no"?><!DOCTYPE svg PUBLIC "-//W3C//DTD SVG 1.1//EN" "http://www.w3.org/Graphics/SVG/1.1/DTD/svg11.dtd"><svg t="1620888581410" class="icon" viewBox="0 0 1137 1024" version="1.1" xmlns="http://www.w3.org/2000/svg" p-id="50936" xmlns:xlink="http://www.w3.org/1999/xlink" width="555.17578125" height="500"><defs><style type="text/css"></style></defs><path d="M929.166222 557.852444a37.774222 37.774222 0 0 0-37.717333-37.205333H251.847111c-22.300444 0-39.424 16.896-39.424 37.205333v3.356445c0 21.959111 17.066667 38.855111 39.424 38.855111H891.448889a38.115556 38.115556 0 0 0 37.717333-38.855111v-3.413333z" p-id="50937"></path><path d="M28.444444 113.777778A85.333333 85.333333 0 0 1 113.777778 28.444444h336.896a85.333333 85.333333 0 0 1 68.380444 34.304l66.389334 88.917334a28.444444 28.444444 0 0 0 22.755555 11.377778h399.018667a85.333333 85.333333 0 0 1 85.333333 85.333333v643.811555a85.333333 85.333333 0 0 1-85.333333 85.333334H113.777778a85.333333 85.333333 0 0 1-85.333334-85.333334V113.777778z m56.888889 0v778.410666a28.444444 28.444444 0 0 0 28.444445 28.444445h893.44a28.444444 28.444444 0 0 0 28.444444-28.444445V248.433778a28.444444 28.444444 0 0 0-28.444444-28.444445h-398.961778a85.333333 85.333333 0 0 1-68.380444-34.304L473.486222 96.768a28.444444 28.444444 0 0 0-22.755555-11.434667H113.777778a28.444444 28.444444 0 0 0-28.444445 28.444445z" p-id="50938"></path></svg>