<?xml version="1.0" standalone="no"?><!DOCTYPE svg PUBLIC "-//W3C//DTD SVG 1.1//EN" "http://www.w3.org/Graphics/SVG/1.1/DTD/svg11.dtd"><svg t="1623833727730" class="icon" viewBox="0 0 1024 1024" version="1.1" xmlns="http://www.w3.org/2000/svg" p-id="4487" xmlns:xlink="http://www.w3.org/1999/xlink" width="500" height="500"><defs><style type="text/css"></style></defs><path d="M1007.83869 443.307731L536.441184 12.76808c-14.810973-13.278803-37.282793-13.278803-51.583043 0L12.949912 443.307731c-15.832419 14.300249-16.853865 38.304239-2.553616 54.136658 14.300249 15.832419 38.304239 16.853865 54.136658 2.553616l14.30025-13.278803V985.695761c0 20.939651 17.364589 38.304239 38.304239 38.304239h785.492269c20.939651 0 38.304239-17.364589 38.30424-38.304239V486.208479l14.300249 13.278803c7.150125 6.639401 16.853865 10.214464 26.046883 10.214464 10.214464 0 20.939651-4.085786 28.089775-12.257357 14.810973-15.832419 13.789526-39.836409-1.532169-54.136658zM391.90652 947.391521v-300.81596h237.486285v300.81596H391.90652z m472.929676 0h-158.834913v-339.120199c0-20.939651-17.364589-38.304239-38.304239-38.30424H353.602281c-20.939651 0-38.304239 17.364589-38.30424 38.30424v339.120199H155.952406v-531.15212l354.441895-323.798503 354.441895 323.798503v531.15212z" p-id="4488" fill="#8a8a8a"></path></svg>