<?xml version="1.0" standalone="no"?><!DOCTYPE svg PUBLIC "-//W3C//DTD SVG 1.1//EN" "http://www.w3.org/Graphics/SVG/1.1/DTD/svg11.dtd"><svg t="1634528119280" class="icon" viewBox="0 0 1024 1024" version="1.1" xmlns="http://www.w3.org/2000/svg" p-id="53751" xmlns:xlink="http://www.w3.org/1999/xlink" width="700" height="700"><defs><style type="text/css"></style></defs><path d="M662.36 964.47a31.28 31.28 0 0 1-31.28-31.28V646.6H374v286.59a31.28 31.28 0 1 1-62.55 0V615.32a31.28 31.28 0 0 1 31.28-31.27h319.63a31.28 31.28 0 0 1 31.27 31.27v317.87a31.28 31.28 0 0 1-31.27 31.28z" fill="#85A5FF" p-id="53752"></path><path d="M915.44 408.69a34.69 34.69 0 0 1-19-5.64L502.11 146.73 107.78 403.05a34.89 34.89 0 1 1-38-58.51L483.1 75.86a34.87 34.87 0 0 1 38 0l413.38 268.68a34.89 34.89 0 0 1-19 64.15z" fill="#0C5AE5" p-id="53753"></path><path d="M855.63 962.57H151.42c-17.21 0-31.16-14-31.16-28.16V334.85c0-20.21 14-34.16 31.16-34.16a31.17 31.17 0 0 1 31.16 31.16v571.4h641.89V343.92a31.16 31.16 0 0 1 31.16-31.16c17.2 0 31.16 13.95 31.16 34.16v587.49c0 14.21-13.96 28.16-31.16 28.16zM789.73 291.1a30.63 30.63 0 0 1-30.63-30.64v-158.4a30.64 30.64 0 1 1 61.27 0v158.4a30.64 30.64 0 0 1-30.64 30.64z" fill="#0C5AE5" p-id="53754"></path></svg>