<?xml version="1.0" standalone="no"?><!DOCTYPE svg PUBLIC "-//W3C//DTD SVG 1.1//EN" "http://www.w3.org/Graphics/SVG/1.1/DTD/svg11.dtd"><svg t="1602819757578" class="icon" viewBox="0 0 1024 1024" version="1.1" xmlns="http://www.w3.org/2000/svg" p-id="4065" xmlns:xlink="http://www.w3.org/1999/xlink" width="500" height="500"><defs><style type="text/css"></style></defs><path d="M520.1 64l-26 22.4 56.3 65.2H153V186h472.4L520.1 64zM405.7 837.5v34.4H796l-56.3 65.2 26 22.4 105.3-122H405.7z m464-587H657.5V773h212.2V250.5z m-34.4 488.2H691.9V284.9h143.4v453.8z m-55.1-402.9h-34.4v51.5h34.4v-51.5zM159.3 773.1h212.2V250.5H159.3v522.6z m34.4-488.2h143.4v453.8H193.7V284.9z m300.8 102.3h34.4v-51.5h-34.4v51.5z m-248 0h34.4v-51.5h-34.4v51.5z m375.2 385.9V250.5H409.5V773h212.2zM443.9 284.9h143.4v453.8H443.9V284.9z" fill="#cdcdcd" p-id="4066"></path></svg>