<?xml version="1.0" standalone="no"?><!DOCTYPE svg PUBLIC "-//W3C//DTD SVG 1.1//EN" "http://www.w3.org/Graphics/SVG/1.1/DTD/svg11.dtd"><svg t="1585794361061" class="icon" viewBox="0 0 1024 1024" version="1.1" xmlns="http://www.w3.org/2000/svg" p-id="8192" xmlns:xlink="http://www.w3.org/1999/xlink" width="300" height="300"><defs><style type="text/css"></style></defs><path d="M542.72 921.6l174.08-348.16 174.08 348.16h-348.16zM204.8 819.2V506.88c15.36 5.12 35.84 5.12 51.2 5.12 143.36 0 256-112.64 256-256 0-15.36 0-35.84-5.12-51.2H819.2v348.16l-56.32-112.64c-15.36-35.84-71.68-35.84-92.16 0L481.28 819.2H204.8zM256 102.4c87.04 0 153.6 66.56 153.6 153.6S343.04 409.6 256 409.6 102.4 343.04 102.4 256s66.56-153.6 153.6-153.6z m762.88 849.92L921.6 757.76V153.6c0-30.72-20.48-51.2-51.2-51.2H460.8C414.72 40.96 337.92 0 256 0 112.64 0 0 112.64 0 256c0 81.92 40.96 158.72 102.4 204.8v409.6c0 30.72 20.48 51.2 51.2 51.2h276.48l-15.36 30.72c-10.24 15.36-5.12 35.84 0 51.2 10.24 10.24 30.72 20.48 46.08 20.48h512c15.36 0 35.84-10.24 46.08-25.6 5.12-15.36 10.24-30.72 0-46.08z" fill="#dbdbdb" p-id="8193"></path></svg>