<?xml version="1.0" standalone="no"?><!DOCTYPE svg PUBLIC "-//W3C//DTD SVG 1.1//EN" "http://www.w3.org/Graphics/SVG/1.1/DTD/svg11.dtd"><svg t="1586252014112" class="icon" viewBox="0 0 1024 1024" version="1.1" xmlns="http://www.w3.org/2000/svg" p-id="5849" xmlns:xlink="http://www.w3.org/1999/xlink" width="300" height="300"><defs><style type="text/css"></style></defs><path d="M230.4 281.6c28.16 0 51.2 23.04 51.2 51.2s-23.04 51.2-51.2 51.2-51.2-23.04-51.2-51.2 23.04-51.2 51.2-51.2m0-51.2c-56.32 0-102.4 46.08-102.4 102.4s46.08 102.4 102.4 102.4 102.4-46.08 102.4-102.4-46.08-102.4-102.4-102.4zM230.4 614.4c28.16 0 51.2 23.04 51.2 51.2s-23.04 51.2-51.2 51.2-51.2-23.04-51.2-51.2 23.04-51.2 51.2-51.2m0-51.2c-56.32 0-102.4 46.08-102.4 102.4s46.08 102.4 102.4 102.4 102.4-46.08 102.4-102.4-46.08-102.4-102.4-102.4zM665.6 256h-230.4c-12.8 0-25.6 12.8-25.6 25.6s12.8 25.6 25.6 25.6h230.4c12.8 0 25.6-12.8 25.6-25.6s-12.8-25.6-25.6-25.6zM665.6 358.4h-230.4c-12.8 0-25.6 12.8-25.6 25.6s12.8 25.6 25.6 25.6h230.4c12.8 0 25.6-12.8 25.6-25.6s-12.8-25.6-25.6-25.6zM742.4 537.6c148.48 0 230.4 53.76 230.4 76.8s-81.92 76.8-230.4 76.8-230.4-53.76-230.4-76.8 81.92-76.8 230.4-76.8m0-51.2c-156.16 0-281.6 56.32-281.6 128s125.44 128 281.6 128 281.6-56.32 281.6-128-125.44-128-281.6-128z" fill="#dbdbdb" p-id="5850"></path><path d="M1000.96 691.2c-10.24 10.24-25.6 20.48-40.96 30.72 10.24 7.68 12.8 15.36 12.8 20.48 0 23.04-81.92 76.8-230.4 76.8s-230.4-53.76-230.4-76.8c0-5.12 5.12-12.8 12.8-20.48-17.92-10.24-30.72-20.48-40.96-30.72-15.36 15.36-23.04 33.28-23.04 51.2 0 71.68 125.44 128 281.6 128s281.6-56.32 281.6-128c0-17.92-7.68-35.84-23.04-51.2z" fill="#dbdbdb" p-id="5851"></path><path d="M1000.96 819.2c-10.24 10.24-25.6 20.48-40.96 30.72 10.24 7.68 12.8 15.36 12.8 20.48 0 23.04-81.92 76.8-230.4 76.8s-230.4-53.76-230.4-76.8c0-5.12 5.12-12.8 12.8-20.48-17.92-10.24-30.72-20.48-40.96-30.72-15.36 15.36-23.04 33.28-23.04 51.2 0 71.68 125.44 128 281.6 128s281.6-56.32 281.6-128c0-17.92-7.68-35.84-23.04-51.2z" fill="#dbdbdb" p-id="5852"></path><path d="M819.2 153.6c0-71.68-58.88-128-128-128H128C58.88 25.6 0 84.48 0 153.6v716.8c0 71.68 58.88 128 128 128h281.6c15.36 0 25.6-10.24 25.6-25.6s-10.24-25.6-25.6-25.6H128c-43.52 0-76.8-33.28-76.8-76.8V153.6c0-43.52 33.28-76.8 76.8-76.8h563.2c43.52 0 76.8 33.28 76.8 76.8v281.6c0 15.36 10.24 25.6 25.6 25.6s25.6-10.24 25.6-25.6V153.6z" fill="#dbdbdb" p-id="5853"></path></svg>