<?xml version="1.0" standalone="no"?><!DOCTYPE svg PUBLIC "-//W3C//DTD SVG 1.1//EN" "http://www.w3.org/Graphics/SVG/1.1/DTD/svg11.dtd"><svg t="1588920470166" class="icon" viewBox="0 0 1024 1024" version="1.1" xmlns="http://www.w3.org/2000/svg" p-id="4779" xmlns:xlink="http://www.w3.org/1999/xlink" width="300" height="300"><defs><style type="text/css"></style></defs><path d="M635.84 912.128H220.288a143.808 143.808 0 0 1-143.744-143.616v-548.48a143.808 143.808 0 0 1 143.744-143.552h505.6a143.808 143.808 0 0 1 143.744 143.552V646.4a37.888 37.888 0 0 0 75.712 0V220.096A220.416 220.416 0 0 0 725.056 0H220.288A220.416 220.416 0 0 0 0 220.032V768a220.416 220.416 0 0 0 220.288 220.032h415.552a37.952 37.952 0 0 0 0-75.904z m323.776-109.248l10.24-0.64c-0.576-10.688-8.192-104.768-90.88-103.232l-96 1.728-0.896-48.64v-1.408a13.184 13.184 0 0 0-12.096-8.256 15.232 15.232 0 0 0-11.648 3.52l-104 71.424a24.768 24.768 0 0 0-12.224 20.672 22.144 22.144 0 0 0 9.664 18.688l107.456 65.6a17.92 17.92 0 0 0 9.088 2.432 19.904 19.904 0 0 0 5.568-0.832 12.8 12.8 0 0 0 11.264-11.2l-0.832-44.8 98.24-1.792c19.84 2.816 75.52 14.656 77.056 36.736z m54.592 106.688l-107.264-65.6-0.896-0.448a30.016 30.016 0 0 0-15.424-1.28 11.968 11.968 0 0 0-9.984 11.392l0.896 44.48-97.792 1.728c-19.968-2.56-75.648-14.528-77.184-36.416l-10.24 0.64c0.576 10.624 8 103.104 88.896 103.104h1.984l95.552-1.664 0.896 48.256a10.56 10.56 0 0 0 10.176 9.92 17.92 17.92 0 0 0 3.072 0 20.032 20.032 0 0 0 11.328-3.968c2.624-1.92 76.032-52.16 103.68-71.104A24.64 24.64 0 0 0 1024 928a22.08 22.08 0 0 0-9.792-18.432zM339.84 409.6V320.512c0-16.96 6.4-16.96 12.8-16.96h16.768a22.72 22.72 0 0 0 22.72-22.72v-16.64a22.72 22.72 0 0 0-22.72-22.656h-24.96a69.056 69.056 0 0 0-56 24 85.184 85.184 0 0 0-18.048 56.768v85.056a32.64 32.64 0 0 1-4.992 20.224 31.04 31.04 0 0 1-18.24 6.976 22.144 22.144 0 0 0-19.2 21.824v20.48a21.504 21.504 0 0 0 19.2 21.376 29.888 29.888 0 0 1 18.624 7.168 32 32 0 0 1 4.8 20.16v85.44a84.672 84.672 0 0 0 18.048 56.384 71.104 71.104 0 0 0 56 23.936h24.96a22.72 22.72 0 0 0 22.72-22.656v-16.64a22.72 22.72 0 0 0-22.72-22.72h-16.768c-7.296 0-12.8-1.216-12.8-16.512v-89.6A74.88 74.88 0 0 1 339.84 409.6z m253.312 113.664v89.6c0 15.296-6.08 16.512-12.8 16.512h-16.768a22.528 22.528 0 0 0-16.064 6.4 22.912 22.912 0 0 0-6.4 16.064v16.64a22.72 22.72 0 0 0 22.72 22.656h24.96a70.976 70.976 0 0 0 56-24 84.416 84.416 0 0 0 18.048-56.32V525.376a31.552 31.552 0 0 1 5.056-20.416 28.352 28.352 0 0 1 17.152-6.72 22.72 22.72 0 0 0 20.096-22.528v-19.2a22.4 22.4 0 0 0-19.2-22.08 29.376 29.376 0 0 1-17.856-6.4 30.912 30.912 0 0 1-5.248-20.48V322.496a85.184 85.184 0 0 0-17.92-56.64 69.12 69.12 0 0 0-56.128-24.128h-24.96a22.72 22.72 0 0 0-22.72 22.656v16.64a22.72 22.72 0 0 0 22.72 22.72h16.768c6.016 0 12.8 0 12.8 16.96V409.6a75.264 75.264 0 0 1-0.256 113.856z" fill="#cdcdcd" p-id="4780"></path></svg>