<?xml version="1.0" standalone="no"?><!DOCTYPE svg PUBLIC "-//W3C//DTD SVG 1.1//EN" "http://www.w3.org/Graphics/SVG/1.1/DTD/svg11.dtd"><svg t="1587196164525" class="icon" viewBox="0 0 1024 1024" version="1.1" xmlns="http://www.w3.org/2000/svg" p-id="3280" xmlns:xlink="http://www.w3.org/1999/xlink" width="300" height="300"><defs><style type="text/css"></style></defs><path d="M307.2 977.92H46.08V791.893333l327.68-358.4 42.666667 39.253334-312.32 341.333333v105.813333h145.066666v-116.053333h131.413334L546.133333 609.28l44.373334 37.546667L409.6 861.866667h-102.4v116.053333z" fill="#A6A6A6" p-id="3281"></path><path d="M307.2 989.866667H46.08c-6.826667 0-11.946667-5.12-11.946667-11.946667V791.893333c0-3.413333 1.706667-5.12 3.413334-8.533333l327.68-358.4c1.706667-1.706667 5.12-3.413333 8.533333-3.413333s6.826667 1.706667 8.533333 3.413333l42.666667 39.253333c5.12 5.12 5.12 11.946667 0 17.066667L116.053333 819.2v88.746667H238.933333v-104.106667c0-6.826667 5.12-11.946667 11.946667-11.946667h126.293333l162.133334-189.44c3.413333-5.12 11.946667-5.12 17.066666-1.706666l44.373334 37.546666c1.706667 1.706667 3.413333 5.12 3.413333 8.533334s0 6.826667-3.413333 8.533333L418.133333 868.693333c-1.706667 3.413333-5.12 3.413333-8.533333 3.413334h-88.746667v104.106666c-1.706667 8.533333-6.826667 13.653333-13.653333 13.653334zM58.026667 965.973333h238.933333v-104.106666c0-6.826667 5.12-11.946667 11.946667-11.946667h95.573333l170.666667-201.386667-27.306667-22.186666-158.72 184.32c-1.706667 3.413333-5.12 3.413333-8.533333 3.413333h-121.173334v104.106667c0 6.826667-5.12 11.946667-11.946666 11.946666H104.106667c-6.826667 0-11.946667-5.12-11.946667-11.946666v-105.813334c0-3.413333 1.706667-5.12 3.413333-8.533333l305.493334-332.8-25.6-20.48L58.026667 797.013333v168.96zM686.08 628.053333v-58.026666c128 0 233.813333-104.106667 233.813333-233.813334S815.786667 104.106667 686.08 104.106667c-128 0-233.813333 104.106667-233.813333 233.813333h-58.026667c0-160.426667 131.413333-291.84 291.84-291.84 160.426667 0 291.84 131.413333 291.84 291.84s-129.706667 290.133333-291.84 290.133333z" fill="#A6A6A6" p-id="3282"></path><path d="M686.08 640c-6.826667 0-11.946667-5.12-11.946667-11.946667v-58.026666c0-6.826667 5.12-11.946667 11.946667-11.946667 122.88 0 221.866667-98.986667 221.866667-221.866667s-98.986667-221.866667-221.866667-221.866666-221.866667 98.986667-221.866667 221.866666c0 6.826667-5.12 11.946667-11.946666 11.946667h-58.026667c-6.826667 0-11.946667-5.12-11.946667-11.946667C384 170.666667 520.533333 34.133333 686.08 34.133333S989.866667 170.666667 989.866667 337.92s-136.533333 302.08-303.786667 302.08z m11.946667-58.026667v35.84c148.48-6.826667 267.946667-129.706667 267.946666-279.893333 0-153.6-126.293333-279.893333-279.893333-279.893333-150.186667 0-273.066667 119.466667-279.893333 267.946666h34.133333c6.826667-129.706667 112.64-233.813333 244.053333-233.813333 134.826667 0 244.053333 109.226667 244.053334 244.053333 3.413333 131.413333-100.693333 238.933333-230.4 245.76z" fill="#A6A6A6" p-id="3283"></path><path d="M686.08 414.72c-42.666667 0-78.506667-34.133333-78.506667-78.506667s34.133333-78.506667 78.506667-78.506666 78.506667 34.133333 78.506667 78.506666-34.133333 78.506667-78.506667 78.506667z m0-116.053333c-22.186667 0-39.253333 17.066667-39.253333 39.253333 0 22.186667 17.066667 39.253333 39.253333 39.253333s39.253333-17.066667 39.253333-39.253333c0-22.186667-17.066667-39.253333-39.253333-39.253333z" fill="#A6A6A6" p-id="3284"></path></svg>