<?xml version="1.0" standalone="no"?><!DOCTYPE svg PUBLIC "-//W3C//DTD SVG 1.1//EN" "http://www.w3.org/Graphics/SVG/1.1/DTD/svg11.dtd"><svg t="1589355404987" class="icon" viewBox="0 0 1024 1024" version="1.1" xmlns="http://www.w3.org/2000/svg" p-id="2303" xmlns:xlink="http://www.w3.org/1999/xlink" width="300" height="300"><defs><style type="text/css"></style></defs><path d="M399 77.98c31.03-3.07 62.81 1.52 91.64 13.43 37.47 15.28 69.58 42.58 92 76.14 15.2 22.67 25.99 48.19 32.19 74.75l0.5 0.46c22.33-30.02 55.33-52.56 92.21-60 36.85-7.68 76.47 0.95 107.23 22.5 33.95 23.32 57.27 60.65 65.47 100.82 7.78 38.45 3.66 80.09-15.4 114.75-4.3 7.75-9.28 15.13-14.94 21.96-24.93 30.5-62.47 48.82-101.04 54.56-12.19 1.97-24.55 2.35-36.85 3.28-97.32 6.51-194.62 13.14-291.96 19.32-41.17 1.04-82.24-12.47-115.59-36.44-16.09-11.49-30.48-25.34-42.79-40.79-37.85-47.18-55.09-109.61-48.94-169.59 5.48-56.74 32.93-111.4 76.63-148.26C320 98.59 358.76 81.77 399 77.98m48.08 102.24c-26.56 2.03-50.85 17.04-67.37 37.5-16.89 20.66-26.71 46.68-29.09 73.17-3.05 34.64 6.51 71.23 29.77 97.6 12.74 14.53 29.77 25.47 48.63 30.01 18.68 4.69 38.83 2.94 56.44-4.82 29.64-12.87 51.66-39.74 62.48-69.77 12.67-34.88 10.69-75.15-6.73-108.07-9.38-17.7-23.37-33.16-40.8-43.21-16-9.33-34.84-13.83-53.33-12.41m308.02 76.05c-16.62 1.63-31.89 10.68-42.75 23.15-25.41 29.01-29.7 74.7-9.3 107.58 8.6 13.99 21.95 25.5 37.93 29.97 15 4.39 31.49 1.53 45-6 15.68-8.71 27.53-23.42 34.19-39.95 8.23-20.25 9.13-43.43 2.18-64.19-5.57-16.82-16.26-32.33-31.34-41.92-10.57-6.77-23.4-10.07-35.91-8.64zM686.88 532.8c20.59-2.45 41.45-2.29 62.05-0.02 24.39 2.56 48.78 5.09 73.17 7.67 11.86 1.67 23.69 7.89 29.73 18.57 4.75 8.01 5.42 17.58 5.15 26.68-0.03 9.47 0.05 18.94-0.04 28.41-0.17 4.14-3.83 7.46-7.8 8.04-51.72 9.96-103.44 19.9-155.17 29.85-10.18 2.15-18.63 9.98-22.41 19.56-3.67 8.66-3.74 18.21-3.59 27.45 0.01 25.67-0.04 51.35 0.02 77.02 0.09 7.83 2.12 16.39 8.37 21.64 6.71 5.63 16.2 6.2 24.5 4.74 16.93-3.58 33.86-7.23 50.78-10.87 4.09-0.81 8.29-3.93 8.35-8.43 0.03-7.06 0.04-14.11 0-21.17 0.12-2.08-1.58-4.77-3.95-4-14.73 3.36-29.42 6.87-44.14 10.25-3.91 1.06-8.76-1.87-8.83-6.1-0.02-21.72-0.03-43.44 0.01-65.15-0.11-5.12 3.84-9.86 8.91-10.62 47.01-9.22 94.02-18.47 141.04-27.65 2.42-0.57 4.09 2.11 3.93 4.26 0.04 21.35 0 42.7 0.02 64.05-0.01 19.99 0 39.98 0 59.97-0.06 8.3 0.54 16.82-2.16 24.81-4.1 13.37-14.91 23.7-27.2 29.8-9.19 5.02-19.75 6.1-29.74 8.7-15.4 3.52-30.8 7.04-46.19 10.58-43.24 9.89-86.47 19.81-129.71 29.71-12.27 2.55-24.34 6.35-36.89 7.27-11.69 1.22-23.59 1-35.13-1.36-11.81-2.23-22.64-7.62-33.87-11.68-9.71-3.72-19.37-7.56-29.1-11.21 7.17-10.47 15.03-20.5 22.46-30.8 9.67-13.11 19.35-26.21 28.98-39.34 4.76-6.82 5.69-15.39 5.67-23.48 0-18.98 0.05-37.96-0.02-56.93-0.13-7.91-2.44-15.78-6.79-22.39-4.06-6.43-9.74-11.55-14.97-16.98-5.01-5.08-9.99-10.18-15-15.26-27.14-27.53-54.02-55.32-81.38-82.64 1.29-5.64 4.08-10.84 7.34-15.58 6.03-8.93 16.25-14.4 26.71-16.2 75.63-7.08 151.26-14.12 226.89-21.17z" p-id="2304" fill="#cdcdcd"></path><path d="M165.2 575.23c10.55-7.7 24.12-9.3 36.82-8.47 21.47 1.38 42.74 4.78 63.96 8.24 27.28 4.57 54.46 9.77 81.47 15.78 13.32 3.04 27.13 5.57 38.89 12.95 9.5 5.45 16.8 13.71 24.6 21.22 20.47 20.02 40.92 40.07 61.39 60.09 10.52 10.33 21.07 20.61 31.58 30.95 5.12 4.91 8.22 11.9 8.12 19.03-0.05 14.34 0.11 28.69-0.09 43.03 0.02 5.8-2.79 11.06-6.23 15.55-11.99 15.58-24.04 31.11-36.04 46.68-23.74 30.72-47.45 61.45-71.2 92.16-6.35 8.34-16.4 13.09-26.56 14.79-16.89 3.1-33.97-0.62-50.37-4.6-45.36-11.32-90.2-25.17-133.1-43.88-13.85-6.98-26.46-17.05-34.76-30.29-5.87-9.14-9.33-19.72-10.51-30.49-2.72-23.57-3.83-47.3-4.54-71-1.07-40.33-0.97-80.73 1.86-120.99 0.8-9.94 1.42-19.9 2.71-29.78 2.36-15.53 8.81-31.59 22-40.97m41.18 59.26c-6.51 1.45-9.44 8.37-10.02 14.38-2.52 21.95-2.96 44.08-3.23 66.16-0.23 32.19 0.63 64.41 3.59 96.48 0.32 7.08 2.58 14.23 6.94 19.89 3.81 5.03 9.42 8.24 15.08 10.79 27.24 12.92 56.68 20.24 86.07 26.38 10.34 1.99 20.71 4.04 31.23 4.69 5.56 0.36 11.65-1.52 14.89-6.31 4.07-5.78 3.95-13.13 4.61-19.88 3.57-47.58 4.78-95.44 1.33-143.07-0.77-9.03-1.34-18.1-2.83-27.04-1.84-9.29-9.34-16.58-18.08-19.69-16.29-5.8-33.15-9.82-50.04-13.45-25.31-5.38-51.02-9.74-76.97-9.75-0.64 0.1-1.93 0.32-2.57 0.42z" p-id="2305" fill="#cdcdcd"></path></svg>