<?xml version="1.0" standalone="no"?><!DOCTYPE svg PUBLIC "-//W3C//DTD SVG 1.1//EN" "http://www.w3.org/Graphics/SVG/1.1/DTD/svg11.dtd"><svg t="1563790390325" class="icon" viewBox="0 0 1024 1024" version="1.1" xmlns="http://www.w3.org/2000/svg" p-id="3620" xmlns:xlink="http://www.w3.org/1999/xlink" width="400" height="400"><defs><style type="text/css"></style></defs><path d="M238.933333 85.333333c-10.24 0-17.066667 6.826667-17.066666 17.066667s6.826667 17.066667 17.066666 17.066667h648.533334v682.666666c0 10.24 6.826667 17.066667 17.066666 17.066667s17.066667-6.826667 17.066667-17.066667V85.333333H238.933333zM102.4 938.666667h563.2c10.24 0 17.066667-6.826667 17.066667-17.066667s-6.826667-17.066667-17.066667-17.066667H136.533333V238.933333h631.466667v682.666667c0 10.24 6.826667 17.066667 17.066667 17.066667s17.066667-6.826667 17.066666-17.066667V204.8H102.4v733.866667z m568.32-575.146667L529.066667 488.106667l-136.533334-136.533334-165.546666 146.773334c-6.826667 6.826667-6.826667 17.066667-1.706667 23.893333 6.826667 6.826667 17.066667 6.826667 23.893333 1.706667l141.653334-126.293334 136.533333 136.533334 165.546667-146.773334c6.826667-6.826667 8.533333-17.066667 1.706666-23.893333-5.12-6.826667-17.066667-6.826667-23.893333 0zM665.6 631.466667H238.933333c-10.24 0-17.066667 6.826667-17.066666 17.066666s6.826667 17.066667 17.066666 17.066667h426.666667c10.24 0 17.066667-6.826667 17.066667-17.066667s-6.826667-17.066667-17.066667-17.066666z m0 119.466666H238.933333c-10.24 0-17.066667 6.826667-17.066666 17.066667s6.826667 17.066667 17.066666 17.066667h426.666667c10.24 0 17.066667-6.826667 17.066667-17.066667s-6.826667-17.066667-17.066667-17.066667z" p-id="3621"></path></svg>