<?xml version="1.0" standalone="no"?><!DOCTYPE svg PUBLIC "-//W3C//DTD SVG 1.1//EN" "http://www.w3.org/Graphics/SVG/1.1/DTD/svg11.dtd"><svg t="1585795115720" class="icon" viewBox="0 0 1024 1024" version="1.1" xmlns="http://www.w3.org/2000/svg" p-id="26370" xmlns:xlink="http://www.w3.org/1999/xlink" width="300" height="300"><defs><style type="text/css"></style></defs><path d="M938.666667 1024H85.333333a85.333333 85.333333 0 0 1-85.333333-85.333333V85.333333a85.333333 85.333333 0 0 1 85.333333-85.333333h853.333334a85.333333 85.333333 0 0 1 85.333333 85.333333v853.333334a85.333333 85.333333 0 0 1-85.333333 85.333333z m42.666666-938.666667a42.666667 42.666667 0 0 0-42.666666-42.666666H85.333333a42.666667 42.666667 0 0 0-42.666666 42.666666v128h938.666666V85.333333z m0 170.666667H42.666667v682.666667a42.666667 42.666667 0 0 0 42.666666 42.666666h853.333334a42.666667 42.666667 0 0 0 42.666666-42.666666V256z m-149.333333 640h-298.666667a21.333333 21.333333 0 0 1 0-42.666667h298.666667a21.333333 21.333333 0 0 1 0 42.666667z m0-128h-128a21.333333 21.333333 0 0 1 0-42.666667h128a21.333333 21.333333 0 0 1 0 42.666667z m-185.173333-193.365333l-0.128 0.042666-266.538667 264.064c-0.042667 0.085333-0.128 0.042667-0.213333 0.085334a20.992 20.992 0 0 1-7.765334 4.992L231.338667 895.146667a22.186667 22.186667 0 0 1-23.168-5.12 21.674667 21.674667 0 0 1-5.034667-22.997334l51.968-139.392 0.213333-0.341333c0.554667-1.450667 1.578667-2.645333 2.432-3.925333 0.768-1.109333 1.322667-2.389333 2.261334-3.328l0.170666-0.298667 266.624-264.149333 88.874667-88.021334c10.069333-10.026667 23.509333-15.530667 37.76-15.530666 14.250667 0 27.690667 5.504 37.76 15.530666l44.458667 43.989334c10.112 10.026667 15.658667 23.338667 15.658666 37.504 0 14.165333-5.546667 27.477333-15.658666 37.504l-88.832 88.064z m-385.834667 263.125333l63.658667-23.210667-40.149334-39.765333-23.509333 62.976z m45.952-102.528l57.685333 57.173333 235.434667-233.258666-57.685333-57.173334-235.434667 233.258667z m397.568-292.693333L660.096 398.506667a9.386667 9.386667 0 0 0-6.656-2.730667 9.386667 9.386667 0 0 0-6.656 2.730667l-73.258667 72.576 57.728 57.173333 73.258667-72.618667a9.173333 9.173333 0 0 0 0-13.098666z" p-id="26371" fill="#dbdbdb"></path></svg>