<?xml version="1.0" standalone="no"?><!DOCTYPE svg PUBLIC "-//W3C//DTD SVG 1.1//EN" "http://www.w3.org/Graphics/SVG/1.1/DTD/svg11.dtd"><svg t="1623737679515" class="icon" viewBox="0 0 1024 1024" version="1.1" xmlns="http://www.w3.org/2000/svg" p-id="2472" xmlns:xlink="http://www.w3.org/1999/xlink" width="500" height="500"><defs><style type="text/css"></style></defs><path d="M414.254545 1024H81.454545C37.236364 1024 0 986.763636 0 942.545455V698.181818c0-44.218182 37.236364-81.454545 81.454545-81.454545h335.127273c44.218182 0 81.454545 37.236364 81.454546 81.454545v244.363637c-2.327273 44.218182-37.236364 81.454545-83.781819 81.454545z m537.6 0H600.436364c-39.563636 0-69.818182-32.581818-69.818182-72.145455V512c0-39.563636 32.581818-72.145455 69.818182-72.145455h351.418181c39.563636 0 72.145455 32.581818 72.145455 72.145455v439.854545c0 39.563636-32.581818 72.145455-72.145455 72.145455z m-349.090909-74.472727h344.436364V516.654545H602.763636v432.872728z m-521.309091-256c-2.327273 0-6.981818 2.327273-6.981818 6.981818v244.363636c0 2.327273 2.327273 6.981818 6.981818 6.981818h335.127273c2.327273 0 6.981818-2.327273 6.981818-6.981818V698.181818c0-2.327273-2.327273-6.981818-6.981818-6.981818H81.454545z m344.436364-109.381818H72.145455c-18.618182 0-37.236364-6.981818-51.2-20.945455-13.963636-13.963636-20.945455-30.254545-20.945455-51.2V72.145455C0 32.581818 32.581818 0 69.818182 0h353.745454c39.563636 0 69.818182 32.581818 69.818182 72.145455V512c2.327273 39.563636-30.254545 72.145455-67.490909 72.145455z m-349.090909-74.472728h344.436364V74.472727H76.8v435.2z m865.745455-102.4H609.745455c-44.218182 0-81.454545-37.236364-81.454546-81.454545V81.454545c0-44.218182 37.236364-81.454545 81.454546-81.454545h335.127272C986.763636 0 1024 37.236364 1024 81.454545V325.818182c0 44.218182-37.236364 81.454545-81.454545 81.454545zM609.745455 74.472727c-2.327273 0-6.981818 2.327273-6.981819 6.981818V325.818182c0 2.327273 2.327273 6.981818 6.981819 6.981818h335.127272c2.327273 0 4.654545-2.327273 4.654546-2.327273 2.327273-2.327273 2.327273-2.327273 2.327272-4.654545V81.454545c0-2.327273-2.327273-6.981818-6.981818-6.981818H609.745455z" fill="#6F6F6F" p-id="2473"></path></svg>