<?xml version="1.0" standalone="no"?><!DOCTYPE svg PUBLIC "-//W3C//DTD SVG 1.1//EN" "http://www.w3.org/Graphics/SVG/1.1/DTD/svg11.dtd"><svg t="1614311084180" class="icon" viewBox="0 0 1024 1024" version="1.1" xmlns="http://www.w3.org/2000/svg" p-id="2091" xmlns:xlink="http://www.w3.org/1999/xlink" width="700" height="700"><defs><style type="text/css"></style></defs><path d="M139.264 342.016h416.768v34.816H139.264z m0 138.752h243.2v34.816h-243.2z m0 139.264h173.568v34.816H139.264z m0 138.752h104.448V793.6H139.264z" p-id="2092" fill="#bfbfbf"></path><path d="M694.784 928.768H69.632V164.352h69.632v69.632h69.12v-69.632h69.632v69.632h69.632v-69.632h69.12v69.632H486.4v-69.632h69.632v69.632h69.632v-69.632h69.12V268.8l69.632-69.632V95.232H625.664V25.6h-69.632v69.632H486.4V25.6h-69.632v69.632h-69.12V25.6h-69.632v69.632h-69.632V25.6h-69.12v69.632H0V998.4h764.416V650.752l-69.632 69.632z" p-id="2093" fill="#bfbfbf"></path><path d="M731.407 270.592l103.179-103.183 189.347 189.342L920.75 459.935zM324.096 680.448v186.368h186.88z m29.102-31.089l345.016-345.026L887.552 493.68 542.536 838.697z" p-id="2094" fill="#bfbfbf"></path></svg>