<?xml version="1.0" standalone="no"?><!DOCTYPE svg PUBLIC "-//W3C//DTD SVG 1.1//EN" "http://www.w3.org/Graphics/SVG/1.1/DTD/svg11.dtd"><svg t="1557545800979" class="icon" style="" viewBox="0 0 1024 1024" version="1.1" xmlns="http://www.w3.org/2000/svg" p-id="2572" xmlns:xlink="http://www.w3.org/1999/xlink" width="200" height="200"><defs><style type="text/css"></style></defs><path d="M72.137 133.284l0 781.432 879.726 0L951.863 133.284 72.137 133.284 72.137 133.284zM257.31 754.059l-92.586 0.196L164.724 662.02l92.586 0C257.31 662.02 257.31 754.059 257.31 754.059zM257.31 570.059l-92.586 0 0-92 92.586 0L257.31 570.059zM257.31 386.059l-92.586 0 0-92.313 92.586 0.274L257.31 386.059 257.31 386.059zM859.277 754.059 349.896 754.059l0-46.02 509.342 0 0 46.02L859.277 754.059zM859.277 570.059 349.896 570.059l0-45.98 509.342 0 0 45.98L859.277 570.059zM859.277 386.059 349.896 386.059l0-46.02 509.342 0 0 46.02L859.277 386.059z" p-id="2573"></path></svg>