<?xml version="1.0" standalone="no"?><!DOCTYPE svg PUBLIC "-//W3C//DTD SVG 1.1//EN" "http://www.w3.org/Graphics/SVG/1.1/DTD/svg11.dtd"><svg t="1590563614946" class="icon" viewBox="0 0 1024 1024" version="1.1" xmlns="http://www.w3.org/2000/svg" p-id="21894" xmlns:xlink="http://www.w3.org/1999/xlink" width="300" height="300"><defs><style type="text/css"></style></defs><path d="M320 725.333333h384l42.666667 234.666667H277.333333z" fill="#333549" p-id="21895"></path><path d="M337.813333 746.666667l-34.922666 192h418.218666l-34.922666-192z" fill="#B9BECA" p-id="21896"></path><path d="M106.666667 85.333333h810.666666a64 64 0 0 1 64 64v618.666667a64 64 0 0 1-64 64H106.666667a64 64 0 0 1-64-64V149.333333a64 64 0 0 1 64-64z" fill="#333549" p-id="21897"></path><path d="M106.666667 106.666667a42.666667 42.666667 0 0 0-42.666667 42.666666v618.666667a42.666667 42.666667 0 0 0 42.666667 42.666667h810.666666a42.666667 42.666667 0 0 0 42.666667-42.666667V149.333333a42.666667 42.666667 0 0 0-42.666667-42.666666H106.666667z" fill="#B9BECA" p-id="21898"></path><path d="M480 725.333333h64a32 32 0 0 1 0 64h-64a32 32 0 0 1 0-64z" fill="#333549" p-id="21899"></path><path d="M480 746.666667a10.666667 10.666667 0 1 0 0 21.333333h64a10.666667 10.666667 0 1 0 0-21.333333h-64z" fill="#FFEEB4" p-id="21900"></path><path d="M213.333333 896h597.333334a42.666667 42.666667 0 1 1 0 85.333333H213.333333a42.666667 42.666667 0 1 1 0-85.333333z" fill="#333549" p-id="21901"></path><path d="M213.333333 917.333333a21.333333 21.333333 0 0 0 0 42.666667h597.333334a21.333333 21.333333 0 0 0 0-42.666667H213.333333z" fill="#B9BECA" p-id="21902"></path><path d="M128 128h768a42.666667 42.666667 0 0 1 42.666667 42.666667v490.666666a42.666667 42.666667 0 0 1-42.666667 42.666667H128a42.666667 42.666667 0 0 1-42.666667-42.666667V170.666667a42.666667 42.666667 0 0 1 42.666667-42.666667z" fill="#333549" p-id="21903"></path><path d="M128 149.333333a21.333333 21.333333 0 0 0-21.333333 21.333334v490.666666a21.333333 21.333333 0 0 0 21.333333 21.333334h768a21.333333 21.333333 0 0 0 21.333333-21.333334V170.666667a21.333333 21.333333 0 0 0-21.333333-21.333334H128z" fill="#FFFFFF" p-id="21904"></path><path d="M213.333333 213.333333h597.333334a42.666667 42.666667 0 0 1 42.666666 42.666667v320a42.666667 42.666667 0 0 1-42.666666 42.666667H213.333333a42.666667 42.666667 0 0 1-42.666666-42.666667V256a42.666667 42.666667 0 0 1 42.666666-42.666667z" fill="#333549" p-id="21905"></path><path d="M213.333333 234.666667a21.333333 21.333333 0 0 0-21.333333 21.333333v320a21.333333 21.333333 0 0 0 21.333333 21.333333h597.333334a21.333333 21.333333 0 0 0 21.333333-21.333333V256a21.333333 21.333333 0 0 0-21.333333-21.333333H213.333333z" fill="#7DACFF" p-id="21906"></path><path d="M554.666667 469.333333h192a42.666667 42.666667 0 1 1 0 85.333334h-192a42.666667 42.666667 0 1 1 0-85.333334z" fill="#333549" p-id="21907"></path><path d="M554.666667 490.666667a21.333333 21.333333 0 0 0 0 42.666666h192a21.333333 21.333333 0 0 0 0-42.666666h-192z" fill="#FFFFFF" p-id="21908"></path><path d="M213.333333 213.333333h256v405.333334H213.333333a42.666667 42.666667 0 0 1-42.666666-42.666667V256a42.666667 42.666667 0 0 1 42.666666-42.666667z" fill="#333549" p-id="21909"></path><path d="M448 234.666667H213.333333a21.333333 21.333333 0 0 0-21.333333 21.333333v320a21.333333 21.333333 0 0 0 21.333333 21.333333h234.666667V234.666667z" fill="#FFEEB4" p-id="21910"></path><path d="M193.962667 251.477333l256 362.666667a10.666667 10.666667 0 1 0 17.408-12.288l-256-362.666667a10.666667 10.666667 0 0 0-17.408 12.288z" fill="#333549" p-id="21911"></path><path d="M211.370667 592.810667l256-362.666667a10.666667 10.666667 0 1 0-17.408-12.288l-256 362.666667a10.666667 10.666667 0 1 0 17.408 12.288zM533.333333 394.666667h234.666667a10.666667 10.666667 0 1 0 0-21.333334H533.333333a10.666667 10.666667 0 1 0 0 21.333334zM533.333333 330.666667h234.666667a10.666667 10.666667 0 1 0 0-21.333334H533.333333a10.666667 10.666667 0 1 0 0 21.333334z" fill="#333549" p-id="21912"></path></svg>