<?xml version="1.0" standalone="no"?><!DOCTYPE svg PUBLIC "-//W3C//DTD SVG 1.1//EN" "http://www.w3.org/Graphics/SVG/1.1/DTD/svg11.dtd"><svg t="1614588273936" class="icon" viewBox="0 0 1024 1024" version="1.1" xmlns="http://www.w3.org/2000/svg" p-id="1706" xmlns:xlink="http://www.w3.org/1999/xlink" width="700" height="700"><defs><style type="text/css"></style></defs><path d="M559.2 824.4H183c-12.6 0-22.8-13-22.8-29V164.6c0-16 10.2-29 22.8-29h660c12.6 0 22.8 13 22.8 29v335.8c0 19.7 13.9 35.6 31.1 35.6s31.1-16 31.1-35.6V164.6c0-55.3-38.1-100.3-85-100.3H183c-46.9 0-85 45-85 100.3v630.8c0 55.3 38.1 100.3 85 100.3h376.2c17.2 0 31.1-16 31.1-35.6 0-19.8-13.9-35.7-31.1-35.7z" p-id="1707" fill="#bfbfbf"></path><path d="M858.1 704.1c11.4-14.4 18.2-32.5 18.2-52.2 0-46.4-37.8-84.2-84.2-84.2S708 605.5 708 651.9c0 19.7 6.8 37.8 18.2 52.2-56.8 25.3-96.4 82.3-96.4 148.4 0 12.7 10.3 23 23 23s23-10.3 23-23c0-64.1 52.2-116.3 116.3-116.4h0.2c64.1 0 116.3 52.2 116.3 116.4 0 12.7 10.3 23 23 23s23-10.3 23-23c-0.1-66.1-39.7-123.1-96.5-148.4zM754 651.9c0-21 17.1-38.2 38.2-38.2s38.2 17.1 38.2 38.2c0 21-17.1 38.1-38.1 38.2h-0.1-0.1c-21-0.1-38.1-17.2-38.1-38.2zM695.1 328c0-17.7-14.3-32-32-32h-430c-17.7 0-32 14.3-32 32s14.3 32 32 32h430c17.7 0 32-14.3 32-32zM252.3 568.7c-17.7 0-32 14.3-32 32s14.3 32 32 32H510c17.7 0 32-14.3 32-32s-14.3-32-32-32H252.3z" p-id="1708" fill="#bfbfbf"></path></svg>