<?xml version="1.0" standalone="no"?><!DOCTYPE svg PUBLIC "-//W3C//DTD SVG 1.1//EN" "http://www.w3.org/Graphics/SVG/1.1/DTD/svg11.dtd"><svg t="1585794867707" class="icon" viewBox="0 0 1024 1024" version="1.1" xmlns="http://www.w3.org/2000/svg" p-id="24645" xmlns:xlink="http://www.w3.org/1999/xlink" width="300" height="300"><defs><style type="text/css"></style></defs><path d="M181.333333 85.333333a32 32 0 0 1 31.850667 28.928L213.333333 117.333333h298.666667A32 32 0 0 1 544 149.333333v53.333334h298.666667c24.32 0 39.402667 25.813333 28.394666 46.762666l-1.386666 2.389334L758.677333 426.666667l110.997334 174.848c13.013333 20.522667-0.682667 47.104-24.256 49.045333l-2.752 0.106667H362.666667a117.376 117.376 0 0 1-112.917334-85.333334H213.333333v341.333334a32 32 0 0 1-28.928 31.850666L181.333333 938.666667a32 32 0 0 1-31.850666-28.928L149.333333 906.666667v-789.333334A32 32 0 0 1 181.333333 85.333333z m362.666667 448a32 32 0 0 1-32 32l-192 0.021334c9.002667 11.946667 22.869333 19.989333 38.677333 21.162666L362.666667 586.666667h421.76l-90.666667-142.848a32 32 0 0 1-1.664-31.381334l1.642667-2.922666 90.709333-142.848H544V533.333333z m-64-352h-256v320h256v-320z" fill="#dbdbdb" p-id="24646"></path></svg>