<?xml version="1.0" standalone="no"?><!DOCTYPE svg PUBLIC "-//W3C//DTD SVG 1.1//EN" "http://www.w3.org/Graphics/SVG/1.1/DTD/svg11.dtd"><svg t="1589263384793" class="icon" viewBox="0 0 1024 1024" version="1.1" xmlns="http://www.w3.org/2000/svg" p-id="1694" xmlns:xlink="http://www.w3.org/1999/xlink" width="300" height="300"><defs><style type="text/css"></style></defs><path d="M906.24 368.64h-25.6V245.76c0-5.12 0-10.24-5.12-15.36L675.84 5.12l-5.12-5.12H665.6 179.2c-20.48 0-40.96 20.48-40.96 40.96v327.68h-20.48c-30.72 0-56.32 25.6-56.32 56.32v296.96c0 30.72 25.6 56.32 56.32 56.32h25.6v204.8c0 20.48 20.48 40.96 40.96 40.96h660.48c20.48 0 40.96-20.48 40.96-40.96v-204.8h25.6c30.72 0 56.32-25.6 56.32-56.32V424.96c0-30.72-25.6-56.32-61.44-56.32zM179.2 40.96h465.92v204.8c0 10.24 10.24 20.48 20.48 20.48h179.2v102.4h-665.6V40.96z m414.72 527.36c0 87.04-56.32 143.36-133.12 143.36-81.92 0-128-61.44-128-138.24 0-81.92 51.2-143.36 133.12-143.36s128 61.44 128 138.24zM153.6 706.56V435.2h61.44v220.16h107.52v51.2H153.6zM844.8 972.8h-665.6v-194.56h660.48l5.12 194.56z m15.36-281.6c-20.48 5.12-56.32 15.36-92.16 15.36-51.2 0-87.04-10.24-112.64-35.84-25.6-25.6-40.96-61.44-35.84-97.28 0-92.16 66.56-143.36 153.6-143.36 35.84 0 61.44 5.12 76.8 15.36l-15.36 51.2c-15.36-5.12-35.84-10.24-61.44-10.24-51.2 0-92.16 30.72-92.16 87.04s35.84 87.04 87.04 87.04c15.36 0 25.6 0 30.72-5.12v-56.32h-40.96v-46.08h102.4v138.24z" p-id="1695" fill="#cdcdcd"></path><path d="M399.36 568.32c0 51.2 25.6 92.16 66.56 92.16s66.56-40.96 66.56-92.16-25.6-92.16-66.56-92.16c-46.08 0-66.56 40.96-66.56 92.16z" p-id="1696" fill="#cdcdcd"></path></svg>