<?xml version="1.0" standalone="no"?><!DOCTYPE svg PUBLIC "-//W3C//DTD SVG 1.1//EN" "http://www.w3.org/Graphics/SVG/1.1/DTD/svg11.dtd"><svg t="1620803098847" class="icon" viewBox="0 0 1024 1024" version="1.1" xmlns="http://www.w3.org/2000/svg" p-id="1901" width="500" height="500" xmlns:xlink="http://www.w3.org/1999/xlink"><defs><style type="text/css"></style></defs><path d="M741.75831031 146.46153875a142.15384594 142.15384594 0 0 0 12.30769219-58.46153906 55.01538469 55.01538469 0 0 0-54.15384563-55.99999969H474.6813875A137.10769219 137.10769219 0 0 0 348.52754094 118.76923063a86.64615375 86.64615375 0 0 0-78.15384563 87.38461593v85.53846094a40.98461531 40.98461531 0 0 0 40.00000032 41.23076906h150.76922999V227.69230813h112.61538469v105.23076843h150.76923094a40.98461531 40.98461531 0 0 0 40.00000031-41.23076906V206.15384656a87.56923031 87.56923031 0 0 0-22.76923125-59.69230781z" fill="#333333" p-id="1902"></path><path d="M373.75831063 584.61538438h289.23076874L526.98908 992h-22.15384594z m-1e-8 0" fill="#FFFFFF" p-id="1903"></path><path d="M772.52754125 382.76923062a54.40000031 54.40000031 0 0 0-53.53846125-55.38461531h-1.23076969a148.18461562 148.18461562 0 0 0-139.6923075-102.76923094H459.2967725a147.69230813 147.69230813 0 0 0-139.69230844 102.76923094h-4.92307687a54.83076938 54.83076938 0 0 0-3.07692281 109.53846188 213.35384625 213.35384625 0 0 0 104.61538499 183.384615l102.15384563 131.07692343 102.15384656-131.07692343a211.81538438 211.81538438 0 0 0 105.23076938-183.384615 54.46153875 54.46153875 0 0 0 46.76923031-54.15384657z" fill="#FFCC90" p-id="1904"></path><path d="M389.75831094 623.384615c-51.69230812 22.15384594-147.69230813 63.384615-207.38461594 89.23077a117.6 117.6 0 0 0-68.30769187 79.99999969l-41.23076907 159.384615a29.784615 29.784615 0 0 0 4.92307688 27.69230812 31.2 31.2 0 0 0 24.61538437 12.30769219h401.84615344z m561.23076844 328.61538469l-41.23076907-159.99999938a117.90769219 117.90769219 0 0 0-68.30769187-79.38461531c-55.99999969-24-142.15384594-61.53846187-195.69230813-84.30769312l-118.15384593 363.69230812h393.84615375a33.1076925 33.1076925 0 0 0 24.61538437-12.30769219 33.72307688 33.72307688 0 0 0 4.92307688-27.69230812z" fill="#FFA70B" p-id="1905"></path></svg>