<?xml version="1.0" standalone="no"?><!DOCTYPE svg PUBLIC "-//W3C//DTD SVG 1.1//EN" "http://www.w3.org/Graphics/SVG/1.1/DTD/svg11.dtd"><svg t="1588733767831" class="icon" viewBox="0 0 1024 1024" version="1.1" xmlns="http://www.w3.org/2000/svg" p-id="5114" xmlns:xlink="http://www.w3.org/1999/xlink" width="200" height="200"><defs><style type="text/css"></style></defs><path d="M384.835 584.009c-11.323 0-20.502 8.954-20.502 20 0 11.045 9.18 20 20.502 20h107.862v141.822c0 11.323 8.955 20.502 20 20.502 11.046-0.001 20.001-9.179 20-20.502V624.009h107.427c11.323 0 20.502-8.955 20.502-20-0.001-11.046-9.179-20.001-20.502-20H532.697v-86.023a20.044 20.044 0 0 0 6.217-0.978h101.418c11.323 0 20.502-8.955 20.502-20-0.001-11.045-9.179-20-20.502-20h-97.944l111.813-111.814c8.007-8.006 8.165-20.829 0.354-28.639-7.811-7.81-20.633-7.652-28.639 0.355L512.813 430.016 399.646 316.849c-8.006-8.006-20.829-8.165-28.639-0.355-7.811 7.811-7.651 20.633 0.355 28.639l111.876 111.876h-98.402c-11.323 0-20.502 8.954-20.502 20 0 11.045 9.18 20 20.502 20h101.875c1.939 0.625 3.956 0.952 5.986 0.969v86.031H384.835z" fill="#dbdbdb" p-id="5115"></path><path d="M511.279 63.279c-247.424 0-448 200.577-448 448 0 80.307 21.149 155.667 58.154 220.848 0.91 2.907 2.465 5.521 4.475 7.713 0.237 0.397 0.466 0.801 0.704 1.198l0.233-0.232c3.681 3.52 8.66 5.694 14.155 5.694 11.322 0 20.5-9.178 20.5-20.5 0-5.496-2.174-10.475-5.695-14.155l0.064-0.064c-33.478-59.215-52.59-127.625-52.59-200.501 0-225.332 182.668-408 408-408 225.331 0 408 182.668 408 408 0 225.331-182.669 408-408 408-83.572 0-161.271-25.133-225.964-68.244l-0.184 0.184c-3.625-3.235-8.391-5.219-13.632-5.219-11.322 0-20.5 9.178-20.5 20.5 0 9.437 6.384 17.363 15.063 19.748 70.453 46.168 154.693 73.031 245.216 73.031 247.423 0 448-200.577 448-448 0.001-247.425-200.576-448.001-447.999-448.001z" fill="#dbdbdb" p-id="5116"></path></svg>