<?xml version="1.0" standalone="no"?><!DOCTYPE svg PUBLIC "-//W3C//DTD SVG 1.1//EN" "http://www.w3.org/Graphics/SVG/1.1/DTD/svg11.dtd"><svg t="1588734625038" class="icon" viewBox="0 0 1024 1024" version="1.1" xmlns="http://www.w3.org/2000/svg" p-id="5913" xmlns:xlink="http://www.w3.org/1999/xlink" width="200" height="200"><defs><style type="text/css"></style></defs><path d="M863.085714 351.085714c-21.942857-29.257143-51.2-51.2-80.457143-73.142857-7.314286 0-7.314286-7.314286-14.628571-7.314286 36.571429-21.942857 65.828571-58.514286 65.828571-102.4 0-65.828571-65.828571-117.028571-146.285714-117.028571-14.628571 0-36.571429 0-51.2 7.314286-7.314286 0-14.628571 7.314286-14.628571 7.314285h-14.628572c0-7.314286-7.314286-21.942857-21.942857-29.257142C563.2 14.628571 533.942857 0 512 0c-29.257143 0-51.2 14.628571-73.142857 36.571429-14.628571 7.314286-29.257143 14.628571-36.571429 29.257142h-7.314285S387.657143 58.514286 380.342857 58.514286C365.714286 51.2 351.085714 43.885714 329.142857 43.885714c-73.142857 0-146.285714 51.2-146.285714 117.028572 0 43.885714 29.257143 80.457143 65.828571 102.4 0 0-7.314286 7.314286-14.628571 7.314285-21.942857 21.942857-51.2 43.885714-73.142857 73.142858C80.457143 424.228571 29.257143 512 29.257143 614.4c0 277.942857 212.114286 409.6 475.428571 409.6h14.628572c256 0 475.428571-131.657143 475.428571-409.6-7.314286-95.085714-51.2-190.171429-131.657143-263.314286zM650.971429 636.342857c14.628571 0 29.257143 14.628571 29.257142 29.257143s-14.628571 29.257143-29.257142 29.257143H533.942857V804.571429c0 14.628571-14.628571 29.257143-29.257143 29.257142s-21.942857-14.628571-21.942857-29.257142V694.857143H365.714286c-14.628571 0-29.257143-14.628571-29.257143-29.257143s14.628571-29.257143 29.257143-29.257143h117.028571v-65.828571H365.714286c-14.628571 0-29.257143-14.628571-29.257143-29.257143S351.085714 512 365.714286 512h87.771428L358.4 416.914286c-14.628571-14.628571-14.628571-29.257143 0-36.571429 7.314286-14.628571 29.257143-14.628571 36.571429 0L512 490.057143l117.028571-117.028572c7.314286-7.314286 21.942857-7.314286 36.571429 7.314286s14.628571 29.257143 0 36.571429L570.514286 512H658.285714c14.628571 0 29.257143 14.628571 29.257143 29.257143s-14.628571 29.257143-36.571428 29.257143H533.942857v65.828571h117.028572z" p-id="5914" fill="#dbdbdb"></path></svg>