<?xml version="1.0" standalone="no"?><!DOCTYPE svg PUBLIC "-//W3C//DTD SVG 1.1//EN" "http://www.w3.org/Graphics/SVG/1.1/DTD/svg11.dtd"><svg t="1594109163865" class="icon" viewBox="0 0 1199 1024" version="1.1" xmlns="http://www.w3.org/2000/svg" p-id="3909" xmlns:xlink="http://www.w3.org/1999/xlink" width="351.26953125" height="300"><defs><style type="text/css"></style></defs><path d="M1199.182461 420.407048a99.376077 99.376077 0 0 0-29.345956-70.919393l-320.137698-320.137698A99.820713 99.820713 0 0 0 778.112461 0.004002a99.376077 99.376077 0 0 0-70.919393 29.345955L600.258184 137.618748l-108.935745-108.268791A99.153759 99.153759 0 0 0 420.403047 0.004002a100.043031 100.043031 0 0 0-70.919393 29.345955l-320.137698 320.137698a100.487666 100.487666 0 0 0 0 142.061104l166.293748 166.071431a35.793173 35.793173 0 0 0 8.670396 16.673838l320.137699 320.137698a99.820713 99.820713 0 0 0 70.919392 29.345956h8.003443a100.043031 100.043031 0 0 0 70.919393-29.345956l320.137698-320.137698a100.043031 100.043031 0 0 0 16.45152-24.454963l158.734942-158.734942a99.598395 99.598395 0 0 0 29.345956-70.919393z m-1128.485386 0a30.012909 30.012909 0 0 1 8.670396-20.230924L400.172123 79.149155a29.790591 29.790591 0 0 1 42.018073 0l108.26879 108.268791L400.172123 337.260174l34.236948 34.459266a155.622492 155.622492 0 0 0 220.316985 0l39.572577-39.572576L944.850845 582.476758a29.568274 29.568274 0 0 1 8.670396 21.120195 35.793173 35.793173 0 0 1 0 5.335629l-51.800058 51.800058-70.919393-70.919393a35.348538 35.348538 0 0 0-50.021515 50.021515L850.810396 711.421109l-44.463569 44.463569-70.919393-70.919393A35.348538 35.348538 0 1 0 685.628237 733.652893L755.880676 805.016922l-44.463569 46.019794-70.919393-70.919393a35.348538 35.348538 0 0 0-50.021515 50.021515l70.919393 70.919393-44.46357 44.463569a28.679002 28.679002 0 0 1-16.896156 8.003443 29.345956 29.345956 0 0 1-17.118474-8.003443L79.367471 441.527244a29.345956 29.345956 0 0 1-8.670396-21.120196z m1049.340233 21.120196l-111.158923 111.158923a96.041309 96.041309 0 0 0-13.561389-20.453242L742.319288 280.346805a34.903902 34.903902 0 0 0-8.670396-38.460987 35.348538 35.348538 0 0 0-50.021516 0l-79.812106 79.812107a87.148596 87.148596 0 0 1-103.155481 13.561388l210.979636-210.979635 44.463569-44.46357a28.90132 28.90132 0 0 1 22.009467-9.115031 30.012909 30.012909 0 0 1 21.120195 8.670396L1119.592672 400.176124a29.345956 29.345956 0 0 1 8.670396 21.120196 27.789731 27.789731 0 0 1-8.448078 20.897877z m0 0" p-id="3910" fill="#cdcdcd"></path></svg>