<?xml version="1.0" standalone="no"?><!DOCTYPE svg PUBLIC "-//W3C//DTD SVG 1.1//EN" "http://www.w3.org/Graphics/SVG/1.1/DTD/svg11.dtd"><svg t="1594109278920" class="icon" viewBox="0 0 1024 1024" version="1.1" xmlns="http://www.w3.org/2000/svg" p-id="9063" xmlns:xlink="http://www.w3.org/1999/xlink" width="300" height="300"><defs><style type="text/css"></style></defs><path d="M915.247883 519.597663V109.323843A109.323843 109.323843 0 0 0 805.92404 0H337.206656a109.323843 109.323843 0 0 0-109.392601 109.323843v4.056671h-11.75747a109.255086 109.255086 0 0 0-109.323843 109.323844v296.893305A100.866716 100.866716 0 0 0 7.172411 621.495736v298.062177a100.660445 100.660445 0 0 0 101.829316 101.898073h803.358356a100.591687 100.591687 0 0 0 101.829316-101.898073V621.495736a99.972873 99.972873 0 0 0-98.941516-101.898073zM279.381906 109.323843A57.687236 57.687236 0 0 1 337.206656 51.774122h468.992412a57.755993 57.755993 0 0 1 57.549722 57.549721v409.723763h-163.16068a50.674008 50.674008 0 0 0-50.055194 39.741624 149.753038 149.753038 0 0 1-144.389982 112.211643 152.847109 152.847109 0 0 1-144.389981-113.380514 51.774122 51.774122 0 0 0-50.055194-38.572753h-32.315853zM158.438107 222.704358a57.755993 57.755993 0 0 1 57.549721-57.549722h11.482441v353.89297H158.438107z m804.45847 696.853555a49.023837 49.023837 0 0 1-50.055194 50.055194H109.001727a49.023837 49.023837 0 0 1-50.055194-50.055194V621.495736a49.023837 49.023837 0 0 1 50.055194-50.055193h202.558518a203.864903 203.864903 0 0 0 194.513932 151.884509 199.739475 199.739475 0 0 0 194.513933-151.884509h211.771973a49.023837 49.023837 0 0 1 50.055194 50.055193v298.062177z" p-id="9064" fill="#cdcdcd"></path><path d="M385.33665 188.738333h36.235009a25.92144 25.92144 0 1 0 0-51.774122H385.33665a25.92144 25.92144 0 1 0 0 51.774122z m138.064325 0h220.435372a25.92144 25.92144 0 0 0 0-51.774122H523.332218a25.92144 25.92144 0 0 0 0 51.774122zM385.33665 309.613375h36.235009a25.92144 25.92144 0 1 0 0-51.842879H385.33665a25.92144 25.92144 0 0 0 0 51.842879z m138.064325 0h220.435372a25.92144 25.92144 0 0 0 0-51.842879H523.332218a25.92144 25.92144 0 0 0 0 51.842879zM385.33665 430.41966h36.235009a25.92144 25.92144 0 1 0 0-51.774122H385.33665a25.92144 25.92144 0 1 0 0 51.774122z m138.064325 0h220.435372a25.92144 25.92144 0 0 0 0-51.774122H523.332218a25.92144 25.92144 0 0 0 0 51.774122z m125.413013 379.676895H372.61658a25.92144 25.92144 0 1 0 0 51.774122h276.197408a25.92144 25.92144 0 0 0 0-51.774122z" p-id="9065" fill="#cdcdcd"></path></svg>