<?xml version="1.0" standalone="no"?><!DOCTYPE svg PUBLIC "-//W3C//DTD SVG 1.1//EN" "http://www.w3.org/Graphics/SVG/1.1/DTD/svg11.dtd"><svg t="1605839625657" class="icon" viewBox="0 0 1024 1024" version="1.1" xmlns="http://www.w3.org/2000/svg" p-id="2477" xmlns:xlink="http://www.w3.org/1999/xlink" width="500" height="500"><defs><style type="text/css"></style></defs><path d="M192.512 312.32h739.84l-51.2 226.816-440.32 54.784 8.192 66.048 486.4-60.416L1015.808 245.76H169.984L114.176 80.384H7.68v66.56H66.56l221.184 654.336H942.08v-66.56H335.36zM379.392 843.776c-46.592 0-84.48 37.888-84.48 84.48s37.888 84.48 84.48 84.48 84.48-37.888 84.48-84.48-37.888-84.48-84.48-84.48z m0 117.76c-18.432 0-33.28-14.848-33.28-33.28s14.848-33.28 33.28-33.28 33.28 14.848 33.28 33.28-14.848 33.28-33.28 33.28zM847.36 843.776c-46.592 0-84.48 37.888-84.48 84.48s37.888 84.48 84.48 84.48 84.48-37.888 84.48-84.48-37.888-84.48-84.48-84.48z m0 117.76c-18.432 0-33.28-14.848-33.28-33.28s14.848-33.28 33.28-33.28 33.28 14.848 33.28 33.28-14.848 33.28-33.28 33.28z" p-id="2478" fill="#cdcdcd"></path></svg>