<?xml version="1.0" standalone="no"?><!DOCTYPE svg PUBLIC "-//W3C//DTD SVG 1.1//EN" "http://www.w3.org/Graphics/SVG/1.1/DTD/svg11.dtd"><svg t="1560509004672" class="icon" style="" viewBox="0 0 1024 1024" version="1.1" xmlns="http://www.w3.org/2000/svg" p-id="3949" xmlns:xlink="http://www.w3.org/1999/xlink" width="400" height="400"><defs><style type="text/css"></style></defs><path d="M979.539364 364.11728l-57.556083-41.330505V91.604242A91.700062 91.700062 0 0 0 830.44292 0H191.640674a91.700062 91.700062 0 0 0-91.540362 91.604242v231.182533L42.54423 364.11728A102.240299 102.240299 0 0 0 0 447.097692V921.791641a102.208359 102.208359 0 0 0 102.208359 102.208359h817.666875a102.208359 102.208359 0 0 0 102.208359-102.208359V447.097692c0-32.898316-15.842296-63.752464-42.544229-82.980412M945.427324 921.088958L573.388896 697.572052 945.427324 484.212102v436.876856m-843.218965 26.254773a25.55209 25.55209 0 0 1-25.55209-25.55209V488.555958L840.280474 947.343731H102.208359M191.640674 76.72015h638.802246c8.112789 0 14.884092 6.835184 14.884092 14.884092V453.230193l-347.252901 199.11466-321.31753-193.109919V91.604242c0-8.048908 6.835184-14.884092 14.884093-14.884092m106.456394 331.889707h212.912789a38.328135 38.328135 0 0 0 0-76.65627H298.097068a38.328135 38.328135 0 1 0 0 76.65627m0-160.722646h425.889457a38.360075 38.360075 0 0 0 0-76.656269H298.097068a38.328135 38.328135 0 1 0 0 76.656269" fill="" p-id="3950"></path></svg>