<?xml version="1.0" standalone="no"?><!DOCTYPE svg PUBLIC "-//W3C//DTD SVG 1.1//EN" "http://www.w3.org/Graphics/SVG/1.1/DTD/svg11.dtd"><svg t="1623929200771" class="icon" viewBox="0 0 3065 1024" version="1.1" xmlns="http://www.w3.org/2000/svg" p-id="20852" width="2993.1640625" height="1000" xmlns:xlink="http://www.w3.org/1999/xlink"><defs><style type="text/css"></style></defs><path d="M805.926176 482.244002h124.61185v86.418125h-124.61185zM1624.197798 271.599822h271.599822v134.25673H1624.197798zM805.926176 311.722523h124.61185v89.118691h-124.61185zM805.926176 649.293324h124.61185v101.078343h-124.61185zM2200.575829 320.210017h211.415771v194.440782h-211.415771z" fill="#CE4545" p-id="20853"></path><path d="M0 0v506.163304a516.96557 516.96557 0 0 0 516.96557 516.96557h2546.24833V0z m407.785528 337.185006A1761.926685 1761.926685 0 0 0 501.533762 87.575511l84.874944 33.949977a1500.743334 1500.743334 0 0 1-112.266403 241.122001l71.372112-10.41647 43.980653-97.606186 77.15904 29.706231a2292.780883 2292.780883 0 0 1-154.31808 288.57481 908.161904 908.161904 0 0 0 140.815248-50.924966v81.402787a1080.226564 1080.226564 0 0 1-244.594158 71.372112L385.795202 594.896201a125.769236 125.769236 0 0 0 38.57952-25.462484 760.788137 760.788137 0 0 0 82.560173-136.571501l-115.738561 16.974989-19.675555-80.631197a89.504487 89.504487 0 0 0 36.264749-32.021002z m262.340737 438.649144a1697.498887 1697.498887 0 0 1-284.331063 77.159041l-11.959652-88.347102a1650.817667 1650.817667 0 0 0 296.290715-72.143702z m484.558773 56.711895h-347.215681v43.594858h-84.874945V410.87189c-18.132374 28.93464-38.57952 57.86928-60.955641 87.57551l-27.39146-90.276077a931.309616 931.309616 0 0 0 132.71355-312.879908l81.788582 16.974989c-8.87329 35.493159-21.218736 74.072679-36.264749 115.73856h121.139694a1102.216891 1102.216891 0 0 0-43.980653-115.73856l85.646534-23.147712c18.132374 50.924967 32.406797 97.220391 43.209063 138.500477h118.824922v84.103354h-121.525488v89.118691h107.636861v81.402788h-107.636861v86.418125h107.636861v80.631197h-107.636861v101.078343h138.886272z m258.86858-48.995991a77.15904 77.15904 0 0 1-86.418125 86.418125h-84.874944l-19.675555-85.646534a547.443391 547.443391 0 0 0 74.072678 5.015337q27.777255 0 27.777255-28.93464v-169.749888c-38.57952 12.731242-68.671546 22.376122-92.205053 28.93464l-22.376122-89.118692a887.328963 887.328963 0 0 0 115.73856-28.93464V331.012283H1226.828741V245.365748h97.606186V95.291415h89.118691v150.074333h83.331764v85.646535h-83.331764v139.272068c23.919302-8.87329 53.625533-21.990326 89.118692-38.57952v88.347101q-42.823267 20.447146-89.118692 38.57952z m567.890537-292.818558h-358.017947a742.269968 742.269968 0 0 1-108.022656 388.495768l-67.128365-60.184051a633.475721 633.475721 0 0 0 88.347101-347.215682V187.496468h177.465792a733.010883 733.010883 0 0 0-35.493158-85.646535L1774.657927 86.80392a1026.986826 1026.986826 0 0 1 31.249411 100.692548h177.465793z m823.28696 157.018647h-89.118691v-46.681219h-212.187361v283.559473h-91.433463v-283.559473H2199.032649v46.681219h-87.575511V233.406097h300.534462V88.347101h91.433463v145.058996h301.306052z" fill="#CE4545" p-id="20854"></path><path d="M2503.425063 320.210017h212.187361v194.440782h-212.187361z" fill="#CE4545" p-id="20855"></path></svg>