<?xml version="1.0" standalone="no"?><!DOCTYPE svg PUBLIC "-//W3C//DTD SVG 1.1//EN" "http://www.w3.org/Graphics/SVG/1.1/DTD/svg11.dtd"><svg t="1620812176847" class="icon" viewBox="0 0 1024 1024" version="1.1" xmlns="http://www.w3.org/2000/svg" p-id="18104" xmlns:xlink="http://www.w3.org/1999/xlink" width="500" height="500"><defs><style type="text/css"></style></defs><path d="M440.96 701.888h161.664a397.184 397.184 0 0 1 389.376 319.04H32a421.568 421.568 0 0 1 408.96-319.04z" fill="#26CD8B" p-id="18105"></path><path d="M512 893.312c20.288 0 38.848-11.52 47.872-29.632 32.064-64.576 48.128-129.152 48.128-193.664h-192c0 64.512 16 129.088 48.128 193.664 9.024 18.176 27.52 29.632 47.872 29.632z" fill="#FFFFFF" p-id="18106"></path><path d="M512.448 590.208c141.44 0 256-128.512 256-287.104 0-79.168 13.696-171.392-32.448-223.36C689.664 27.584 589.952 0 512.448 0 435.008 0 318.976 18.752 272 79.744c-38.72 50.304-15.552 151.68-15.552 223.36 0 158.592 114.56 287.104 256 287.104z" fill="#784915" p-id="18107"></path><path d="M415.616 646.08C355.2 614.528 307.776 554.112 285.44 479.36c-34.56-20.096-70.784-64.64-61.888-112.448 8.064-43.648 31.808-59.776 55.936-60.416 18.112-48.576 46.272-83.2 98.624-97.472 52.352-14.336 40.192 2.112 72.192-17.6 32-19.712 29.76-43.84 111.296-57.152 81.536-13.376 175.872 37.44 189.952 152.896 0.256 2.112-0.064 4.224-0.128 6.336l0.128 13.632c21.504 3.456 41.472 20.48 48.768 59.776 8.96 48.192-28.032 93.184-62.848 113.024-22.4 74.432-69.76 134.656-129.92 166.144v55.808c-32 42.56-64 63.808-96 63.808s-64-21.248-96-63.808v-55.808z" fill="#F5D6B2" p-id="18108"></path></svg>