<?xml version="1.0" standalone="no"?><!DOCTYPE svg PUBLIC "-//W3C//DTD SVG 1.1//EN" "http://www.w3.org/Graphics/SVG/1.1/DTD/svg11.dtd"><svg t="1620894969065" class="icon" viewBox="0 0 1072 1024" version="1.1" xmlns="http://www.w3.org/2000/svg" p-id="64923" xmlns:xlink="http://www.w3.org/1999/xlink" width="523.4375" height="500"><defs><style type="text/css"></style></defs><path d="M575.798953 0.761298l2.85755 3.109529H579.015707v0.321676l297.013612 305.345005h3.216754v3.393675l1.431456 1.501152H879.246073v239.685696h85.780105a109.728838 109.728838 0 0 1 75.770639 29.733529c20.126157 19.123602 31.454492 45.072084 31.454492 72.130346v142.641591a99.612147 99.612147 0 0 1-31.454492 72.092817A109.728838 109.728838 0 0 1 965.026178 900.455204h-85.780105v20.442471c0 27.058262-11.328335 53.006743-31.454492 72.124985A109.73956 109.73956 0 0 1 772.020942 1022.766911H107.225131a109.73956 109.73956 0 0 1-75.770639-29.73889A99.612147 99.612147 0 0 1 0 920.903037V105.734702C0 78.681801 11.328335 52.733319 31.454492 33.615079A109.728838 109.728838 0 0 1 107.225131 3.870827h468.573822v-3.109529z m132.996691 639.029613h-34.279874l-60.544671 133.564984h-1.002554l-60.79665-133.564984v0.032168H517.897382v170.273507h29.272461v-117.304293h1.002555l52.540314 117.304293h25.267602l52.540314-117.304293h1.002555v117.272126h29.272461v-170.273508z m111.047707 0h-65.300105v170.273508h65.300105c29.020482 0 50.787183-7.612984 65.798701-22.876482 14.260942-14.545089 21.520084-35.314597 21.520084-62.260272 0-27.165487-7.259141-47.929634-21.520084-62.265634-15.011518-15.225969-36.77822-22.87112-65.798701-22.87112z m-5.506011 23.873675c22.27066 0 38.531351 4.755435 48.787435 14.545089 10.009466 9.510869 15.011518 25.272963 15.011518 46.750157 0 20.946429-5.002052 36.456545-15.011518 46.466011-10.256084 9.795016-26.516775 14.797068-48.787435 14.797068H783.815707v-122.558325zM579.015707 77.041257v130.600209c0 27.058262 11.328335 53.038911 31.454492 72.124984A109.734199 109.734199 0 0 0 686.240838 309.537508h123.668104L579.015707 77.041257z m64.335078 273.247162a109.728838 109.728838 0 0 1-75.770638-29.776419A99.612147 99.612147 0 0 1 536.125654 248.387016v-203.727749H150.115183a109.73956 109.73956 0 0 0-75.770638 29.73889A99.612147 99.612147 0 0 0 42.890052 146.51778v733.564649c0 27.090429 11.328335 53.038911 31.454493 72.124985A109.73956 109.73956 0 0 0 150.115183 981.946304h579.015707c50.862241 0.032168 94.787016-33.990366 105.080628-81.4911H343.120419a109.728838 109.728838 0 0 1-75.770639-29.73889A99.612147 99.612147 0 0 1 235.895288 798.559162v-142.609424c0-27.090429 11.328335-53.038911 31.454492-72.162513A109.728838 109.728838 0 0 1 343.120419 554.042974h493.235602V350.283058h-193.005236z m-450.345549 0.461068h171.560209v40.890304H193.005236v-40.890304z m0-190.356775h171.560209v40.884942H193.005236v-40.884942z m0-95.215916h107.22513v40.884942H193.005236v-40.884942z m231.499057 190.24955v40.890303H193.005236v-40.890303h231.499057z" fill="#B865FC" p-id="64924"></path></svg>