<?xml version="1.0" standalone="no"?><!DOCTYPE svg PUBLIC "-//W3C//DTD SVG 1.1//EN" "http://www.w3.org/Graphics/SVG/1.1/DTD/svg11.dtd"><svg t="1557306877965" class="icon" style="" viewBox="0 0 1024 1024" version="1.1" xmlns="http://www.w3.org/2000/svg" p-id="3339" xmlns:xlink="http://www.w3.org/1999/xlink" width="200" height="200"><defs><style type="text/css"></style></defs><path d="M113.357299 544.768688 113.357299 254.752898c-46.959852 14.449185-82.222745 73.794053-82.222745 145.007895C31.306568 470.974635 66.397447 530.319503 113.357299 544.768688zM172.702167 588.460272l237.207458 0L409.909625 232.735092 172.702167 232.735092c-21.845792 0-39.563245 17.717453-39.563245 39.563245l0 276.770704C133.138922 570.914833 150.856375 588.460272 172.702167 588.460272zM825.151688 98.048043c0 0-191.451705 135.891147-395.46044 135.891147 0 80.674618 0 330.095078 0 357.101293 203.836721 0 395.46044 135.891147 395.46044 135.891147L825.151688 98.048043zM469.598522 368.282211l-0.344028-79.126491c0 0 172.358139 10.492861 322.010415-113.013271C791.264908 294.832185 469.598522 368.282211 469.598522 368.282211zM904.106165 34.74685l-59.344868 0 0 749.981522 59.344868 0L904.106165 34.74685zM993.209474 404.921216c0-46.271796-28.726356-85.663027-69.149672-101.832353l0 203.492693C964.483118 490.584243 993.209474 451.020998 993.209474 404.921216zM349.360658 608.241895c-12.385016 0-176.658492 0-176.658492 0s-7.396607 223.618344 60.548967 345.920376c88.931295 83.942886 128.494541-4.988409 117.313623-29.586427C339.555854 899.977826 281.415085 703.365698 349.360658 608.241895z" p-id="3340"></path></svg>