<?xml version="1.0" standalone="no"?><!DOCTYPE svg PUBLIC "-//W3C//DTD SVG 1.1//EN" "http://www.w3.org/Graphics/SVG/1.1/DTD/svg11.dtd"><svg t="1603347113594" class="icon" viewBox="0 0 1024 1024" version="1.1" xmlns="http://www.w3.org/2000/svg" p-id="2647" xmlns:xlink="http://www.w3.org/1999/xlink" width="500" height="500"><defs><style type="text/css"></style></defs><path d="M874.992 349.504l-57.808 27.456c64.704 136.304 46.992 282.304-44.944 365.104-120.384 108.384-330.128 76.016-467.728-76.8-137.6-152.816-147.872-364.8-27.488-473.184 113.152-101.872 305.216-79.344 442.144 50.608L534.208 445.76l47.328 43.088 338.128-371.296-47.328-43.088-110.064 120.864C602.8 44.816 374.16 18.464 234.192 144.496c-149.024 134.176-136.8 386.368 22.752 563.568S666.032 923.776 815.056 789.6c114.608-103.184 136.032-279.824 59.936-440.096zM418 602.832c-50.592-48.848-78.016-112.896-76.16-172.384l-63.968-2c-2.432 78 32.4 159.328 95.68 220.416s145.76 93.072 223.632 87.936l-4.224-63.856c-59.424 3.92-124.384-21.264-174.96-70.112zM275.696 828.688l-48.352-41.936-168.816 194.72 587.44 6.064 0.672-63.984-449.168-4.656z" p-id="2648" fill="#cdcdcd"></path></svg>