<?xml version="1.0" standalone="no"?><!DOCTYPE svg PUBLIC "-//W3C//DTD SVG 1.1//EN" "http://www.w3.org/Graphics/SVG/1.1/DTD/svg11.dtd"><svg t="1558518871963" class="icon" style="" viewBox="0 0 1024 1024" version="1.1" xmlns="http://www.w3.org/2000/svg" p-id="25939" xmlns:xlink="http://www.w3.org/1999/xlink" width="250" height="250"><defs><style type="text/css"></style></defs><path d="M768 264.32c-21.12-11.52-42.24-21.76-64-28.8-30.72-11.52-61.44-18.56-91.52-17.92h-3.2c-159.36 3.84-348.8 187.52-348.8 223.36 0 36.48 176.64 227.2 352 224.64 30.656-0.704 61.44-7.04 91.52-17.344 21.76-7.68 43.52-17.28 64-28.8 111.36-59.52 196.48-159.36 196.48-178.56 0-18.496-88.96-116.416-196.48-176.576z m0 214.4c-9.6 35.2-32.64 65.28-64 85.12-25.6 17.28-57.6 26.88-91.52 26.88-88.96 0-160.64-67.2-160.64-149.76s71.68-149.12 160.64-149.12c33.92 0 65.92 9.6 91.52 26.88 31.36 19.84 54.4 49.92 64 85.12a140.544 140.544 0 0 1 0 74.88z" p-id="25940" fill="#cdcdcd"></path><path d="M546.944 441.728c0 33.408 28.864 60.608 65.28 60.608 35.904 0 65.152-27.2 65.152-60.608 0-33.6-29.248-60.608-65.152-60.608-36.416 0-65.28 26.944-65.28 60.608z" p-id="25941" fill="#cdcdcd"></path><path d="M768 128.64V128c0-35.2-28.8-64-64-64H192c-35.2 0-64 28.8-64 64v768c0 35.2 28.8 64 64 64h512c35.2 0 64-28.8 64-64v-192H192V183.04c0-30.08 23.04-55.04 51.2-55.04M448 771.84c24.96 0 44.8 20.48 44.8 45.44 0 24.384-19.84 44.8-44.8 44.8s-44.8-20.416-44.8-44.8c0-24.96 19.84-45.44 44.8-45.44z m320-535.04v-1.28h-2.56c0.64 0.64 1.92 0.64 2.56 1.28z" p-id="25942" fill="#cdcdcd"></path></svg>