<?xml version="1.0" standalone="no"?><!DOCTYPE svg PUBLIC "-//W3C//DTD SVG 1.1//EN" "http://www.w3.org/Graphics/SVG/1.1/DTD/svg11.dtd"><svg t="1620896080305" class="icon" viewBox="0 0 1024 1024" version="1.1" xmlns="http://www.w3.org/2000/svg" p-id="87851" xmlns:xlink="http://www.w3.org/1999/xlink" width="500" height="500"><defs><style type="text/css"></style></defs><path d="M960 204.9792z m-19.776 798.976A68.3904 68.3904 0 0 1 892.16 1024H130.304A67.968 67.968 0 0 1 64 954.3552V68.8128A68.544 68.544 0 0 1 131.9296 0.064h624.64L960 204.9408v751.0272a67.4816 67.4816 0 0 1-19.7632 47.9872zM742.4 406.5792a12.9024 12.9024 0 0 0-5.5808-10.5344 10.4192 10.4192 0 0 0-11.136 0l-89.92 57.2672v-34.56A45.5936 45.5936 0 0 0 592.64 371.2H299.136A45.6064 45.6064 0 0 0 256 418.7392v250.5088A45.5936 45.5936 0 0 0 299.136 716.8H592.64a45.5936 45.5936 0 0 0 43.1488-47.552v-34.56l89.92 57.2672a10.368 10.368 0 0 0 11.136 0 12.6592 12.6592 0 0 0 5.5808-10.8032v-274.56zM523.3536 561.2544c-26.3552 22.6944-78.3232 57.8432-104.6784 80.192-22.3104 18.7904-22.3104-12.4288-22.3104-12.4288V457.3184s0-31.2064 24.5888-10.24c20.7872 17.728 80.3456 59.264 102.4 78.08 12.416 10.56 21.2864 18.368-0.0128 36.096z" fill="#A477ED" p-id="87852"></path><path d="M958.1824 205.0432H824.6016a67.84 67.84 0 0 1-67.6736-68.1728V0z m0 0" fill="#A477ED" p-id="87853"></path></svg>