<?xml version="1.0" standalone="no"?><!DOCTYPE svg PUBLIC "-//W3C//DTD SVG 1.1//EN" "http://www.w3.org/Graphics/SVG/1.1/DTD/svg11.dtd"><svg t="1585550781821" class="icon" viewBox="0 0 1024 1024" version="1.1" xmlns="http://www.w3.org/2000/svg" p-id="2258" xmlns:xlink="http://www.w3.org/1999/xlink" width="200" height="200"><defs><style type="text/css"></style></defs><path d="M 234.837 166.707 h 61.6107 V 228.352 H 234.837 Z M 329.83 166.707 h 423.526 V 228.352 H 329.83 Z M 234.837 349.901 h 61.6107 v 61.6107 H 234.837 Z M 329.83 349.901 h 423.526 v 61.6107 H 329.83 Z M 234.837 533.06 h 61.6107 v 61.5765 H 234.837 Z M 234.837 716.186 h 61.6107 v 61.6107 H 234.837 Z M 771.959 850.978 a 128.205 128.205 0 0 0 0 -256.341 a 128.205 128.205 0 0 0 0 256.341 Z" fill="#1296db" p-id="2259"></path><path d="M 872.823 845.79 c -28.0576 21.6064 -63.2149 34.4747 -101.41 34.4747 s -73.3184 -12.8683 -101.478 -34.4747 a 194.389 194.389 0 0 0 -92.9451 162.372 h 388.881 a 194.355 194.355 0 0 0 -93.0475 -162.372 Z" fill="#1296db" p-id="2260"></path><path d="M 114.551 886.647 V 138.854 c 0 -36.4203 29.184 -65.8773 65.1264 -65.8773 h 627.337 c 35.9424 0 65.1264 29.4571 65.1264 65.8773 v 455.612 a 171.486 171.486 0 0 1 56.4565 71.168 V 87.4155 A 74.8544 74.8544 0 0 0 853.743 12.5611 H 132.983 a 74.8544 74.8544 0 0 0 -74.8544 74.8544 v 849.169 c 0 41.3355 33.5189 74.8203 74.8544 74.8203 h 408.201 a 335.428 335.428 0 0 1 12.0832 -58.88 H 179.712 a 65.536 65.536 0 0 1 -65.1605 -65.8773 Z" fill="#1296db" p-id="2261"></path><path d="M 753.357 557.09 v -24.0299 H 329.83 v 61.5765 h 336.35 a 166.059 166.059 0 0 1 87.1765 -37.5467 Z M 605.116 723.934 c 0 -2.62827 0.273067 -5.15413 0.4096 -7.74827 H 329.83 v 61.6107 h 284.331 a 167.424 167.424 0 0 1 -9.04533 -53.8624 Z" fill="#1296db" p-id="2262"></path></svg>