<?xml version="1.0" standalone="no"?><!DOCTYPE svg PUBLIC "-//W3C//DTD SVG 1.1//EN" "http://www.w3.org/Graphics/SVG/1.1/DTD/svg11.dtd"><svg t="1583041040643" class="icon" viewBox="0 0 1024 1024" version="1.1" xmlns="http://www.w3.org/2000/svg" p-id="1183" xmlns:xlink="http://www.w3.org/1999/xlink" width="200" height="200"><defs><style type="text/css"></style></defs><path d="M512 128l133.12 102.4 5.12 5.12 5.12 5.12c61.44 30.72 112.64 71.68 158.72 128 107.52 163.84 61.44 384-102.4 491.52-61.44 40.96-128 61.44-199.68 61.44-117.76 0-230.4-61.44-296.96-158.72-81.92-117.76-81.92-276.48 0-394.24 46.08-51.2 97.28-97.28 153.6-133.12l5.12-5.12 5.12-5.12L512 128M512 0L317.44 148.48C245.76 189.44 179.2 240.64 128 307.2c-102.4 153.6-102.4 358.4 0 512 87.04 133.12 235.52 204.8 384 204.8 87.04 0 179.2-25.6 256-76.8 209.92-143.36 266.24-430.08 128-640-51.2-66.56-117.76-117.76-189.44-158.72L512 0z" p-id="1184" fill="#cdcdcd"></path><path d="M512 716.8c-15.36 0-25.6-5.12-35.84-15.36L409.6 634.88l-66.56 66.56c-20.48 20.48-51.2 20.48-71.68 0s-20.48-51.2 0-71.68l102.4-102.4c20.48-20.48 51.2-20.48 71.68 0l66.56 66.56 168.96-168.96c20.48-20.48 51.2-20.48 71.68 0s20.48 51.2 0 71.68l-204.8 204.8c-10.24 10.24-20.48 15.36-35.84 15.36z" p-id="1185" fill="#cdcdcd"></path></svg>