<?xml version="1.0" standalone="no"?><!DOCTYPE svg PUBLIC "-//W3C//DTD SVG 1.1//EN" "http://www.w3.org/Graphics/SVG/1.1/DTD/svg11.dtd"><svg t="1559701943695" class="icon" style="" viewBox="0 0 1024 1024" version="1.1" xmlns="http://www.w3.org/2000/svg" p-id="5754" xmlns:xlink="http://www.w3.org/1999/xlink" width="300" height="300"><defs><style type="text/css"></style></defs><path d="M288 544v320a32 32 0 0 0 32 32h544a32 32 0 0 0 32-32V160a32 32 0 0 0-32-32H320a32 32 0 0 0-32 32v320h337.6l-170.176-170.176a32 32 0 0 1 45.248-45.248l226.304 226.24a32 32 0 0 1 0 45.28l-226.304 226.272a32 32 0 0 1-45.248-45.248l173.12-173.12H288z m0-64v-160a32 32 0 1 1-64 0V128a64 64 0 0 1 64-64h608a64 64 0 0 1 64 64v768a64 64 0 0 1-64 64H288a64 64 0 0 1-64-64v-192a32 32 0 0 1 64 0v-160H96a32 32 0 0 1 0-64h192z" fill="#d4237a" p-id="5755"></path></svg>