<?xml version="1.0" standalone="no"?><!DOCTYPE svg PUBLIC "-//W3C//DTD SVG 1.1//EN" "http://www.w3.org/Graphics/SVG/1.1/DTD/svg11.dtd"><svg t="1636015056683" class="icon" viewBox="0 0 1024 1024" version="1.1" xmlns="http://www.w3.org/2000/svg" p-id="7155" xmlns:xlink="http://www.w3.org/1999/xlink" width="1000" height="1000"><defs><style type="text/css"></style></defs><path d="M152.36474609 458.4284668L860.83789063 458.4284668l-1e-8 226.3293457L152.36474609 684.7578125z" fill="#BA0C00" p-id="7156"></path><path d="M900.28979492 182.26513672L124.12548828 182.26513672l0 551.91137695 252.9074707 0-107.55834961 107.55834961 35.29907227 35.29907227 142.85742188-142.85742188 129.15307617 0 142.85742186 142.85742188 35.29907228-35.29907227-107.55834961-107.55834961 252.9074707 0L900.28979492 182.26513672z m-50.24926758 502.49267578L173.95947266 684.7578125 173.95947266 231.68383789l676.08105468 0 0 453.07397461z m-381.64526367-373.75488281L266.15234375 311.00292969l0 210.54858398 202.24291992 0L468.39526367 311.00292969zM561.83398438 341.73388672l199.33593749 0 1e-8-24.91699219-199.33593751 0 1e-8 24.91699219z m0 78.90380859l199.33593749 0 1e-8-24.91699218-199.3359375 0-1e-8 24.91699218z m0 91.36230469l199.33593749 0 1e-8-24.91699219-199.33593751 0 1e-8 24.91699219z m-294.85107422 87.20947266l494.18701171 0 1e-8-24.91699219L266.98291015 574.29248047l1e-8 24.91699219z" fill="#000000" p-id="7157"></path></svg>