<?xml version="1.0" standalone="no"?><!DOCTYPE svg PUBLIC "-//W3C//DTD SVG 1.1//EN" "http://www.w3.org/Graphics/SVG/1.1/DTD/svg11.dtd"><svg t="1585365137308" class="icon" viewBox="0 0 1077 1024" version="1.1" xmlns="http://www.w3.org/2000/svg" p-id="5428" xmlns:xlink="http://www.w3.org/1999/xlink" width="210.3515625" height="200"><defs><style type="text/css"></style></defs><path d="M1022.872513 910.321342H720.09047c-27.401577 0-54.839068-2.873036-54.839068-30.526004v-146.578687h260.997331c17.112519 0 31.118567-21.457985 31.118568-47.638522 0-26.21645-14.006049-47.656479-31.118568-47.656478H665.287315v-78.182483h13.23392H926.248733c17.112519 0 31.118567-21.457985 31.118568-47.656478 0-26.21645-14.006049-47.656479-31.118568-47.656479H665.287315v-96.120999H926.230777c17.112519 0 31.118567-21.422072 31.118567-47.656478 0-26.180537-14.006049-47.656479-31.118567-47.656479H665.251402V145.842472c0-27.670924 22.409678-50.314037 49.73943-50.314037H1010.949415c27.365664 0 49.739429 22.625156 49.73943 50.314037v733.970823c0 27.617055-10.48658 30.508047-37.816332 30.508047z m-478.180869 112.551171l-492.833351-100.735812C25.031323 916.677933 3.0526 889.50979 2.962818 861.856822L0.951693 153.43806c-0.071826-27.652968 21.88894-54.390156 48.841606-59.382056L544.512079 1.903386c26.898796-5.027812 61.985744 10.253146 61.985744 37.924071V985.989918c0 27.652968-35.015122 42.359319-61.842092 36.864639z m-289.242863-578.198422c-19.841902-26.683318-47.18961-40.042934-82.06108-40.042934-34.925339 0-62.291004 13.359616-82.079037 40.042934-17.86669 23.918022-26.809014 53.941244-26.809014 90.087624 0 36.09251 8.942323 66.151646 26.809014 90.033754 19.788033 26.988579 47.153697 40.455933 82.079037 40.455933 34.87147 0 62.219178-13.467355 82.06108-40.455933 17.86669-23.882109 26.791057-53.941244 26.791058-90.033754 0-36.14638-8.924367-66.169602-26.791058-90.087624z m221.977916 83.605337h-2.154777v-1.167171h1.651996l-49.416213-120.362237h-36.307988l-104.30915 255.161478h39.594022l28.425097-70.030244h109.301049l28.46101 70.030244h39.594022l-54.839068-133.63207z m-68.055032-68.988768l40.007022 97.557516h-79.601044l39.594022-97.557516zM173.387701 629.374369c-23.379328 0-41.407626-10.145407-53.995114-30.436221-11.312578-17.220257-16.968867-38.642329-16.968866-64.176433 0-25.857321 5.530594-47.279393 16.519954-64.230303 12.659313-19.716207 30.759438-29.610224 54.444026-29.610224 23.630718 0 41.784712 9.87606 54.426069 29.610224 10.720014 16.95091 16.089 38.372982 16.088999 64.230303s-5.530594 47.369175-16.501998 64.589432c-12.641357 20.021467-30.651699 30.023222-54.01307 30.023222z" p-id="5429" fill="#dbdbdb"></path></svg>