<?xml version="1.0" standalone="no"?><!DOCTYPE svg PUBLIC "-//W3C//DTD SVG 1.1//EN" "http://www.w3.org/Graphics/SVG/1.1/DTD/svg11.dtd"><svg t="1562834165123" class="icon" viewBox="0 0 1024 1024" version="1.1" xmlns="http://www.w3.org/2000/svg" p-id="2023" xmlns:xlink="http://www.w3.org/1999/xlink" width="400" height="400"><defs><style type="text/css"></style></defs><path d="M680.8 258.2v710.4H193.7V258.2h487.1m20.9-55.3H172.8c-19 0-34.4 15.4-34.4 34.4v752.2c0 19 15.4 34.4 34.4 34.4h528.9c19 0 34.4-15.4 34.4-34.4V237.3c0.1-19-15.4-34.4-34.4-34.4z" p-id="2024"></path><path d="M501.3 346.7H373.2c-15.3 0-27.7-12.4-27.7-27.7s12.4-27.7 27.7-27.7h128.1c15.3 0 27.7 12.4 27.7 27.7s-12.4 27.7-27.7 27.7zM439.2 830.8c-30.6 0-55.3 24.8-55.3 55.3s24.8 55.3 55.3 55.3 55.3-24.8 55.3-55.3-24.7-55.3-55.3-55.3zM782.6 231.6c-15.3 0-27.7-12.4-27.7-27.7 0-11.2-9.5-20.3-21.2-20.3-15.3 0-27.7-12.4-27.7-27.7s12.4-27.7 27.7-27.7c42.2 0 76.6 33.9 76.6 75.7-0.1 15.3-12.4 27.7-27.7 27.7z" p-id="2025"></path><path d="M847.8 231.6c-15.3 0-27.7-12.4-27.7-27.7 0-46.5-38.8-84.3-86.5-84.3-15.3 0-27.7-12.4-27.7-27.7s12.4-27.7 27.7-27.7c78.2 0 141.8 62.6 141.8 139.6 0.1 15.4-12.3 27.8-27.6 27.8z" p-id="2026"></path><path d="M913 231.6c-15.3 0-27.7-12.4-27.7-27.7 0-81.8-68-148.3-151.7-148.3-15.2 0.1-27.6-12.3-27.6-27.6S718.4 0.3 733.7 0.3c55.2 0 107.2 21.1 146.2 59.4 39.2 38.5 60.8 89.7 60.8 144.2 0 15.3-12.4 27.7-27.7 27.7z" p-id="2027"></path></svg>