<?xml version="1.0" standalone="no"?><!DOCTYPE svg PUBLIC "-//W3C//DTD SVG 1.1//EN" "http://www.w3.org/Graphics/SVG/1.1/DTD/svg11.dtd"><svg t="1614330989192" class="icon" viewBox="0 0 1024 1024" version="1.1" xmlns="http://www.w3.org/2000/svg" p-id="2081" xmlns:xlink="http://www.w3.org/1999/xlink" width="700" height="700"><defs><style type="text/css"></style></defs><path d="M1008.608 398.592l-58.912 57.696-161.28-160.192 58.912-57.696c17.92-17.952 46.048-20.512 61.44-5.12l106.208 103.808c14.08 15.36 11.52 43.584-6.368 61.504z m-248.32-75.616l162.56 158.912-386.56 381.952c-1.28 1.28-6.4 6.432-14.048 7.68-1.28 0-1.28 0-2.592 1.28L317.44 935.616c-5.152 1.248-11.52 1.248-15.392-2.592-3.808-3.84-5.088-8.96-2.56-15.392l64.032-198.624c0-1.248 0-1.248 1.28-2.56 1.28-6.432 6.368-14.112 8.896-15.36l74.24-67.936H202.24c-10.24 0-19.264-11.552-19.264-20.512 0-10.272 8.992-21.824 19.264-21.824h284.096l273.952-267.84z m-273.952 528.032l-99.808-98.688-26.88 83.328 42.208 42.304 84.48-26.944z m268.832-465.216a15.616 15.616 0 0 0-20.512 0l-303.328 297.344c-6.4 5.12-6.4 15.36 0 20.512 5.12 5.12 15.36 5.12 20.48 0l302.048-297.344c6.432-5.152 6.432-14.112 1.312-20.512zM80.672 966.368c-10.24 0-20.48-3.872-20.48-14.112V142.272c-1.312-19.2 11.488-15.36 25.568-15.36h70.4v26.912c0 10.272 11.488 19.264 23.04 19.264 10.24 0 23.072-8.96 23.072-19.264v-26.912H307.2v26.912c0 10.272 11.488 19.264 23.04 19.264 10.272 0 23.072-8.96 23.072-19.264v-26.912h96v26.912c0 10.272 11.456 19.264 23.04 19.264 10.24 0 23.04-8.96 23.04-19.264v-26.912h96v26.912c0 10.272 11.52 19.264 23.072 19.264 10.272 0 23.072-8.96 23.072-19.264v-26.912h80.64c10.208 0 16.64 5.12 16.64 15.36v133.28l58.912-57.664V142.272c0-42.272-32-73.056-75.52-73.056H636.16V19.264c0-10.304-11.52-19.264-23.04-19.264-10.24 0-23.04 8.96-23.04 19.264v49.984h-96V19.264c0-10.304-11.52-19.264-23.04-19.264-10.304 0-23.04 8.96-23.04 19.264v49.984h-96V19.264C352 8.96 340.512 0 328.928 0c-10.24 0-23.04 8.96-23.04 19.264v49.984h-104.96V19.264C200.928 8.96 189.44 0 177.888 0c-10.24 0-23.008 8.96-23.008 19.264v49.984H85.76C28.16 69.216 0 99.968 0 142.24v808.704C0 993.248 38.368 1024 81.952 1024H716.8c43.488 0 75.456-30.752 75.456-73.024v-279.392l-58.848 57.696v222.976c0 10.272-6.432 14.08-16.64 14.08M583.616 288.384H200.928c-10.24 0-17.92 12.8-17.92 21.792 0 10.24 7.68 21.792 17.92 21.792h382.688c10.272 0 17.952-12.8 17.952-21.792s-7.648-21.792-17.952-21.792z m0 147.36H200.928c-10.24 0-17.92 12.8-17.92 21.792 0 10.272 7.68 21.792 17.92 21.792h382.688c10.272 0 17.952-12.8 17.952-21.792s-7.648-21.792-17.952-21.792z m0 0" p-id="2082" fill="#8a8a8a"></path></svg>