<?xml version="1.0" standalone="no"?><!DOCTYPE svg PUBLIC "-//W3C//DTD SVG 1.1//EN" "http://www.w3.org/Graphics/SVG/1.1/DTD/svg11.dtd"><svg t="1590033377192" class="icon" viewBox="0 0 1024 1024" version="1.1" xmlns="http://www.w3.org/2000/svg" p-id="5321" xmlns:xlink="http://www.w3.org/1999/xlink" width="200" height="200"><defs><style type="text/css"></style></defs><path d="M275.2 582.4 275.2 640l211.2 0 0 153.6 0 0 0 0L486.4 832l57.6 0 0-38.4 0 0 0 0L544 640l211.2 0L755.2 582.4 537.6 582.4 537.6 473.6l211.2 0L748.8 416 582.4 416 704 294.4l-38.4-38.4L512 403.2 358.4 249.6 320 294.4l121.6 121.6L275.2 416l0 57.6 211.2 0 0 115.2L275.2 582.4 275.2 582.4z" p-id="5322" fill="#cdcdcd"></path><path d="M512 64c243.2 0 448 198.4 448 448s-198.4 448-448 448-448-198.4-448-448S262.4 64 512 64M512 0C230.4 0 0 230.4 0 512s230.4 512 512 512 512-230.4 512-512S793.6 0 512 0L512 0z" p-id="5323" fill="#cdcdcd"></path></svg>