<?xml version="1.0" standalone="no"?><!DOCTYPE svg PUBLIC "-//W3C//DTD SVG 1.1//EN" "http://www.w3.org/Graphics/SVG/1.1/DTD/svg11.dtd"><svg t="1558576355239" class="icon" style="" viewBox="0 0 1024 1024" version="1.1" xmlns="http://www.w3.org/2000/svg" p-id="24100" xmlns:xlink="http://www.w3.org/1999/xlink" width="300" height="300"><defs><style type="text/css"></style></defs><path d="M406.6 330.5m-176.6 0a176.6 176.6 0 1 0 353.2 0 176.6 176.6 0 1 0-353.2 0Z" p-id="24101"></path><path d="M491.2 517.1H352.4C191.7 517.1 61.5 647.3 61.5 808c0 48.5 39.4 87.9 87.9 87.9h528.2c38.1 0 69-30.9 69-69v-54.4c0-141-114.4-255.4-255.4-255.4zM605.8 329.1c0 46.7-17 89.4-45.2 122.3-3.3 3.8-3.1 9.5 0.4 13.2 24.4 25.3 58.7 41 96.6 41 74.6 0 135-60.7 134.5-135.4-0.5-73-59.9-132.7-132.9-133.5-20.6-0.2-40.1 4.1-57.6 12.2-6.2 2.9-9.3 10-7 16.4 7.3 19.8 11.2 41.3 11.2 63.8z" p-id="24102"></path><path d="M681.8 527.5H643c-7.9 0-10.8 10.4-4 14.5 77.3 45.9 129.1 130.2 129.1 226.7v56.1c0 15.1-4.7 29.1-12.8 40.7-3.6 5.1 0 12.2 6.3 12.2H854c35.2 0 63.8-28.6 63.8-63.8v-50.2c0-130.5-105.7-236.2-236-236.2z" p-id="24103"></path></svg>