<?xml version="1.0" standalone="no"?><!DOCTYPE svg PUBLIC "-//W3C//DTD SVG 1.1//EN" "http://www.w3.org/Graphics/SVG/1.1/DTD/svg11.dtd"><svg t="1617352169077" class="icon" viewBox="0 0 1024 1024" version="1.1" xmlns="http://www.w3.org/2000/svg" p-id="8447" xmlns:xlink="http://www.w3.org/1999/xlink" width="700" height="700"><defs><style type="text/css"></style></defs><path d="M1008 670.72v-128c0-58.88-48-106.56-106.56-106.56H368V393.6c0-52.8-43.2-96-96-96h-192V148.16c0-17.6-14.4-32-32-32s-32 14.4-32 32v501.12c0 45.12 28.16 83.52 67.84 99.2l-41.28 116.48a32.352 32.352 0 0 0 30.08 42.88c13.12 0 25.6-8.32 30.08-21.44l46.08-130.24h725.76l46.08 130.24c4.8 13.12 16.96 21.44 30.08 21.44a32.096 32.096 0 0 0 30.08-42.88l-39.36-111.36c38.4-8.64 66.56-42.24 66.56-82.88z m-928-309.12h192c17.6 0 32 14.4 32 32v42.56h-224V361.6z m864 309.12c0 11.84-9.6 21.44-21.44 21.44h-800c-23.68 0-42.56-19.2-42.56-42.56v-149.44h821.44c23.68 0 42.56 19.2 42.56 42.56v128z" p-id="8448" fill="#8a8a8a"></path></svg>