<?xml version="1.0" standalone="no"?><!DOCTYPE svg PUBLIC "-//W3C//DTD SVG 1.1//EN" "http://www.w3.org/Graphics/SVG/1.1/DTD/svg11.dtd"><svg t="1620895178672" class="icon" viewBox="0 0 1024 1024" version="1.1" xmlns="http://www.w3.org/2000/svg" p-id="76105" xmlns:xlink="http://www.w3.org/1999/xlink" width="500" height="500"><defs><style type="text/css"></style></defs><path d="M602.692267 9.728v93.184c121.412267 0.648533 242.824533-1.365333 364.885333 0.648533a39.7312 39.7312 0 0 1 44.168533 44.1344c1.877333 229.376 0 458.8544 1.092267 688.2304-1.092267 23.483733 2.218667 49.5616-11.025067 70.417067-13.312 9.693867-29.696 10.922667-45.6704 11.0592H602.897067v93.115733h-71.304534C358.4 978.6368 184.900267 948.9408 11.400533 917.845333V103.1168c174.3872-31.232 348.8768-61.610667 523.264-93.3888h68.027734zM977.92 137.762133H602.692267v745.1648H977.92V137.796267z" fill="#F05C5C" p-id="76106"></path><path d="M642.525867 527.633067h295.697066v46.557866h-295.697066v-46.557866z m0 80.008533h295.697066v46.592h-295.697066v-46.592z m0 80.042667h295.697066v46.557866h-295.697066v-46.557866z m-48.0256 80.008533h343.722666v46.592h-343.722666V767.658667z" fill="#F05C5C" p-id="76107"></path><path d="M364.612267 340.855467c45.909333 57.173333 33.792 162.133333-34.338134 196.266666-24.1664 12.6976-51.985067 11.025067-78.267733 10.0352v128.034134l-64-5.393067a20507.4432 20507.4432 0 0 1 0-349.7984c57.924267 2.730667 128-23.517867 176.605867 20.855467z" fill="#FFFFFF" p-id="76108"></path><path d="M312.7296 394.274133a80.554667 80.554667 0 0 1 1.4336 71.645867c-12.151467 22.084267-39.6288 20.309333-60.928 22.869333-2.218667-36.522667-2.013867-73.079467-1.672533-109.738666 20.992-0.989867 47.035733-4.949333 61.166933 15.223466z m564.701867-13.1072a82.1248 82.1248 0 0 1-47.274667-19.217066c-25.941333 5.802667-51.370667 13.960533-75.912533 24.2688-19.8656 35.2256-38.2976 53.213867-54.306134 53.213866a16.9984 16.9984 0 0 1-9.6256-2.525866 18.978133 18.978133 0 0 1-11.025066-17.339734c0-5.7344 1.3312-22.084267 61.917866-48.0256 13.789867-25.361067 25.122133-51.950933 33.8944-79.4624-7.748267-15.36-24.302933-53.111467-12.8-72.2944a20.206933 20.206933 0 0 1 19.7632-10.274133 21.4016 21.4016 0 0 1 16.657067 8.2944c8.260267 11.025067 7.611733 35.84-3.208533 71.714133a192.6144 192.6144 0 0 0 39.8336 51.336534c13.243733-2.730667 26.692267-4.1984 40.209066-4.437334 30.037333 0.682667 34.542933 14.677333 33.860267 23.108267 0 22.050133-21.060267 22.050133-31.880533 22.050133l-0.1024-0.4096z m-178.722134 40.618667c9.4208-2.730667 17.646933-8.533333 23.415467-16.452267a55.1936 55.1936 0 0 0-25.6 16.9984l2.184533-0.546133z m86.971734-195.2768a4.3008 4.3008 0 0 0-2.730667 0.682667c-2.389333 11.1616-0.955733 22.8352 4.096 33.109333 3.959467-10.888533 4.232533-22.766933 0.750933-33.792h-2.116266z m-1.6384 94.9248l-0.682667-0.682667c-5.290667 14.0288-11.025067 27.8528-17.646933 41.403734l1.092266-0.682667v1.467733c12.834133-4.9152 25.941333-9.045333 39.3216-12.356266l-0.682666-0.546134h1.774933a191.965867 191.965867 0 0 1-23.210667-29.832533v1.2288z m92.501333 32.768a64.682667 64.682667 0 0 0-17.783467 1.672533c6.280533 3.652267 13.312 5.870933 20.514134 6.485334a25.4976 25.4976 0 0 0 13.585066-1.536c-0.443733-2.525867-3.208533-6.621867-16.759466-6.621867h0.443733z" fill="#F05C5C" p-id="76109"></path></svg>