<?xml version="1.0" standalone="no"?><!DOCTYPE svg PUBLIC "-//W3C//DTD SVG 1.1//EN" "http://www.w3.org/Graphics/SVG/1.1/DTD/svg11.dtd"><svg t="1602751842579" class="icon" viewBox="0 0 1024 1024" version="1.1" xmlns="http://www.w3.org/2000/svg" p-id="2901" xmlns:xlink="http://www.w3.org/1999/xlink" width="200" height="200"><defs><style type="text/css"></style></defs><path d="M781.274 170.667c39.803 0 72.06 31.838 72.06 71.11V763.26c0 39.273-32.257 71.111-72.06 71.111H637.156c-39.804 0-72.06-31.838-72.06-71.11l-0.019-118.52h-95.895c-10.961 0-21.05 3.774-29.09 10.089 31.422 15.588 52.945 47.673 52.945 84.727 0 52.356-43.008 94.814-96.085 94.814-53.059 0-96.067-42.458-96.067-94.814 0-48.963 37.604-89.26 85.865-94.284a94.568 94.568 0 0 1 82.432-48.564l95.895-0.02v-70.466h-243.2c-10.676 40.903-48.298 71.111-93.05 71.111-53.078 0-96.086-42.458-96.086-94.814s43.008-94.815 96.085-94.815c44.753 0 82.394 30.227 93.051 71.11h243.2v-46.78h-95.895c-44.81 0-82.357-31.48-92.255-73.805-43.425-9.083-76.042-47.16-76.042-92.748 0-52.356 43.008-94.814 96.067-94.814 53.077 0 96.085 42.458 96.085 94.814 0 42.364-28.141 78.223-66.996 90.397A47.313 47.313 0 0 0 469.18 384l95.896-0.019 0.02-142.203c0-39.273 32.255-71.111 72.059-71.111h144.118z m0 47.407H637.156c-13.275 0-24.027 10.62-24.027 23.704v521.481c0 13.085 10.752 23.704 24.027 23.704h144.118c13.274 0 24.026-10.62 24.026-23.704V241.778c0-13.085-10.752-23.704-24.026-23.704zM404.67 692.755h-15.436c-22.87 3.64-40.315 23.21-40.315 46.8 0 26.17 21.504 47.408 48.033 47.408 26.548 0 48.052-21.239 48.052-47.407 0-23.59-17.446-43.16-40.315-46.801zM228.845 455.111c-26.548 0-48.052 21.239-48.052 47.408s21.523 47.407 48.052 47.407c26.53 0 48.033-21.239 48.033-47.407s-21.523-47.408-48.052-47.408z m168.126-237.037c-26.53 0-48.034 21.239-48.034 47.407s21.504 47.408 48.034 47.408c26.548 0 48.052-21.239 48.052-47.408s-21.523-47.407-48.052-47.407z" p-id="2902" fill="#cdcdcd"></path></svg>