<?xml version="1.0" standalone="no"?><!DOCTYPE svg PUBLIC "-//W3C//DTD SVG 1.1//EN" "http://www.w3.org/Graphics/SVG/1.1/DTD/svg11.dtd"><svg t="1558575248904" class="icon" style="" viewBox="0 0 1024 1024" version="1.1" xmlns="http://www.w3.org/2000/svg" p-id="11025" xmlns:xlink="http://www.w3.org/1999/xlink" width="300" height="300"><defs><style type="text/css"></style></defs><path d="M5.3 337.5l64.1 50.1L9.1 503.1c-30.2 53.3 21.7 105.2 54.7 123.3 32.5 17.8 83 19.9 130.1 19.3L278.7 507l64.1 34.7-111.2-206.1-226.3 1.9z" fill="#FF9623" p-id="11026"></path><path d="M14.7 620.4l137.6 254.3C180 910 232.2 918.3 286.2 917h145.2V676.3l-275.3-1.9c-42.7 2.5-98.6-6.5-141.4-54z" fill="#FF9623" p-id="11027"></path><path d="M880.6 151.8l-74.9 31.8-71.8-108.8c-32-52.2-102.5-32.1-134.3-11.9-31.3 19.8-57.6 62.9-79.9 104.4l80.2 141.4-61.5 39.3 234.2 2.6 108-198.8z" fill="#00A9BA" p-id="11028"></path><path d="M628.6 22.9L339.5 20c-44.3 7.1-76.9 48.6-102 96.5l-70.4 127 210.6 116.7 135.1-239.8c18.6-38.6 53.5-83.2 115.8-97.5z" fill="#00A9BA" p-id="11029"></path><path d="M641.2 1004l8.5-80.9 130-10.1c61.2-2.7 77.7-74.1 75.6-111.7-2.1-37-27.1-80.9-52.6-120.5l-162.6 1.5-4.6-72.7-115.8 203.6L641.2 1004z" fill="#626264" p-id="11030"></path><path d="M876.1 846.1l142.7-251.5c15.3-42.2-5.3-90.8-35-136l-76.9-123.1-204.2 127.6 144.2 234.4c24.8 35 46.9 87.2 29.2 148.6z" fill="#626264" p-id="11031"></path></svg>