<?xml version="1.0" standalone="no"?><!DOCTYPE svg PUBLIC "-//W3C//DTD SVG 1.1//EN" "http://www.w3.org/Graphics/SVG/1.1/DTD/svg11.dtd"><svg t="1585724760335" class="icon" viewBox="0 0 1024 1024" version="1.1" xmlns="http://www.w3.org/2000/svg" p-id="2895" xmlns:xlink="http://www.w3.org/1999/xlink" width="300" height="300"><defs><style type="text/css"></style></defs><path d="M36.608 310.6816a36.608 36.608 0 1 1 0-73.216h220.1088a256 256 0 0 1 510.6176 0h220.0576a36.608 36.608 0 1 1 0 73.216h-76.288l-62.9248 608.6144C841.9328 978.944 794.9824 1024 739.1232 1024H284.8256c-55.8592 0-102.8096-45.056-108.9536-104.704L112.7424 310.6816H36.608z m212.0192 599.9616c1.3824 19.1488 16.9984 34.2528 36.2496 34.8672h454.2464a37.5808 37.5808 0 0 0 36.352-34.8672L837.632 310.6816H186.368l62.3104 599.9616z m445.3376-673.1264a182.8352 182.8352 0 0 0-363.8784 0h363.8272z m-64.9216 566.9376l-43.8784-73.1136h53.504l-63.3856-109.7728 41.472-74.5472 116.992 202.5984a36.5568 36.5568 0 0 1-31.744 54.8352h-72.9088z m-73.1136 0h-233.984a36.5568 36.5568 0 0 1-31.6928-54.8352l36.5056-63.1808 85.2992-1.4848-26.7776 46.3872H512l43.8784 73.1136z m24.2688-320.8192l-41.472 74.6496L512 511.8976 448.6144 621.568l-85.1968 1.536L480.256 420.352a36.5568 36.5568 0 0 1 63.3856 0l36.5568 63.2832z" p-id="2896" fill="#dbdbdb"></path></svg>