<?xml version="1.0" standalone="no"?><!DOCTYPE svg PUBLIC "-//W3C//DTD SVG 1.1//EN" "http://www.w3.org/Graphics/SVG/1.1/DTD/svg11.dtd"><svg t="1560139850327" class="icon" style="" viewBox="0 0 1024 1024" version="1.1" xmlns="http://www.w3.org/2000/svg" p-id="5502" xmlns:xlink="http://www.w3.org/1999/xlink" width="300" height="300"><defs><style type="text/css"></style></defs><path d="M1004.470857 8.265143a45.860571 45.860571 0 0 0-47.177143-3.145143L24.722286 487.716571A45.787429 45.787429 0 0 0 25.088 569.051429l226.011429 114.102857a45.787429 45.787429 0 0 0 41.252571-81.700572L146.212571 527.798857l655.506286-339.236571c-89.892571 108.982857-222.134857 268.580571-292.425143 349.622857-106.422857 122.660571-120.758857 221.476571-120.758857 301.860571v138.24a45.714286 45.714286 0 1 0 91.428572 0v-138.24c0-62.171429 7.606857-137.289143 98.377142-241.956571 82.651429-95.305143 249.490286-297.325714 334.701715-400.822857l-85.357715 674.377143-202.825142-102.326858a45.787429 45.787429 0 0 0-41.179429 81.700572l260.608 131.437714a46.006857 46.006857 0 0 0 42.057143-0.438857 45.714286 45.714286 0 0 0 23.917714-34.596571l113.371429-896a45.641143 45.641143 0 0 0-19.163429-43.154286z" fill="#474F5F" p-id="5503"></path></svg>