<?xml version="1.0" standalone="no"?><!DOCTYPE svg PUBLIC "-//W3C//DTD SVG 1.1//EN" "http://www.w3.org/Graphics/SVG/1.1/DTD/svg11.dtd"><svg t="1589456850395" class="icon" viewBox="0 0 1024 1024" version="1.1" xmlns="http://www.w3.org/2000/svg" p-id="3160" xmlns:xlink="http://www.w3.org/1999/xlink" width="200" height="200"><defs><style type="text/css"></style></defs><path d="M912.939555 292.651246L556.245713 118.161167c-25.713638-12.576433-62.96403-12.576433-88.557941 0L111.00621 292.664549c-21.363564 10.471492-34.120099 29.283953-34.112936 50.347689 0.007163 20.983917 12.763698 39.755446 34.120099 50.200332l356.674399 174.463474c12.843516 6.288217 28.577872 9.432837 44.305065 9.419533 15.721053 0 31.442106-3.131317 44.245713-9.419533L912.946718 393.185964c21.390169-10.444886 34.160008-29.244045 34.160008-50.307779 0-20.996197-12.769838-39.768749-34.167171-50.226939z m-11.976776 76.020395L544.234145 543.175023c-18.078751 8.846482-46.436612 8.859785-64.556295-0.013303l-356.674398-174.463473c-11.963473-5.849218-18.825764-15.214517-18.825764-25.700336 0-10.391674 7.034207-20.050662 18.825764-25.820062L479.70548 142.662187c9.026584-4.436032 20.617573-6.661723 32.221865-6.661723 11.617595 0 23.248494 2.224668 32.321127 6.675026l356.708167 174.49008c11.991102 5.862521 18.865673 15.22782 18.865673 25.713638-0.001023 10.391674-7.049556 20.024056-18.859533 25.792433z" p-id="3161" fill="#cdcdcd"></path><path d="M544.260751 712.682625c-18.078751 8.859785-46.443775 8.846482-64.562434-0.013303l-356.674399-174.463474-11.991102 24.514324 356.674399 174.463473c12.843516 6.288217 28.577872 9.419534 44.305065 9.419534 15.728216 0 31.442106-3.131317 44.251853-9.419534l356.687702-174.490079-11.991102-24.514324-356.699982 174.503383z" p-id="3162" fill="#cdcdcd"></path><path d="M544.260751 881.351116c-18.078751 8.846482-46.443775 8.859785-64.562434-0.013303l-356.674399-174.463474-11.991102 24.514323 356.674399 174.463474c12.843516 6.288217 28.577872 9.419534 44.305065 9.419534 15.728216 0 31.442106-3.131317 44.251853-9.419534l356.687702-174.490079-11.991102-24.514324-356.699982 174.503383z" p-id="3163" fill="#cdcdcd"></path></svg>