<?xml version="1.0" standalone="no"?><!DOCTYPE svg PUBLIC "-//W3C//DTD SVG 1.1//EN" "http://www.w3.org/Graphics/SVG/1.1/DTD/svg11.dtd"><svg t="1558517527671" class="icon" style="" viewBox="0 0 1024 1024" version="1.1" xmlns="http://www.w3.org/2000/svg" p-id="10509" xmlns:xlink="http://www.w3.org/1999/xlink" width="200" height="200"><defs><style type="text/css"></style></defs><path d="M1020.109 924.467l-77.21-77.21c43.827-41.95 71.236-100.932 71.236-166.263 0-127.18-103.355-230.536-230.604-230.536-127.113 0-230.571 103.355-230.571 230.536 0 127.215 103.458 230.57 230.57 230.57 52.532 0 100.728-17.714 139.572-47.308 0.478 0.649 0.273 1.331 0.785 1.877l77.278 77.38c2.662 2.526 6.007 3.858 9.386 3.858 3.516 0 6.861-1.332 9.455-3.857 5.291-5.325 5.291-13.859 0.103-19.047z m-236.647-39.663c-112.264 0-203.707-91.477-203.707-203.81s91.443-203.742 203.707-203.742c112.367 0 203.81 91.41 203.81 203.742s-91.443 203.81-203.81 203.81z m-250.538-203.98c0-137.148 111.547-248.764 248.73-248.764 45.909 0 88.678 12.697 125.644 34.44V244.804c0-75.195-60.962-136.123-136.09-136.123H136.125C60.928 108.715 0 169.609 0 244.804v486.57c0 75.197 60.928 136.022 136.124 136.022h481.69c-51.917-45.534-84.89-112.23-84.89-186.573z m-95.3-161.485h-273.17a11.304 11.304 0 0 1-11.332-11.333c0-6.28 5.052-11.332 11.332-11.332H437.59a11.283 11.283 0 0 1 11.333 11.332c0 6.28-5.018 11.333-11.299 11.333z m0-88.44h-273.17c-6.28 0-11.332-5.052-11.332-11.332s5.052-11.366 11.332-11.366H437.59c6.315 0 11.333 5.085 11.333 11.366s-5.018 11.332-11.299 11.332z m0-88.542h-273.17a11.304 11.304 0 0 1-11.332-11.332c0-6.246 5.052-11.366 11.332-11.366H437.59c6.315 0 11.333 5.086 11.333 11.366 0.034 6.246-5.018 11.332-11.299 11.332z m84.07-88.44h-357.24c-6.28 0-11.332-5.085-11.332-11.366s5.052-11.332 11.332-11.332h357.24c6.315 0 11.332 5.052 11.332 11.332s-5.052 11.367-11.332 11.367z" p-id="10510"></path></svg>