<?xml version="1.0" standalone="no"?><!DOCTYPE svg PUBLIC "-//W3C//DTD SVG 1.1//EN" "http://www.w3.org/Graphics/SVG/1.1/DTD/svg11.dtd"><svg t="1588830053835" class="icon" viewBox="0 0 1024 1024" version="1.1" xmlns="http://www.w3.org/2000/svg" p-id="4284" xmlns:xlink="http://www.w3.org/1999/xlink" width="200" height="200"><defs><style type="text/css"></style></defs><path d="M930.816 1012.736H248.32c-46.08 0-82.944-37.376-82.944-82.944V247.296c0-46.08 37.376-82.944 82.944-82.944h681.984c46.08 0 82.944 37.376 82.944 82.944v681.984c0.512 46.08-36.864 83.456-82.432 83.456zM248.32 227.84c-10.752 0-19.456 8.704-19.456 19.456v681.984c0 10.752 8.704 19.456 19.456 19.456h681.984c10.752 0 19.456-8.704 19.456-19.456V247.296c0-10.752-8.704-19.456-19.456-19.456H248.32z" p-id="4285" fill="#dbdbdb"></path><path d="M168.96 856.576c-87.552 0-158.72-71.168-158.72-158.72V91.648c0-46.08 37.376-82.944 82.944-82.944h606.72c87.552 0 158.72 71.168 158.72 158.72h-64c0-52.224-42.496-94.72-94.72-94.72H93.184c-10.752 0-19.456 8.704-19.456 19.456v606.72c0 52.224 42.496 94.72 94.72 94.72v62.976z" p-id="4286" fill="#dbdbdb"></path><path d="M415.744 570.88c-37.376-24.576-54.784-36.352-54.784-51.2 0-15.36 14.336-15.872 22.528-15.36 8.704 0.512 71.168 0.512 71.168 0.512V455.68H359.424c-15.872 0-47.104 18.432-55.808 48.128-5.632 20.48 2.56 40.448 4.096 44.544 2.56 6.144 7.168 15.36 19.968 28.16 34.816 35.84 72.704 41.472 77.312 64 0.512 2.048 1.536 7.68-1.536 12.8-4.096 6.656-13.312 9.216-19.456 9.216H302.592v51.2s59.392 0.512 94.72 0 64.512-29.696 64.512-64.512-9.216-53.76-46.08-78.336zM606.72 451.072c-71.68 0-130.048 59.904-130.048 133.632 0 54.784 31.744 103.424 81.408 123.904l17.92-43.52c-31.744-13.312-52.736-45.056-52.736-80.896 0-47.616 37.376-86.528 83.456-86.528s83.456 38.912 83.456 86.528c0 35.84-20.992 67.072-51.712 80.384v-46.592h-46.592v152.064h46.592v-56.32c58.368-14.848 98.816-67.584 98.816-129.536-0.512-73.216-58.88-133.12-130.56-133.12zM829.44 665.088c-14.336 0-26.112-11.776-26.112-26.112V455.68h-46.592v183.296c0 39.936 32.768 72.704 72.704 72.704h47.104v-46.592H829.44z" p-id="4287" fill="#dbdbdb"></path></svg>