<?xml version="1.0" standalone="no"?><!DOCTYPE svg PUBLIC "-//W3C//DTD SVG 1.1//EN" "http://www.w3.org/Graphics/SVG/1.1/DTD/svg11.dtd"><svg t="1611284441010" class="icon" viewBox="0 0 1024 1024" version="1.1" xmlns="http://www.w3.org/2000/svg" p-id="12555" xmlns:xlink="http://www.w3.org/1999/xlink" width="700" height="700"><defs><style type="text/css"></style></defs><path d="M683.173 576.357l-30.026-30.537c0.46-4.494 0.664-9.141 0.664-13.839s-0.204-9.243-0.664-13.839l29.975-30.537c9.09-5.26 12.205-16.852 6.996-25.941l-28.494-49.38c-5.26-9.09-16.852-12.205-25.941-6.996l-41.465 10.673a143.114 143.114 0 0 0-23.95-13.839l-11.439-41.159c0-10.468-8.528-18.996-18.996-18.996h-57.091c-10.468 0-18.996 8.528-18.996 18.996l-11.439 41.261c-8.477 3.83-16.494 8.528-23.95 13.839l-41.465-10.673c-9.09-5.26-20.681-2.094-25.941 6.996l-28.392 49.38c-5.26 9.09-2.094 20.681 6.996 25.941l29.975 30.537c-0.46 4.494-0.664 9.141-0.664 13.839 0 4.647 0.204 9.243 0.664 13.839l-29.975 30.537c-9.09 5.26-12.205 16.852-6.996 25.941l28.494 49.38c5.26 9.09 16.852 12.205 25.941 6.996l41.465-10.673a143.114 143.114 0 0 0 23.95 13.839l11.439 41.261c0 10.468 8.528 18.996 18.996 18.996h57.04c10.468 0 18.996-8.528 18.996-18.996l11.439-41.261c8.477-3.83 16.494-8.528 23.95-13.839l41.414 10.673c9.09 5.26 20.681 2.094 25.941-6.996l28.494-49.38c5.208-9.141 2.144-20.784-6.945-26.043z m-171.835 22.162c-36.716 0-66.538-29.822-66.538-66.538s29.822-66.538 66.538-66.538 66.538 29.822 66.538 66.538c-0.102 36.767-29.822 66.538-66.538 66.538z" p-id="12556"></path><path d="M97.838 77.826h828.347c18.866 0 34.134 15.492 34.134 34.158v684.718c0 18.398-15.268 33.889-34.134 33.889H97.838c-18.888 0-34.158-15.492-34.158-33.889V111.984c0.001-18.666 15.27-34.158 34.158-34.158z m324.543 98.829c-18.396 0-33.889 15.514-33.889 33.912 0 18.89 15.493 34.404 33.889 34.404 19.159 0 34.404-15.514 34.404-34.404-0.001-18.398-15.245-33.912-34.404-33.912z m-109.962 0c-18.866 0-34.135 15.514-34.135 33.912 0 18.89 15.27 34.404 34.135 34.404 18.89 0 34.404-15.514 34.404-34.404 0-18.398-15.514-33.912-34.404-33.912z m-109.939 0c-18.91 0-34.404 15.514-34.404 33.912 0 18.89 15.493 34.404 34.404 34.404 18.645 0 33.889-15.514 33.889-34.404 0-18.398-15.244-33.912-33.889-33.912z m689.77 139.269h-760.5v446.375h760.5V315.924z m-760.5-41.177h760.5V146.119h-760.5v128.628z" p-id="12557"></path></svg>