<?xml version="1.0" standalone="no"?><!DOCTYPE svg PUBLIC "-//W3C//DTD SVG 1.1//EN" "http://www.w3.org/Graphics/SVG/1.1/DTD/svg11.dtd"><svg t="1634527886268" class="icon" viewBox="0 0 1024 1024" version="1.1" xmlns="http://www.w3.org/2000/svg" p-id="40471" xmlns:xlink="http://www.w3.org/1999/xlink" width="700" height="700"><defs><style type="text/css"></style></defs><path d="M988.1 687.3l-34-1.2s-12.1-31.3-16.4-39.2l24.3-21.7c13.1-13.1 13.1-35.9 0-49l-32.7-32.7c-13.1-13.1-35.9-13.1-49 0l-26.1 26.1c-13.1-6.5-26.1-13.1-39.2-16.3v-35.9c0-19.6-16.3-32.7-32.7-32.7h-45.7c-19.6 0-32.7 16.3-32.7 32.7v35.9c-13.1 3.3-26.1 9.8-39.2 16.3l-22.9-26.1c-13.1-13.1-35.9-13.1-49 0L560 576.2c-13.1 13.1-13.1 35.9 0 49l26.1 26.1c-6.5 13.1-13.1 26.1-16.3 39.2h-35.9c-19.6 0-32.7 16.3-32.7 32.7v45.7c0 19.6 16.3 32.7 32.7 32.7h35.9c3.3 13.1 9.8 26.1 16.3 39.2L560 867c-13.1 13.1-13.1 35.9 0 49l32.7 32.7c13.1 13.1 35.9 13.1 49 0l26.1-26.1c13.1 6.5 26.1 13.1 39.2 16.3v35.9c0 19.6 16.3 32.7 32.7 32.7h45.7c19.6 0 32.7-16.3 32.7-32.7v-35.9c13.1-3.3 26.1-9.8 39.2-16.3l26.1 26.1c13.1 13.1 35.9 13.1 49 0l32.7-32.7c13.1-13.1 13.1-35.9 0-49L939 840.8c6.5-13.1 13.1-26.1 16.3-39.2h35.9c19.6 0 32.7-16.3 32.7-32.7v-45.7c0.1-19.6-16.2-35.9-35.8-35.9zM762.6 837.6c-49 0-91.5-42.5-91.5-91.5s42.5-91.5 91.5-91.5 91.5 42.5 91.5 91.5-42.5 91.5-91.5 91.5z" fill="#6992FF" p-id="40472"></path><path d="M422.9 972.4H83.8c-47 0-83.8-36.8-83.8-83.8V100.4C0 55 38.4 16.6 83.8 16.6h681.3c47 0 83.8 36.8 83.8 83.8V406c0 17.6-14.3 31.9-31.9 31.9-17.6 0-31.9-14.3-31.9-31.9V100.4c0-9.8-7-20.1-20.1-20.1H83.8c-9.9 0-20.1 10.1-20.1 20.1v788.3c0 9.7 7 20 20.1 20h339.1c17.6 0 31.9 14.3 31.9 31.9s-14.3 31.8-31.9 31.8z" fill="#6992FF" p-id="40473"></path><path d="M437.8 768.9v-45.7c0-3.1 1.2-6 2.1-9H158.1c-7.6 0-14.9 3.3-20.4 9.3-5.4 6-8.4 14.1-8.4 22.6s3.1 16.6 8.5 22.5c5.4 6 12.7 9.3 20.3 9.2H440c-0.5-1.8-1.3-3.4-1.5-5.3-0.2-1.2-0.7-2.2-0.7-3.6zM166.3 529.1c-7.5 0-15-2.6-21-7.9-13.2-11.6-14.6-31.7-3-45l148.8-169.6c10.8-12.1 26.1-19.2 42.1-19.5 15.7 0.6 31.4 6 42.5 17.5l99 102.5 184.9-195.3c12.2-12.8 32.3-13.4 45.1-1.2 12.8 12.1 13.3 32.3 1.2 45.1l-189.3 200c-10.7 11.3-25.8 17.9-41.4 18-15.8 0-30.9-6.4-41.7-17.5l-98.9-102.4-144.4 164.5c-6.3 7.2-15.1 10.8-23.9 10.8z" fill="#6992FF" p-id="40474"></path></svg>