<?xml version="1.0" standalone="no"?><!DOCTYPE svg PUBLIC "-//W3C//DTD SVG 1.1//EN" "http://www.w3.org/Graphics/SVG/1.1/DTD/svg11.dtd"><svg t="1606789633091" class="icon" viewBox="0 0 1024 1024" version="1.1" xmlns="http://www.w3.org/2000/svg" p-id="2948" width="700" height="700" xmlns:xlink="http://www.w3.org/1999/xlink"><defs><style type="text/css"></style></defs><path d="M883.84 766.56h-17.52c-0.32 0-0.72-0.08-1.04-0.08a157.344 157.344 0 0 1-11.04 26.16l11.36 11.2a46.888 46.888 0 0 1 0.08 66.8 48.216 48.216 0 0 1-67.6-0.08l-11.28-11.12a164.8 164.8 0 0 1-27.44 11.28v17.68a48.12 48.12 0 0 1-96.24 0v-17.28a2.464 2.464 0 0 1 0.08-0.8 159.544 159.544 0 0 1-26.4-10.96l-11.68 11.52a48.216 48.216 0 0 1-67.6 0.08 46.912 46.912 0 0 1 0.08-66.88l11.76-11.68a158.176 158.176 0 0 1-11.04-26.24c-0.24 0-0.48 0.08-0.72 0.08h-17.52a47.52 47.52 0 1 1 0-95.04h18.32a158.176 158.176 0 0 1 11.04-26.24c-0.72-0.64-1.52-1.28-2.24-2l-12.24-12.16a46.744 46.744 0 0 1 0-66.8 48.144 48.144 0 0 1 67.6 0l12.24 12.08c0.72 0.72 1.36 1.44 2 2.16a160.392 160.392 0 0 1 27.28-11.28v-15.68a47.8 47.8 0 0 1 95.6 0v15.68a168.112 168.112 0 0 1 27.12 11.2l11.36-11.2a48.296 48.296 0 0 1 67.6 0 46.984 46.984 0 0 1 0 66.88l-11.44 11.28a158.176 158.176 0 0 1 11.04 26.24c0.32 0 0.64-0.08 0.96-0.08h17.52a47.64 47.64 0 1 1 0 95.28z m-172-138a90.248 90.248 0 1 0 91.28 90.24 90.704 90.704 0 0 0-91.28-90.24zM820 520c-16.96 7.52-37.68-5.84-40-16s-34.72-37.92-56-40-60.88 3.28-80 40a51.08 51.08 0 0 1-13.12 16H348v96h147.36c4 10.56 8.56 28.4-3.36 32s-22.64 21.44-28.16 32H348v96h152s10.16 19.84 0 32-13.2 53.04 8 64H188a96 96 0 0 1-96-96V168a80 80 0 0 1 80-80h592a96 96 0 0 1 96 96v340.48c-10.32-4.08-28.4-9.6-40-4.48zM284 744V184h-96v592h96v-32z m480-560H348v112h416V184z m0 176H348v96h416v-96z" fill="#515151" p-id="2949"></path></svg>