<?xml version="1.0" standalone="no"?><!DOCTYPE svg PUBLIC "-//W3C//DTD SVG 1.1//EN" "http://www.w3.org/Graphics/SVG/1.1/DTD/svg11.dtd"><svg t="1560735004740" class="icon" style="" viewBox="0 0 1024 1024" version="1.1" xmlns="http://www.w3.org/2000/svg" p-id="2372" xmlns:xlink="http://www.w3.org/1999/xlink" width="400" height="400"><defs><style type="text/css"></style></defs><path d="M92.161024 959.998976l839.68 0c15.552512 0 28.16-12.608512 28.16-28.16s-12.608512-28.16-28.16-28.16l-811.52 0 0-811.52c0-15.552512-12.608512-28.16-28.16-28.16s-28.16 12.608512-28.16 28.16l0 839.68C64.001024 947.391488 76.608512 959.998976 92.161024 959.998976z" p-id="2373"></path><path d="M227.963904 740.834304c32.945152 0 59.646976-30.339072 59.646976-67.757056 0-9.02656-1.56672-17.634304-4.386816-25.509888l117.758976-153.7536c5.638144 2.00704 11.634688 3.09248 17.854464 3.09248 17.381376 0 33.01888-8.449024 43.91936-21.921792l111.181824 63.333376c0.359424 37.067776 26.919936 67.002368 59.629568 67.002368 32.945152 0 59.648-30.340096 59.648-67.75808 0-1.2544-0.034816-2.496512-0.094208-3.73248l154.882048-151.143424c7.387136 3.723264 15.553536 5.807104 24.154112 5.807104 32.946176 0 59.648-30.332928 59.648-67.75808 0-37.419008-26.701824-67.757056-59.648-67.757056-32.932864 0-59.646976 30.338048-59.646976 67.757056 0 7.71072 1.149952 15.112192 3.238912 22.017024l-145.00864 141.837312c-10.196992-9.245696-23.110656-14.78656-37.173248-14.78656-16.21504 0-30.912512 7.364608-41.665536 19.29728l-113.573888-64.602112c-2.105344-35.248128-27.923456-63.108096-59.491328-63.108096-32.934912 0-59.648 30.339072-59.648 67.75808 0 10.267648 2.0224 19.995648 5.62176 28.717056L248.922112 609.631232c-6.520832-2.78016-13.581312-4.312064-20.958208-4.312064-32.934912 0-59.648 30.338048-59.648 67.75808C168.315904 710.495232 195.028992 740.834304 227.963904 740.834304z" p-id="2374"></path></svg>