<?xml version="1.0" standalone="no"?><!DOCTYPE svg PUBLIC "-//W3C//DTD SVG 1.1//EN" "http://www.w3.org/Graphics/SVG/1.1/DTD/svg11.dtd"><svg t="1560736572816" class="icon" style="" viewBox="0 0 1024 1024" version="1.1" xmlns="http://www.w3.org/2000/svg" p-id="8688" xmlns:xlink="http://www.w3.org/1999/xlink" width="400" height="400"><defs><style type="text/css"></style></defs><path d="M0 117.7v788.6h1024V117.7H0z m982.4 746.2H47.6V164.6h934.8v699.3zM881.1 398.1H478V362h403.1v36.1z m0 152.3H478v-35.9h403.1v35.9z m0 152.4H478v-36.1h403.1v36.1z" p-id="8689"></path><path d="M388.2 340.5l-91.1 153.9h79.6v27.5H279v43.4h97.7v27.5H279v90.7h-35.8v-90.7h-97.1v-27.5h97.1v-43.4h-97.1v-27.5h79.2l-92.1-153.9h39.9l88.6 150.9 87.7-150.9h38.8z" p-id="8690"></path></svg>