<?xml version="1.0" standalone="no"?><!DOCTYPE svg PUBLIC "-//W3C//DTD SVG 1.1//EN" "http://www.w3.org/Graphics/SVG/1.1/DTD/svg11.dtd"><svg t="1590486219738" class="icon" viewBox="0 0 1024 1024" version="1.1" xmlns="http://www.w3.org/2000/svg" p-id="2995" xmlns:xlink="http://www.w3.org/1999/xlink" width="200" height="200"><defs><style type="text/css"></style></defs><path d="M515.114667 298.197333V529.066667a21.333333 21.333333 0 0 0 21.333333 21.333333c0.426667 0 0.725333-0.213333 1.109333-0.213333 0.426667 0 0.682667 0.213333 1.109334 0.213333h228.693333a21.333333 21.333333 0 0 0 0-42.666667h-209.578667V298.197333a21.333333 21.333333 0 0 0-42.666666 0" p-id="2996" fill="#cdcdcd"></path><path d="M875.306667 532.693333a21.461333 21.461333 0 0 0-22.613334 20.010667C842.368 720.896 702.08 852.650667 533.333333 852.650667 356.864 852.650667 213.333333 709.12 213.333333 532.650667c0-168.704 131.754667-308.992 299.989334-319.36A21.333333 21.333333 0 0 0 510.72 170.709333C320 182.442667 170.666667 341.461333 170.666667 532.650667 170.666667 732.629333 333.354667 895.317333 533.333333 895.317333c191.232 0 350.208-149.376 361.941334-340.053333a21.333333 21.333333 0 0 0-19.968-22.570667" p-id="2997" fill="#cdcdcd"></path><path d="M813.056 377.088a21.333333 21.333333 0 1 0 37.290667-20.608 351.573333 351.573333 0 0 0-24.490667-38.229333 21.290667 21.290667 0 1 0-34.346667 25.258666c7.850667 10.752 15.061333 21.973333 21.546667 33.621334M842.88 451.157333c1.834667 7.082667 3.413333 14.250667 4.821333 21.461334a21.333333 21.333333 0 0 0 41.941334-7.936 359.466667 359.466667 0 0 0-5.546667-24.362667 21.290667 21.290667 0 1 0-41.258667 10.837333M704.298667 262.058667c11.306667 7.125333 22.144 15.018667 32.426666 23.466666a21.290667 21.290667 0 0 0 29.994667-2.986666 21.333333 21.333333 0 0 0-2.901333-30.037334 389.546667 389.546667 0 0 0-36.693334-26.538666 21.333333 21.333333 0 1 0-22.826666 36.096M593.365333 218.282667c13.226667 2.517333 26.154667 5.845333 38.741334 9.813333a21.376 21.376 0 0 0 13.098666-40.576 359.509333 359.509333 0 0 0-43.904-11.136 21.290667 21.290667 0 1 0-7.936 41.898667" p-id="2998" fill="#cdcdcd"></path></svg>