<?xml version="1.0" standalone="no"?><!DOCTYPE svg PUBLIC "-//W3C//DTD SVG 1.1//EN" "http://www.w3.org/Graphics/SVG/1.1/DTD/svg11.dtd"><svg t="1612508624469" class="icon" viewBox="0 0 1024 1024" version="1.1" xmlns="http://www.w3.org/2000/svg" p-id="2464" xmlns:xlink="http://www.w3.org/1999/xlink" width="700" height="700"><defs><style type="text/css"></style></defs><path d="M783.936 363.2c1.344 7.232 5.696 32.32 5.44 52.544 0 13.44-1.792 30.72-5.44 51.456l-0.256 1.536c-3.2 16.896-13.632 27.52-26.624 27.52h-2.688c-37.568 0-68.032 29.632-68.032 66.24 0 12.096 5.632 25.024 5.888 25.28a34.432 34.432 0 0 1-12.032 42.112l-0.96 0.64-70.08 37.76-0.896 0.512a39.68 39.68 0 0 1-42.752-9.088c-8.448-8.96-34.368-31.872-55.296-31.872-20.736 0-47.104 23.168-54.848 31.168a39.68 39.68 0 0 1-42.56 8.896l-0.896-0.512-67.584-36.864-0.96-0.448a34.048 34.048 0 0 1-12.032-42.048l0.192-0.512c0-0.192 5.76-13.184 5.76-24.768 0-36.672-30.528-66.24-68.096-66.24h-2.688c-12.8 0-23.488-10.88-26.624-27.52l-0.256-0.448a324.672 324.672 0 0 1-5.696-52.544c0-13.44 1.856-30.72 5.44-51.456l0.256-1.6c3.2-16.832 13.632-27.52 26.624-27.52h2.752c37.504 0 68.032-29.568 68.032-66.24 0-11.84-5.76-24.576-5.76-24.768l-0.192-0.448a34.112 34.112 0 0 1 12.096-42.112l0.896-0.64 71.232-38.272 0.896-0.448a39.68 39.68 0 0 1 42.56 8.64c8.192 8.192 33.92 29.824 54.144 29.824 20.288 0 46.208-21.888 53.76-29.44 7.04-7.04 17.28-11.072 27.968-11.072 5.184 0 9.984 0.896 14.528 2.688l0.896 0.448 68.992 37.376 0.896 0.64a34.304 34.304 0 0 1 12.032 42.112l-0.192 0.64a69.76 69.76 0 0 0-5.696 24.64c0 36.608 30.464 66.176 68.032 66.176h2.944c12.8 0 23.488 10.944 26.624 27.52l0.256 0.512z m-56 89.152c1.408-8.384 3.84-24.32 3.456-36.608 0-11.84-1.856-26.368-3.648-36.608l-0.448-2.56-2.56-0.192a96.832 96.832 0 0 1-88.512-95.808c0-12.8 3.84-25.28 6.144-31.616l0.96-2.752-55.552-30.08-1.792 1.664a150.912 150.912 0 0 1-20.032 16.128c-18.688 12.8-36.48 19.328-53.056 19.328-16.64 0-34.56-6.592-53.44-19.776a153.92 153.92 0 0 1-20.288-16.384l-1.792-1.6-57.6 30.72 0.896 2.752c2.304 6.4 6.144 18.624 6.144 31.616 0 49.6-37.952 90.816-88.512 95.808l-2.496 0.192-0.448 2.56a251.52 251.52 0 0 0-3.648 36.608c0 11.84 1.856 26.368 3.648 36.608l0.448 2.56 2.56 0.192c50.496 4.992 88.448 46.208 88.448 95.808 0 12.992-3.84 25.472-6.144 31.872l-0.896 2.688 54.144 29.632 1.856-1.856a192.64 192.64 0 0 1 20.224-16.832c19.136-13.888 37.568-20.672 54.4-20.672 17.28 0 35.52 7.04 54.848 20.928 9.792 7.04 17.536 14.336 20.224 17.024l1.856 1.856 56.192-30.272-0.896-2.752a97.792 97.792 0 0 1-6.144-31.616c0-49.6 38.016-90.816 88.512-95.808l2.56-0.192 0.384-2.56z m100.8 497.024a36.8 36.8 0 0 1-0.192 73.728H190.016a36.992 36.992 0 0 1-36.864-36.864c0-20.288 16.64-36.864 36.864-36.864h638.72zM966.208 0.64c31.36 0 57.088 26.88 57.088 60.288v689.024c0 33.28-25.472 60.288-57.088 60.288H57.088c-31.616 0-57.088-26.88-57.088-60.288V60.992C0 27.712 25.472 0.64 57.088 0.64h909.12zM65.088 744.32h888.32V74.368H65.152V744.32z" p-id="2465" fill="#8a8a8a"></path></svg>