<?xml version="1.0" standalone="no"?><!DOCTYPE svg PUBLIC "-//W3C//DTD SVG 1.1//EN" "http://www.w3.org/Graphics/SVG/1.1/DTD/svg11.dtd"><svg t="1641537260295" class="icon" viewBox="0 0 1024 1024" version="1.1" xmlns="http://www.w3.org/2000/svg" p-id="6606" xmlns:xlink="http://www.w3.org/1999/xlink" width="1000" height="1000"><defs><style type="text/css"></style></defs><path d="M149.333333 176.682667m42.666667 0l640 0q42.666667 0 42.666667 42.666666l0 456.469334q0 42.666667-42.666667 42.666666l-640 0q-42.666667 0-42.666667-42.666666l0-456.469334q0-42.666667 42.666667-42.666666Z" fill="#5454D4" p-id="6607"></path><path d="M229.994667 817.28m14.997333 0l534.016 0q14.997333 0 14.997333 14.997333l0 0.021334q0 14.997333-14.997333 14.997333l-534.016 0q-14.997333 0-14.997333-14.997333l0-0.021334q0-14.997333 14.997333-14.997333Z" fill="#5454D4" p-id="6608"></path><path d="M526.997333 681.621333m0 14.997334l0 128.832q0 14.997333-14.997333 14.997333l-0.021333 0q-14.997333 0-14.997334-14.997333l0-128.832q0-14.997333 14.997334-14.997334l0.021333 0q14.997333 0 14.997333 14.997334Z" fill="#5454D4" p-id="6609"></path><path d="M636.202667 561.92l-29.504 4.266667a7.658667 7.658667 0 0 1-8.725334-8.170667l2.346667-29.717333a36.778667 36.778667 0 0 1 9.856-22.293334l150.357333-160.170666a10.666667 10.666667 0 0 1 15.146667-0.490667l32 30.037333a10.666667 10.666667 0 0 1 0.490667 15.146667l-150.357334 160.170667a36.842667 36.842667 0 0 1-21.610666 11.221333z" fill="#FFFFFF" p-id="6610"></path><path d="M266.56 315.178667m14.997333 0l302.037334 0q14.997333 0 14.997333 14.997333l0 0.021333q0 14.997333-14.997333 14.997334l-302.037334 0q-14.997333 0-14.997333-14.997334l0-0.021333q0-14.997333 14.997333-14.997333Z" fill="#FFFFFF" p-id="6611"></path><path d="M266.56 424.448m14.997333 0l243.562667 0q14.997333 0 14.997333 14.997333l0 0.021334q0 14.997333-14.997333 14.997333l-243.562667 0q-14.997333 0-14.997333-14.997333l0-0.021334q0-14.997333 14.997333-14.997333Z" fill="#FFFFFF" p-id="6612"></path><path d="M266.56 533.717333m14.997333 0l120.384 0q14.997333 0 14.997334 14.997334l0 0.021333q0 14.997333-14.997334 14.997333l-120.384 0q-14.997333 0-14.997333-14.997333l0-0.021333q0-14.997333 14.997333-14.997334Z" fill="#FFFFFF" p-id="6613"></path></svg>