<?xml version="1.0" standalone="no"?><!DOCTYPE svg PUBLIC "-//W3C//DTD SVG 1.1//EN" "http://www.w3.org/Graphics/SVG/1.1/DTD/svg11.dtd"><svg t="1588919908818" class="icon" viewBox="0 0 1304 1024" version="1.1" xmlns="http://www.w3.org/2000/svg" p-id="1678" xmlns:xlink="http://www.w3.org/1999/xlink" width="382.03125" height="300"><defs><style type="text/css"></style></defs><path d="M1153.009444 310.216093H54.915203v568.275751A80.896145 80.896145 0 0 0 137.265714 960.842355h658.875618a27.442223 27.442223 0 0 1 0 54.836762H137.265714A135.899802 135.899802 0 0 1 0.006914 878.420318V137.265714A135.899802 135.899802 0 0 1 137.265714 0.006914h933.393218a135.899802 135.899802 0 0 1 137.2588 137.2588v236.036498a27.442223 27.442223 0 0 1-54.836762 0z m0-54.836762V137.33724a80.896145 80.896145 0 0 0-82.350512-82.350511H137.265714A80.896145 80.896145 0 0 0 54.915203 137.33724v118.042091zM878.491844 186.73801a27.442223 27.442223 0 1 1 27.442223-27.442223 25.940173 25.940173 0 0 1-27.442223 27.394539z m82.350511 0a27.442223 27.442223 0 1 1 27.442223-27.442223A25.940173 25.940173 0 0 1 960.842355 186.690326z m82.350512 0a27.442223 27.442223 0 1 1 27.442223-27.442223 25.940173 25.940173 0 0 1-27.418381 27.394539z m255.300891 414.54208l5.483676 13.733033-54.836762 68.641321a41.175256 41.175256 0 0 0 0 49.424612l52.16645 63.133802-5.483676 13.733033a295.880095 295.880095 0 0 1-52.16645 96.083544l-10.991195 13.733033-82.350511-13.733033a38.886417 38.886417 0 0 0-41.175256 24.628859l-27.442223 82.350512-13.733033 2.741838a290.086472 290.086472 0 0 1-137.2588 0l-16.474871-2.741838-27.442223-82.350512a38.886417 38.886417 0 0 0-41.175255-24.700385l-85.09235 13.733033-10.991195-10.991195a248.768164 248.768164 0 0 1-30.207903-43.917094 198.151448 198.151448 0 0 1-24.700385-54.836762l-5.483676-13.733033 54.836762-65.87564a41.175256 41.175256 0 0 0 0-49.424612l-54.836762-65.875641 5.483676-13.733033a349.643964 349.643964 0 0 1 54.836762-98.825382l10.991195-10.991195 82.350511 13.733033a38.886417 38.886417 0 0 0 41.175256-24.700385l30.207903-82.350511 13.733033-2.741839a369.28983 369.28983 0 0 1 134.516962 0l16.47487 2.741839 27.442224 79.608673a44.966145 44.966145 0 0 0 41.175255 27.442223l85.09235-10.991194 10.991194 10.991194a248.792006 248.792006 0 0 1 30.207904 43.726357 182.081892 182.081892 0 0 1 24.700385 52.261819z m-71.383159-27.442223l-16.451029-24.891122-52.16645 5.483677a96.202754 96.202754 0 0 1-101.567221-63.133803l-16.47487-49.424612a207.950539 207.950539 0 0 0-82.350512 0l-19.216709 52.16645a92.984075 92.984075 0 0 1-101.56722 60.391965l-49.424612-8.225515a214.578634 214.578634 0 0 0-30.207903 54.836762l35.763105 41.175256a98.849224 98.849224 0 0 1 0 120.783929l-35.763105 41.175256a184.489942 184.489942 0 0 0 16.47487 32.949741 153.256829 153.256829 0 0 0 13.733033 21.958547l54.836762-8.225514a96.202754 96.202754 0 0 1 101.56722 63.133803l16.474871 52.16645a207.950539 207.950539 0 0 0 82.350512 0l19.216708-54.836762a92.984075 92.984075 0 0 1 101.567221-60.391965l49.424612 8.225515a351.694382 351.694382 0 0 0 30.207903-54.836763l-32.878215-38.409575a98.896908 98.896908 0 0 1-2.741838-118.042091l35.763106-43.917094a299.408721 299.408721 0 0 1-16.474871-30.207903z m-227.858668 271.799604a137.2588 137.2588 0 1 1 137.2588-137.2588 139.476112 139.476112 0 0 1-137.234958 137.163431z m0-54.836763a82.350511 82.350511 0 1 0-82.350512-82.350511 80.896145 80.896145 0 0 0 82.374354 82.183617z" fill="#cdcdcd" p-id="1679"></path><path d="M441.991217 510.632538a28.276696 28.276696 0 0 1 49.424612 27.442223l-137.2588 238.849862a30.39864 30.39864 0 0 1-38.433417 10.991195 29.516483 29.516483 0 0 1-10.991195-38.433418z m-170.208541 8.225514L197.657679 639.546613l74.124997 126.362974a28.276696 28.276696 0 1 1-49.424612 27.442223l-90.599868-153.733671 90.599868-148.249994a26.989224 26.989224 0 0 1 38.433417-8.225514 26.226278 26.226278 0 0 1 10.991195 35.715421z m252.559053 247.051535l74.124997-126.362974-74.124997-120.783929a27.799854 27.799854 0 0 1 46.658932-30.207903l90.599867 148.249994-90.599867 153.733671a30.39864 30.39864 0 0 1-38.433418 10.991194 29.087326 29.087326 0 0 1-8.225514-35.620053z" fill="#cdcdcd" p-id="1680"></path></svg>