<?xml version="1.0" standalone="no"?><!DOCTYPE svg PUBLIC "-//W3C//DTD SVG 1.1//EN" "http://www.w3.org/Graphics/SVG/1.1/DTD/svg11.dtd"><svg t="1614591014567" class="icon" viewBox="0 0 1024 1024" version="1.1" xmlns="http://www.w3.org/2000/svg" p-id="8307" xmlns:xlink="http://www.w3.org/1999/xlink" width="700" height="700"><defs><style type="text/css"></style></defs><path d="M1021.801 688.777c-27.439 43.046-52.060 88.236-82.873 128.707-77.765 102.105-179.439 155.915-311.17 152.645-125.846-3.121-251.865-1.13-377.775 0.836-38.871 0.603-52.189-12.528-51.255-51.909 2.369-100.147 1.706-200.407 0.324-300.589-0.462-33.277 11.333-45.741 44.929-45.31 105.604 1.367 211.236 0.496 316.859 0.496 112.671 0 137.135 17.593 170.896 129.207 19.604-27.398 37.911-49.834 52.823-74.347 73.563-121.005 161.498-123.065 237.244-4.846-0.001 21.708-0.001 43.403-0.001 65.11zM249.657 921.958c17.749 0 32.379 0.014 47.011 0 102.971-0.044 206.198-4.672 308.869 0.877 177.36 9.58 282.883-85.998 357.537-231.382 19.811-38.587 8.906-75.567-24.825-95.252-33.266-19.436-70.513-9.247-94.629 26.853-19.517 29.248-36.255 60.515-57.44 88.46-36.503 48.146-84.418 72.971-147.216 70.688-73.066-2.663-146.335 0.498-219.438-1.645-14.004-0.414-38.372-12.447-39.43-21.317-3.316-27.938 22.028-24.662 40.326-24.798 67.742-0.484 135.495-0.063 203.237-0.271 44.892-0.135 62.902-25.801 46.836-67.907-12.995-34.046-41.073-44.151-74.929-44.095-108.4 0.158-216.791 0.041-325.184 0.208-6.38 0.016-12.751 1.675-20.733 2.787 0.001 98.011 0.001 193.757 0.001 296.791z" p-id="8308" fill="#bfbfbf"></path><path d="M842.751 21.408c4.329 17.772 12.256 35.536 12.289 53.316 0.061 45.675 13.557 107.59-10.237 132.396-23.036 24.019-85.855 11.747-131.235 12.098-131.379 1.008-262.78-0.611-394.148 0.987-34.845 0.429-49.888-9.507-46.762-45.98 4.354-50.804 5.822-101.861 8.527-152.815 187.188-0.001 374.378-0.001 561.566-0.001zM561.984 74.134c-77.985 0-152.564 0-228.267 0 0 29.606 0 56 0 85.090 76.733 0 151.321 0 228.267 0 0-28.604 0-55.015 0-85.090z" p-id="8309" fill="#bfbfbf"></path><path d="M-19.945 550.421c61.771 0 123.541 0 185.595 0 1.883 4.259 4.81 7.805 4.817 11.347 0.345 141.614 0.458 283.238 0.385 424.862-0.002 3.808-2.351 7.609-3.606 11.414-62.394 0-124.795 0-187.188 0 0-149.206 0-298.417 0-447.623zM125.028 636.193c-21.263-16.86-34.847-35.458-44.916-33.714-13.964 2.417-25.286 20.102-37.741 31.251 11.803 11.764 22.121 29.998 35.892 33.145 10.035 2.297 24.623-15.293 46.765-30.681z" p-id="8310" fill="#bfbfbf"></path><path d="M562.81 458.023c-82.725-0.006-165.471-0.977-248.171 0.487-32.020 0.565-43.655-11.302-42.041-43.014 2-39.22 1.61-78.675 0.114-117.946-1.090-28.645 11.151-37.954 38.626-37.841 168.164 0.667 336.34 0.827 504.502-0.141 30.31-0.175 41.274 11.333 40.214 40.762-1.398 39.278-1.485 78.691 0.023 117.963 1.162 30.257-11.594 40.549-41.019 40.144-84.071-1.168-168.161-0.414-252.247-0.414zM562.080 308.803c-78.77 0-152.405 0-227.634 0 0 29.948 0 57.338 0 84.93 77.535 0 152.133 0 227.634 0 0-29.668 0-56.039 0-84.93z" p-id="8311" fill="#bfbfbf"></path><path d="M807.035 500.341c-20.445 23.845-41.171 48.013-65.809 76.758-51.711-69.414-127.469-68.708-204.387-67.31-84.681 1.542-169.407 0.352-254.109 0.352-0.038-3.266-0.073-6.535-0.108-9.799 174.338 0 348.677 0 524.411 0z" p-id="8312" fill="#bfbfbf"></path></svg>