<?xml version="1.0" standalone="no"?><!DOCTYPE svg PUBLIC "-//W3C//DTD SVG 1.1//EN" "http://www.w3.org/Graphics/SVG/1.1/DTD/svg11.dtd"><svg t="1558517933860" class="icon" style="" viewBox="0 0 1024 1024" version="1.1" xmlns="http://www.w3.org/2000/svg" p-id="14976" xmlns:xlink="http://www.w3.org/1999/xlink" width="200" height="200"><defs><style type="text/css"></style></defs><path d="M512 176c185.3 0 336 150.8 336 336 0 185.3-150.7 336-336 336-185.2 0-336-150.7-336-336 0-185.2 150.8-336 336-336m0-112C264.6 64 64 264.6 64 512s200.6 448 448 448 448-200.6 448-448S759.4 64 512 64" p-id="14977"></path><path d="M624 680c-14.3 0-28.7-5.5-39.6-16.4l-111.9-112c-10.2-10.1-16.4-24-16.5-39.5V288c0-31 25.1-56 56-56s56 25 56 56v200.8l95.6 95.6c21.9 21.9 21.9 57.3 0 79.2-10.9 10.9-25.3 16.4-39.6 16.4" p-id="14978"></path></svg>