<?xml version="1.0" standalone="no"?><!DOCTYPE svg PUBLIC "-//W3C//DTD SVG 1.1//EN" "http://www.w3.org/Graphics/SVG/1.1/DTD/svg11.dtd"><svg t="1585551189441" class="icon" viewBox="0 0 1024 1024" version="1.1" xmlns="http://www.w3.org/2000/svg" p-id="19681" width="250" height="250" xmlns:xlink="http://www.w3.org/1999/xlink"><defs><style type="text/css"></style></defs><path d="M812.864 403.072A318.613333 318.613333 0 0 0 703.978667 384C527.573333 384 384 527.530667 384 704c0 89.621333 37.034667 170.773333 96.618667 228.906667H130.197333a85.333333 85.333333 0 0 1-85.333333-85.333334v-725.333333a85.333333 85.333333 0 0 1 85.333333-85.333333h597.333334a85.333333 85.333333 0 0 1 85.333333 85.333333v280.832z m-376.021333 34.410667c12.458667 0 22.677333-12.8 22.677333-28.458667 0-15.637333-10.218667-28.437333-22.677333-28.437333H199.786667c-12.458667 0-22.656 12.8-22.656 28.437333 0 15.658667 10.197333 28.458667 22.656 28.458667h237.056z m193.92-176.362667c15.637333 0 28.437333-12.8 28.437333-28.437333 0-15.658667-12.8-28.458667-28.437333-28.458667H205.589333c-15.637333 0-28.437333 12.8-28.437333 28.458667 0 15.637333 12.8 28.437333 28.437333 28.437333h425.173334z" fill="#01CEB8" p-id="19682"></path><path d="M704 981.354667c-152.938667 0-277.333333-124.416-277.333333-277.333334C426.666667 551.04 551.061333 426.666667 704 426.666667s277.333333 124.394667 277.333333 277.333333-124.394667 277.354667-277.333333 277.354667z" fill="#01CEB8" p-id="19683"></path><path d="M847.424 630.122667a28.522667 28.522667 0 0 0-39.829333-5.845334l-136.896 101.802667-43.413334-58.794667a28.522667 28.522667 0 0 0-39.765333-6.016 28.544 28.544 0 0 0-5.973333 39.808l59.648 80.810667c5.034667 6.826667 12.586667 10.453333 20.48 11.136a28.373333 28.373333 0 0 0 21.333333-5.205333l158.549333-117.930667a28.501333 28.501333 0 0 0 5.866667-39.765333" fill="#FFFFFF" p-id="19684"></path></svg>