<?xml version="1.0" standalone="no"?><!DOCTYPE svg PUBLIC "-//W3C//DTD SVG 1.1//EN" "http://www.w3.org/Graphics/SVG/1.1/DTD/svg11.dtd"><svg t="1557545662419" class="icon" style="" viewBox="0 0 1024 1024" version="1.1" xmlns="http://www.w3.org/2000/svg" p-id="1698" xmlns:xlink="http://www.w3.org/1999/xlink" width="200" height="200"><defs><style type="text/css"></style></defs><path d="M286.567045 465.009468c16.831474 16.799475 81.725446 85.277335 81.725446 85.277335l35.966876-37.086841-56.382238-58.23818 108.220618-114.940408c0 0-48.830474-47.614512-27.455142-28.639105 20.447361-75.901628 1.823943-160.570982-55.838255-220.249117-57.150214-59.19815-138.363676-78.589544-211.321396-58.206181l123.644136 127.708009-32.542983 125.308084-121.052217 33.438955-123.580138-127.740008c-19.711384 75.421643-0.95997 159.323021 56.31824 218.55317 60.094122 62.110059 146.619418 80.381488 222.329052 54.846286zM698.810162 589.197588l-149.11534 147.291397 245.912315 254.808037c20.063373 20.79935 46.494547 31.199025 72.861723 31.199025 26.23918 0 52.638355-10.367676 72.797725-31.199025 40.254742-41.630699 40.254742-108.988594 0-150.619293l-242.488422-251.480141zM1023.66401 161.818943l-156.603106-161.818943-461.649573 477.297084 56.382238 58.23818-276.311365 285.591075-63.166026 33.758945-89.213212 145.563451 22.71929 23.551264 140.827599-92.253117 32.63898-65.309959 276.343364-285.559076 56.414237 58.23818 461.649573-477.297084z" p-id="1699"></path></svg>