<?xml version="1.0" standalone="no"?><!DOCTYPE svg PUBLIC "-//W3C//DTD SVG 1.1//EN" "http://www.w3.org/Graphics/SVG/1.1/DTD/svg11.dtd"><svg t="1620895214958" class="icon" viewBox="0 0 1024 1024" version="1.1" xmlns="http://www.w3.org/2000/svg" p-id="81493" xmlns:xlink="http://www.w3.org/1999/xlink" width="500" height="500"><defs><style type="text/css"></style></defs><path d="M535.2 0h69.6v95.2c124 0.8 248-1.6 373.6 0.8 22.4-2.4 42.4 13.6 44.8 35.2v9.6c1.6 234.4 0 469.6 0.8 704-0.8 24 2.4 50.4-11.2 72-16.8 12.8-39.2 11.2-59.2 11.2H604.8v95.2h-72.8C355.2 990.4 177.6 960 0 928V95.2C178.4 63.2 356.8 32.8 535.2 0z" fill="#0071C5" p-id="81494"></path><path d="M470.4 359.2h-360v62.4h148.8v304h62.4v-304h148.8v-62.4z m134.4-228v762.4h384V131.2h-384z m180 64l22.4 33.6 22.4-33.6h19.2l-32 46.4 34.4 49.6H832l-24-37.6-24.8 37.6h-20l34.4-49.6-32-46.4h19.2z m-121.6 13.6v-13.6h79.2v13.6h-31.2v83.2h-16V208.8h-32z m290.4 0h-32v83.2h-16V208.8h-32v-13.6h79.2l0.8 13.6z" fill="#FFFFFF" p-id="81495"></path><path d="M645.6 365.6h302.4v48H645.6v-48z m0 82.4h302.4v48H645.6v-48z m0 81.6h302.4v48H645.6v-48z m0 81.6h302.4v48H645.6v-48z m0 82.4h302.4v48H645.6v-48z m-49.6 81.6h351.2v48H596v-48z" fill="#0071C5" p-id="81496"></path></svg>