<?xml version="1.0" standalone="no"?><!DOCTYPE svg PUBLIC "-//W3C//DTD SVG 1.1//EN" "http://www.w3.org/Graphics/SVG/1.1/DTD/svg11.dtd"><svg t="1589457487759" class="icon" viewBox="0 0 1024 1024" version="1.1" xmlns="http://www.w3.org/2000/svg" p-id="4122" xmlns:xlink="http://www.w3.org/1999/xlink" width="200" height="200"><defs><style type="text/css"></style></defs><path d="M808.4 303.8c0-132.1-107.4-239.5-239.5-239.5S329.4 171.7 329.4 303.8c0 41.3 10.7 82 30.9 117.7 5.1 9 16.5 12.2 25.6 7.1 9-5.1 12.2-16.5 7.1-25.6-17-30.1-26-64.4-26-99.2 0-111.4 90.6-202 202-202s202 90.6 202 202-90.6 202-202 202C329 505.8 133.7 701 133.7 941c0 10.4 8.4 18.8 18.8 18.8s18.8-8.4 18.8-18.8c0-219.3 178.4-397.7 397.7-397.7 132 0 239.4-107.4 239.4-239.5zM517.8 700.7c0 10.4 8.4 18.8 18.8 18.8h334.9c10.4 0 18.8-8.4 18.8-18.8s-8.4-18.8-18.8-18.8H536.6c-10.4 0-18.8 8.4-18.8 18.8z m353.7 101.4H536.6c-10.4 0-18.8 8.4-18.8 18.8s8.4 18.8 18.8 18.8h334.9c10.4 0 18.8-8.4 18.8-18.8s-8.4-18.8-18.8-18.8z m0 120.1H536.6c-10.4 0-18.8 8.4-18.8 18.8s8.4 18.8 18.8 18.8h334.9c10.4 0 18.8-8.4 18.8-18.8s-8.4-18.8-18.8-18.8z" fill="#cdcdcd" p-id="4123"></path></svg>