<?xml version="1.0" standalone="no"?><!DOCTYPE svg PUBLIC "-//W3C//DTD SVG 1.1//EN" "http://www.w3.org/Graphics/SVG/1.1/DTD/svg11.dtd"><svg t="1606181281662" class="icon" viewBox="0 0 1024 1024" version="1.1" xmlns="http://www.w3.org/2000/svg" p-id="2276" xmlns:xlink="http://www.w3.org/1999/xlink" width="200" height="200"><defs><style type="text/css"></style></defs><path d="M540.805 546.302c7.068 1.196 14.087 2.682 21.057 4.34 12.78 3.04 25.341 6.965 37.637 11.547a315.55 315.55 0 0 1 8.246 3.227l0.083 0.033c0.251 0.108 0.564 0.245 0.972 0.42a318.342 318.342 0 0 1 4.855 2.153c6.46 2.91 12.799 6.08 19.047 9.404 11.021 5.862 24.895 2.817 31.378-8.162 6.14-10.39 2.777-25.257-8.226-31.105a352.777 352.777 0 0 0-59.46-24.946c18.063-11.003 34.382-24.808 47.885-40.648 30.93-36.282 48.175-82.019 48.353-129.597-0.178-47.823-17.594-93.003-48.353-129.6-28.76-34.221-70.933-58.246-115.051-66.237-47.716-8.652-97.172-0.57-139.192 23.643-40.645 23.421-70.916 60.763-87.486 104.106-16.442 42.985-16.09 93.17 0 136.175 15.835 42.324 45.375 78.368 84.1 102.073-28.506 9.003-55.835 21.654-81.047 37.702-46.981 29.908-86.349 71.136-114.051 119.185-29.517 51.201-44.803 110.06-44.968 168.954-0.037 12.4 10.459 22.743 22.931 22.743 12.53 0 22.903-10.344 22.935-22.736 0.023-6.986 0.25-13.958 0.69-20.925 0.221-3.482 0.529-6.959 0.86-10.43 0.169-1.736 0.36-3.472 0.556-5.203 0.075-0.66 0.423-3.27 0.581-4.483 2.03-13.75 5.04-27.35 8.842-40.726 1.91-6.713 4.096-13.35 6.447-19.924 1.177-3.29 2.435-6.55 3.72-9.796 0.333-0.838 0.683-1.668 1.027-2.502 0.195-0.43 1.566-3.658 1.897-4.402 5.549-12.415 11.991-24.423 19.083-36.034 3.402-5.57 7.02-11.015 10.76-16.367 1.868-2.68 3.8-5.316 5.748-7.935 0.479-0.644 0.971-1.277 1.456-1.915-0.107 0.172 2.455-3.108 3.004-3.786 8.557-10.567 17.86-20.524 27.699-29.928 4.696-4.495 9.57-8.809 14.531-13.008a325.625 325.625 0 0 1 7.559-6.176c0.317-0.251 1.107-0.863 1.752-1.367a469.896 469.896 0 0 1 3.972-2.951c10.937-8.011 22.44-15.255 34.31-21.837 5.223-2.9 10.547-5.61 15.927-8.211a322.619 322.619 0 0 1 7.605-3.53c1.567-0.708 3.147-1.39 4.723-2.075 0.26-0.104 0.599-0.24 1.048-0.422 11.864-4.816 24.055-8.833 36.416-12.206 12.358-3.379 24.937-5.923 37.611-7.817l0.935-0.134c1.123-0.14 2.245-0.283 3.37-0.414 3.475-0.403 6.958-0.722 10.44-1.017 7.05-0.595 14.121-0.9 21.192-1.032 13.148-0.25 26.307 0.413 39.386 1.746 0.968 0.1 5.742 0.694 6.617 0.782 2.871 0.418 5.732 0.868 8.59 1.351z m11.361-61.398c3.856-1.67 1.532-0.64 0 0z m-214.778-161.66c-0.262 2.092-0.159 1.211 0 0z m183.48 170.982c-2.55 0.523-5.116 0.958-7.692 1.366-0.191 0.03-0.435 0.066-0.699 0.103-1.209 0.141-2.418 0.27-3.628 0.39-11.066 1.099-22.236 1.057-33.315 0.12-1.085-0.091-4.574-0.515-5.856-0.657a209.061 209.061 0 0 1-4.925-0.83c-5.509-0.998-10.956-2.313-16.342-3.829-4.917-1.38-9.76-3.02-14.538-4.818-0.972-0.368-1.94-0.755-2.907-1.141-2.64-1.155-5.245-2.397-7.824-3.67-9.306-4.603-18.142-10.109-26.49-16.248a166.38 166.38 0 0 1-2.415-1.94 165.996 165.996 0 0 1-5.672-4.86c-4.04-3.573-7.87-7.376-11.563-11.3a168.135 168.135 0 0 1-7.749-8.883c-0.051-0.122-2.877-3.795-3.607-4.818-1.696-2.364-3.308-4.788-4.884-7.229-2.706-4.206-5.193-8.547-7.532-12.967a165.11 165.11 0 0 1-3.355-6.733c-0.536-1.117-1.043-2.25-1.551-3.378l-0.168-0.413c-4.008-9.83-6.997-20.052-9.155-30.437-0.524-2.528-0.962-5.075-1.372-7.628a25.263 25.263 0 0 1-0.07-0.454c-0.101-0.844-0.207-1.688-0.296-2.533-0.62-5.694-0.894-11.412-0.956-17.135-0.06-5.304 0.172-10.607 0.588-15.892 0.166-2.108 0.395-4.209 0.646-6.308 0.032-0.225 0.062-0.431 0.088-0.6 0.26-1.705 0.566-3.4 0.88-5.096 1.925-10.447 4.923-20.693 8.716-30.618 0.362-0.941 0.743-1.876 1.123-2.81a177.252 177.252 0 0 1 3.169-6.715c2.405-4.86 5.08-9.582 7.918-14.202 2.61-4.244 5.445-8.347 8.408-12.363 0.132-0.18 0.31-0.413 0.5-0.664 0.429-0.53 0.851-1.066 1.285-1.593 1.832-2.25 3.745-4.43 5.694-6.589 6.243-6.927 13.104-13.299 20.378-19.161 0.33-0.212 3.831-2.86 4.83-3.564 2.046-1.445 4.134-2.817 6.236-4.169 4.574-2.943 9.312-5.632 14.127-8.143a187.34 187.34 0 0 1 6.793-3.328c1.113-0.521 2.238-1.019 3.368-1.519 4.883-1.965 9.862-3.68 14.897-5.21 4.93-1.496 9.938-2.728 14.976-3.792 2.55-0.537 5.107-0.99 7.673-1.42 0.3-0.048 0.599-0.089 0.899-0.137 0.97-0.126 2.665-0.35 3.411-0.428 11.054-1.18 22.221-1.221 33.302-0.362 1.53 0.116 3.056 0.269 4.58 0.432 0.058 0.043 4.927 0.704 6.244 0.934 5.521 0.96 10.984 2.24 16.387 3.712 4.931 1.343 9.787 2.952 14.578 4.717 0.898 0.329 3.555 1.417 4.902 1.96a211.208 211.208 0 0 1 5.895 2.738c9.406 4.571 18.342 10.06 26.79 16.192 0.182 0.132 0.418 0.307 0.67 0.496 0.534 0.425 1.074 0.844 1.606 1.271 1.941 1.56 3.84 3.179 5.714 4.82 4.06 3.55 7.918 7.325 11.637 11.228 3.3 3.457 6.415 7.075 9.417 10.786a201 201 0 0 1 2.067 2.799c1.71 2.355 3.336 4.765 4.93 7.198 2.74 4.186 5.252 8.51 7.622 12.907a177.288 177.288 0 0 1 3.405 6.704c0.548 1.131 1.072 2.275 1.597 3.415l0.376 0.818c4.14 10.052 7.235 20.502 9.434 31.132a171.968 171.968 0 0 1 1.478 8.286c0.143 1.21 0.275 2.42 0.395 3.634 0.575 5.7 0.81 11.438 0.83 17.168a193.837 193.837 0 0 1-0.707 15.863c-0.092 1.046-0.496 4.341-0.649 5.695a198.456 198.456 0 0 1-1.098 6.269c-2.001 10.426-5.07 20.636-8.93 30.525-0.151 0.385-0.31 0.762-0.466 1.144-0.234 0.543-0.497 1.155-0.672 1.54-1.03 2.293-2.132 4.544-3.258 6.792-2.437 4.838-5.144 9.539-8.017 14.13-2.591 4.156-5.402 8.17-8.333 12.093-0.655 0.818-1.32 1.628-1.987 2.436-1.853 2.232-3.782 4.403-5.743 6.549-3.353 3.667-6.906 7.164-10.557 10.543a177.717 177.717 0 0 1-5.607 4.937c-0.975 0.828-4.684 3.726-5.403 4.322-7.666 5.608-15.826 10.555-24.292 14.893a181.33 181.33 0 0 1-6.816 3.275c-0.836 0.385-1.68 0.752-2.526 1.121l-0.149 0.06c-5.128 2.057-10.374 3.816-15.672 5.385-4.939 1.466-9.96 2.657-15.016 3.686z m11.08 126.74c0 12.399 10.427 22.741 22.928 22.741h298.61c12.497 0 22.93-10.343 22.93-22.74s-10.432-22.74-22.93-22.74h-298.61c-12.5 0-22.929 10.342-22.929 22.74z m321.538 95.705h-298.61c-12.5 0-22.929 10.344-22.929 22.74 0 12.397 10.428 22.744 22.93 22.744h298.609c12.497 0 22.93-10.347 22.93-22.743 0-12.398-10.432-22.74-22.93-22.74z m0 118.45h-298.61c-12.5 0-22.929 10.343-22.929 22.74 0 12.393 10.428 22.738 22.93 22.738h298.609c12.497 0 22.93-10.346 22.93-22.738 0-12.397-10.432-22.74-22.93-22.74z" p-id="2277" fill="#cdcdcd"></path></svg>