<?xml version="1.0" standalone="no"?><!DOCTYPE svg PUBLIC "-//W3C//DTD SVG 1.1//EN" "http://www.w3.org/Graphics/SVG/1.1/DTD/svg11.dtd"><svg t="1627541528205" class="icon" viewBox="0 0 1024 1024" version="1.1" xmlns="http://www.w3.org/2000/svg" p-id="3402" xmlns:xlink="http://www.w3.org/1999/xlink" width="220" height="220"><defs><style type="text/css">@font-face { font-family: feedback-iconfont; src: url("//at.alicdn.com/t/font_1031158_1uhr8ri0pk5.eot?#iefix") format("embedded-opentype"), url("//at.alicdn.com/t/font_1031158_1uhr8ri0pk5.woff2") format("woff2"), url("//at.alicdn.com/t/font_1031158_1uhr8ri0pk5.woff") format("woff"), url("//at.alicdn.com/t/font_1031158_1uhr8ri0pk5.ttf") format("truetype"), url("//at.alicdn.com/t/font_1031158_1uhr8ri0pk5.svg#iconfont") format("svg"); }
</style></defs><path d="M818.752 480.576c19.136 0 34.56 14.976 34.56 33.536 0 168.64-129.984 307.84-298.112 328.384v71.808H684.8c19.136 0 34.56 14.976 34.56 33.536 0 18.496-15.424 33.472-34.56 33.472H339.2a34.048 34.048 0 0 1-34.56-33.472c0-18.56 15.424-33.536 34.56-33.536h129.6v-71.808c-166.272-20.352-295.296-156.8-298.112-322.944v-5.44c0-18.56 15.424-33.536 34.56-33.536 18.88 0 34.24 14.72 34.56 32.96v0.576c0 145.792 121.856 264 272.192 264 148.8 0 269.76-115.84 272.192-259.648v-4.352c0-18.56 15.488-33.536 34.56-33.536zM512 42.688c100.224 0 181.44 78.72 181.44 176v318.464c0 97.216-81.216 176-181.44 176s-181.44-78.784-181.44-176V218.688c0-97.28 81.216-176 181.44-176z" fill="#000000" fill-opacity=".45" p-id="3403"></path></svg>