<?xml version="1.0" standalone="no"?><!DOCTYPE svg PUBLIC "-//W3C//DTD SVG 1.1//EN" "http://www.w3.org/Graphics/SVG/1.1/DTD/svg11.dtd"><svg t="1563790379791" class="icon" viewBox="0 0 1024 1024" version="1.1" xmlns="http://www.w3.org/2000/svg" p-id="2944" xmlns:xlink="http://www.w3.org/1999/xlink" width="400" height="400"><defs><style type="text/css"></style></defs><path d="M350.72 120.32c53.76-23.04 112.64-35.84 171.52-35.84 61.44 0 117.76 12.8 171.52 35.84 53.76 23.04 102.4 53.76 140.8 94.72 38.4 38.4 71.68 87.04 94.72 140.8 23.04 53.76 35.84 112.64 35.84 171.52 0 61.44-12.8 117.76-35.84 171.52-23.04 53.76-53.76 102.4-94.72 140.8-38.4 40.96-87.04 71.68-140.8 94.72-53.76 23.04-112.64 35.84-171.52 35.84-61.44 0-117.76-12.8-171.52-35.84-53.76-23.04-102.4-53.76-140.8-94.72-38.4-38.4-71.68-87.04-94.72-140.8-23.04-53.76-35.84-112.64-35.84-171.52 0-61.44 12.8-117.76 35.84-171.52 23.04-53.76 53.76-102.4 94.72-140.8S296.96 143.36 350.72 120.32zM588.8 568.32l43.52-232.96c2.56-10.24 0-17.92-5.12-25.6-5.12-7.68-15.36-10.24-25.6-10.24l-158.72 0c-10.24 0-17.92 2.56-25.6 10.24-5.12 7.68-7.68 15.36-5.12 25.6l43.52 232.96c2.56 10.24 7.68 17.92 15.36 25.6 7.68 7.68 17.92 10.24 28.16 10.24l40.96 0c10.24 0 20.48-2.56 28.16-10.24C581.12 586.24 586.24 578.56 588.8 568.32zM599.04 680.96l-153.6 0 0 76.8 153.6 0L599.04 680.96z" p-id="2945"></path></svg>