<?xml version="1.0" standalone="no"?><!DOCTYPE svg PUBLIC "-//W3C//DTD SVG 1.1//EN" "http://www.w3.org/Graphics/SVG/1.1/DTD/svg11.dtd"><svg t="1585551054407" class="icon" viewBox="0 0 1024 1024" version="1.1" xmlns="http://www.w3.org/2000/svg" p-id="15935" xmlns:xlink="http://www.w3.org/1999/xlink" width="200" height="200"><defs><style type="text/css"></style></defs><path d="M826.571257 264.777336A443.734952 443.734952 0 0 0 511.687322 134.520207a445.908035 445.908035 0 0 0-410.755228 271.55011 445.822816 445.822816 0 0 0 0 346.031453 445.737597 445.737597 0 0 0 725.639163 141.292981 443.564515 443.564515 0 0 0 0-628.617415zM511.687322 950.789698a371.68235 371.68235 0 1 1 372.40671-371.68235A372.406711 372.406711 0 0 1 511.687322 950.789698zM333.579764 121.055616a170.437854 170.437854 0 1 0-241.169563 200.90362 493.119321 493.119321 0 0 1 241.169563-200.90362z m178.107558 289.744352h-73.288278v274.490163h272.700567v-72.776963H511.687322V410.799968z m340.875707-409.732601a170.182197 170.182197 0 0 0-162.76815 120.073468 493.119321 493.119321 0 0 1 241.169563 200.90362A169.92654 169.92654 0 0 0 852.563029 1.024758z" fill="#F9860B" p-id="15936"></path></svg>