<?xml version="1.0" standalone="no"?><!DOCTYPE svg PUBLIC "-//W3C//DTD SVG 1.1//EN" "http://www.w3.org/Graphics/SVG/1.1/DTD/svg11.dtd"><svg t="1620895142140" class="icon" viewBox="0 0 1024 1024" version="1.1" xmlns="http://www.w3.org/2000/svg" p-id="72913" xmlns:xlink="http://www.w3.org/1999/xlink" width="500" height="500"><defs><style type="text/css"></style></defs><path d="M531.140923 78.926769h58.919385v80.502154c105.196308 0.945231 210.392615-1.102769 315.392 0.945231a34.185846 34.185846 0 0 1 38.006154 38.439384c1.732923 198.301538 0 396.996923 1.024 595.02277-1.024 20.361846 1.969231 42.889846-9.570462 61.046154-14.336 10.24-32.886154 9.176615-49.664 10.24H589.981538v79.005538H528.935385c-150.055385-27.569231-300.110769-53.169231-450.12677-80.068923V159.665231c150.724923-27.017846 301.646769-53.287385 452.371693-80.738462z" fill="#4A89FF" p-id="72914"></path><path d="M589.981538 189.676308h324.529231v644.174769h-324.529231v-80.502154h255.684924v-40.763077h-255.606154v-49.860923h255.645538v-40.684308h-255.684923v-49.900307h255.684923v-40.723693h-255.684923V480.492308h255.684923v-39.227077h-255.684923v-50.806154h255.684923v-39.778462h-255.684923v-50.412307h255.684923v-40.172308h-255.684923V189.715692zM282.387692 367.537231c18.707692-1.102769 37.336615-1.969231 56.083693-2.993231 13.075692 68.017231 26.427077 135.798154 40.684307 203.618462 11.106462-69.907692 23.433846-139.618462 35.328-209.289847 19.692308-0.787692 39.305846-1.772308 58.95877-3.032615-22.331077 97.476923-41.747692 195.899077-66.087385 292.864-16.423385 8.664615-40.684308 0-60.455385 0.945231-13.627077-66.756923-28.829538-133.001846-40.566154-199.916308-11.500308 65.063385-26.466462 129.496615-39.581538 194.008615-18.904615-1.024-37.809231-2.126769-56.910769-3.426461-16.226462-88.576-35.446154-176.600615-50.806154-265.373539 16.738462-0.827077 33.634462-1.536 50.806154-2.166153 10.200615 64.157538 21.700923 128 30.601846 192.196923 13.627077-65.811692 27.726769-131.623385 41.905231-197.474462v0.039385z" fill="#FFFFFF" p-id="72915"></path></svg>